M48
; DRILL file {KiCad 7.0.7} date Sat 16 Dec 2023 05:10:40 PM EET
; FORMAT={-:-/ absolute / inch / decimal}
; #@! TF.CreationDate,2023-12-16T17:10:40+02:00
; #@! TF.GenerationSoftware,Kicad,Pcbnew,7.0.7
; #@! TF.FileFunction,Plated,1,2,PTH
FMAT,2
INCH
; #@! TA.AperFunction,Plated,PTH,ViaDrill
T1C0.0157
; #@! TA.AperFunction,Plated,PTH,ComponentDrill
T2C0.0315
; #@! TA.AperFunction,Plated,PTH,ComponentDrill
T3C0.0354
; #@! TA.AperFunction,Plated,PTH,ComponentDrill
T4C0.0433
%
G90
G05
T1
X1.8006Y-2.8137
X1.8478Y-3.0423
X2.1425Y-2.3538
X2.3716Y-2.7537
X2.5744Y-2.9888
X2.6566Y-3.0538
X2.669Y-3.1424
X2.7569Y-4.2728
X2.7851Y-2.588
X2.9554Y-3.2315
X2.972Y-2.6251
X2.9831Y-2.1536
X3.0115Y-3.2986
X3.1119Y-1.9315
X3.2011Y-3.1978
X3.8199Y-2.8886
T2
X1.15Y-2.5
X1.15Y-2.5984
X1.3Y-1.6
X1.3Y-1.7
X1.3Y-1.8
X1.3Y-1.9
X1.3Y-2.0
X1.3Y-2.1
X1.3Y-2.2
X1.3Y-2.3
X1.3Y-2.4
X1.3Y-2.5
X1.3Y-2.6
X1.3Y-2.7
X1.3Y-2.8
X1.3Y-2.9
X1.3Y-3.0
X1.3Y-3.1
X1.3Y-3.2
X1.3Y-3.3
X1.3Y-3.4
X1.3Y-3.5
X1.3Y-3.65
X1.3Y-4.05
X1.45Y-3.65
X1.45Y-4.05
X1.6Y-3.65
X1.6Y-4.05
X1.75Y-3.65
X1.75Y-4.05
X1.9Y-1.6
X1.9Y-1.7
X1.9Y-1.8
X1.9Y-1.9
X1.9Y-2.0
X1.9Y-2.1
X1.9Y-2.2
X1.9Y-2.3
X1.9Y-2.4
X1.9Y-2.5
X1.9Y-2.6
X1.9Y-2.7
X1.9Y-2.8
X1.9Y-2.9
X1.9Y-3.0
X1.9Y-3.1
X1.9Y-3.2
X1.9Y-3.3
X1.9Y-3.4
X1.9Y-3.5
X1.9Y-3.65
X1.9Y-4.05
X2.3Y-1.6
X2.3Y-1.7
X2.3Y-1.8
X2.3Y-1.9
X2.3Y-2.0
X2.3Y-2.1
X2.3Y-2.2
X2.3Y-2.3
X2.3Y-2.4
X2.3Y-2.5
X2.3Y-2.6
X2.3Y-2.7
X2.3Y-2.8
X2.3Y-2.9
X2.3Y-3.0
X2.3Y-3.1
X2.55Y-1.4
X2.6484Y-1.4
X2.65Y-3.5
X2.65Y-3.6
X2.65Y-3.7
X2.65Y-3.8
X2.65Y-3.9
X2.65Y-4.0
X2.65Y-4.1
X2.65Y-4.4
X2.65Y-4.7
X2.75Y-4.4
X2.75Y-4.7
X2.7516Y-3.3
X2.85Y-3.3
X2.85Y-4.4
X2.85Y-4.7
X2.9Y-1.6
X2.9Y-1.7
X2.9Y-1.8
X2.9Y-1.9
X2.9Y-2.0
X2.9Y-2.1
X2.9Y-2.2
X2.9Y-2.3
X2.9Y-2.4
X2.9Y-2.5
X2.9Y-2.6
X2.9Y-2.7
X2.9Y-2.8
X2.9Y-2.9
X2.9Y-3.0
X2.9Y-3.1
X2.95Y-3.5
X2.95Y-3.6
X2.95Y-3.7
X2.95Y-3.8
X2.95Y-3.9
X2.95Y-4.0
X2.95Y-4.1
X2.95Y-4.4
X2.95Y-4.7
X3.05Y-4.4
X3.05Y-4.7
X3.15Y-4.4
X3.15Y-4.7
X3.25Y-3.5
X3.25Y-3.6
X3.25Y-3.7
X3.25Y-3.8
X3.25Y-3.9
X3.25Y-4.0
X3.25Y-4.1
X3.25Y-4.2
X3.25Y-4.4
X3.25Y-4.7
X3.3Y-1.6
X3.3Y-1.7
X3.3Y-1.8
X3.3Y-1.9
X3.3Y-2.0
X3.3Y-2.1
X3.3Y-2.2
X3.3Y-2.3
X3.3Y-2.4
X3.3Y-2.5
X3.3Y-2.6
X3.3Y-2.7
X3.3Y-2.8
X3.3Y-2.9
X3.35Y-4.4
X3.35Y-4.7
X3.3531Y-3.3
X3.45Y-4.4
X3.45Y-4.7
X3.4516Y-3.3
X3.55Y-3.5
X3.55Y-3.6
X3.55Y-3.7
X3.55Y-3.8
X3.55Y-3.9
X3.55Y-4.0
X3.55Y-4.1
X3.55Y-4.2
X3.55Y-4.4
X3.55Y-4.7
X3.5516Y-1.4
X3.65Y-1.4
X3.9Y-1.6
X3.9Y-1.7
X3.9Y-1.8
X3.9Y-1.9
X3.9Y-2.0
X3.9Y-2.1
X3.9Y-2.2
X3.9Y-2.3
X3.9Y-2.4
X3.9Y-2.5
X3.9Y-2.6
X3.9Y-2.7
X3.9Y-2.8
X3.9Y-2.9
X3.9Y-3.45
X3.9Y-3.6
X3.9Y-3.75
X3.9Y-3.9
X3.9Y-4.05
X3.9Y-4.2
X4.15Y-1.95
X4.15Y-2.55
X4.3Y-3.45
X4.3Y-3.6
X4.3Y-3.75
X4.3Y-3.9
X4.3Y-4.05
X4.3Y-4.2
X4.45Y-1.95
X4.45Y-2.55
X4.622Y-2.8177
X4.7016Y-1.9
X4.722Y-2.8177
X4.8Y-1.9
X4.822Y-2.8177
T3
X1.3Y-1.25
X1.4Y-1.25
X1.5Y-1.25
X1.6Y-1.25
X1.7Y-1.25
X1.8Y-1.25
X1.9Y-1.25
X2.0Y-1.25
X2.1Y-1.25
X2.2Y-1.25
X2.3Y-1.25
X2.4Y-1.25
X2.5Y-1.25
X2.6Y-1.25
X2.7Y-1.25
X2.8Y-1.25
T4
X1.1441Y-4.3728
X1.1441Y-4.55
X1.4Y-4.3728
X1.4Y-4.55
X1.5441Y-4.1957
X1.5441Y-4.3728
X1.5441Y-4.5728
X1.5441Y-4.75
X1.8Y-4.1957
X1.8Y-4.3728
X1.8Y-4.5728
X1.8Y-4.75
X1.9441Y-4.3728
X1.9441Y-4.55
X2.2Y-4.3728
X2.2Y-4.55
X3.55Y-1.05
X3.65Y-1.05
X3.75Y-1.05
X3.9691Y-4.4728
X3.9691Y-4.65
X4.225Y-4.4728
X4.225Y-4.65
X4.5941Y-3.95
X4.5941Y-4.1272
X4.5941Y-4.5
X4.5941Y-4.6772
X4.85Y-3.95
X4.85Y-4.1272
X4.85Y-4.5
X4.85Y-4.6772
T2
G00X4.561Y-1.2886
M15
G01X4.561Y-1.3752
M16
G05
G00X4.7933Y-1.2217
M15
G01X4.7067Y-1.2217
M16
G05
G00X4.8012Y-1.45
M15
G01X4.6988Y-1.45
M16
G05
T0
M30
