%TF.GenerationSoftware,KiCad,Pcbnew,7.0.7*%
%TF.CreationDate,2023-12-16T17:10:38+02:00*%
%TF.ProjectId,main,6d61696e-2e6b-4696-9361-645f70636258,rev?*%
%TF.SameCoordinates,Original*%
%TF.FileFunction,Copper,L1,Top*%
%TF.FilePolarity,Positive*%
%FSLAX46Y46*%
G04 Gerber Fmt 4.6, Leading zero omitted, Abs format (unit mm)*
G04 Created by KiCad (PCBNEW 7.0.7) date 2023-12-16 17:10:38*
%MOMM*%
%LPD*%
G01*
G04 APERTURE LIST*
%TA.AperFunction,ComponentPad*%
%ADD10C,1.600000*%
%TD*%
%TA.AperFunction,ComponentPad*%
%ADD11O,1.600000X1.600000*%
%TD*%
%TA.AperFunction,ComponentPad*%
%ADD12R,1.500000X1.500000*%
%TD*%
%TA.AperFunction,ComponentPad*%
%ADD13C,1.500000*%
%TD*%
%TA.AperFunction,ComponentPad*%
%ADD14C,2.000000*%
%TD*%
%TA.AperFunction,ComponentPad*%
%ADD15R,1.905000X2.000000*%
%TD*%
%TA.AperFunction,ComponentPad*%
%ADD16O,1.905000X2.000000*%
%TD*%
%TA.AperFunction,ComponentPad*%
%ADD17R,1.600000X1.600000*%
%TD*%
%TA.AperFunction,ComponentPad*%
%ADD18R,4.400000X1.800000*%
%TD*%
%TA.AperFunction,ComponentPad*%
%ADD19O,4.000000X1.800000*%
%TD*%
%TA.AperFunction,ComponentPad*%
%ADD20O,1.800000X4.000000*%
%TD*%
%TA.AperFunction,ViaPad*%
%ADD21C,0.800000*%
%TD*%
%TA.AperFunction,Conductor*%
%ADD22C,0.250000*%
%TD*%
G04 APERTURE END LIST*
D10*
%TO.P,R1,1*%
%TO.N,Net-(U1-~{IRQ})*%
X33020000Y-102870000D03*
D11*
%TO.P,R1,2*%
%TO.N,+5V*%
X33020000Y-92710000D03*
%TD*%
D10*
%TO.P,C3,1*%
%TO.N,+5V*%
X90210000Y-35560000D03*
%TO.P,C3,2*%
%TO.N,GND*%
X92710000Y-35560000D03*
%TD*%
%TO.P,R10,1*%
%TO.N,Net-(U8-1A1)*%
X99060000Y-102870000D03*
D11*
%TO.P,R10,2*%
%TO.N,GND*%
X109220000Y-102870000D03*
%TD*%
D12*
%TO.P,U4,1,~{RST}*%
%TO.N,~{RES}*%
X122480000Y-71570000D03*
D13*
%TO.P,U4,2,VCC*%
%TO.N,+5V*%
X119940000Y-71570000D03*
%TO.P,U4,3,GND*%
%TO.N,GND*%
X117400000Y-71570000D03*
%TD*%
D14*
%TO.P,SW7,1,1*%
%TO.N,+5V*%
X116690000Y-114300000D03*
X123190000Y-114300000D03*
%TO.P,SW7,2,2*%
%TO.N,Net-(U8-1A0)*%
X116690000Y-118800000D03*
X123190000Y-118800000D03*
%TD*%
D15*
%TO.P,U7,1,IN*%
%TO.N,Net-(U7-IN)*%
X90170000Y-26670000D03*
D16*
%TO.P,U7,2,GND*%
%TO.N,GND*%
X92710000Y-26670000D03*
%TO.P,U7,3,OUT*%
%TO.N,+5V*%
X95250000Y-26670000D03*
%TD*%
D14*
%TO.P,SW5,1,1*%
%TO.N,+5V*%
X49380000Y-111070000D03*
X55880000Y-111070000D03*
%TO.P,SW5,2,2*%
%TO.N,Net-(U8-1A2)*%
X49380000Y-115570000D03*
X55880000Y-115570000D03*
%TD*%
%TO.P,SW1,1,1*%
%TO.N,~{RES}*%
X100815000Y-113610000D03*
X107315000Y-113610000D03*
%TO.P,SW1,2,2*%
%TO.N,GND*%
X100815000Y-118110000D03*
X107315000Y-118110000D03*
%TD*%
D10*
%TO.P,C1,1*%
%TO.N,+5V*%
X29210000Y-63500000D03*
%TO.P,C1,2*%
%TO.N,GND*%
X29210000Y-66000000D03*
%TD*%
D14*
%TO.P,SW2,1,1*%
%TO.N,+5V*%
X39220000Y-106570000D03*
X45720000Y-106570000D03*
%TO.P,SW2,2,2*%
%TO.N,Net-(U8-2A1)*%
X39220000Y-111070000D03*
X45720000Y-111070000D03*
%TD*%
D10*
%TO.P,R3,1*%
%TO.N,Net-(U1-RDY)*%
X40640000Y-102870000D03*
D11*
%TO.P,R3,2*%
%TO.N,+5V*%
X40640000Y-92710000D03*
%TD*%
D10*
%TO.P,C4,1*%
%TO.N,+5V*%
X72390000Y-83820000D03*
%TO.P,C4,2*%
%TO.N,GND*%
X69890000Y-83820000D03*
%TD*%
%TO.P,C2,1*%
%TO.N,+5V*%
X64770000Y-35560000D03*
%TO.P,C2,2*%
%TO.N,GND*%
X67270000Y-35560000D03*
%TD*%
D17*
%TO.P,U6,1,A0*%
%TO.N,A14*%
X82550000Y-88900000D03*
D11*
%TO.P,U6,2,A1*%
%TO.N,A15*%
X82550000Y-91440000D03*
%TO.P,U6,3,A2*%
%TO.N,GND*%
X82550000Y-93980000D03*
%TO.P,U6,4,E1*%
X82550000Y-96520000D03*
%TO.P,U6,5,E2*%
X82550000Y-99060000D03*
%TO.P,U6,6,E3*%
%TO.N,+5V*%
X82550000Y-101600000D03*
%TO.P,U6,7,O7*%
%TO.N,unconnected-(U6-O7-Pad7)*%
X82550000Y-104140000D03*
%TO.P,U6,8,GND*%
%TO.N,GND*%
X82550000Y-106680000D03*
%TO.P,U6,9,O6*%
%TO.N,unconnected-(U6-O6-Pad9)*%
X90170000Y-106680000D03*
%TO.P,U6,10,O5*%
%TO.N,unconnected-(U6-O5-Pad10)*%
X90170000Y-104140000D03*
%TO.P,U6,11,O4*%
%TO.N,unconnected-(U6-O4-Pad11)*%
X90170000Y-101600000D03*
%TO.P,U6,12,O3*%
%TO.N,~{ROM}*%
X90170000Y-99060000D03*
%TO.P,U6,13,O2*%
%TO.N,Net-(U6-O2)*%
X90170000Y-96520000D03*
%TO.P,U6,14,O1*%
%TO.N,~{INPUT}*%
X90170000Y-93980000D03*
%TO.P,U6,15,O0*%
%TO.N,~{RAM}*%
X90170000Y-91440000D03*
%TO.P,U6,16,VCC*%
%TO.N,+5V*%
X90170000Y-88900000D03*
%TD*%
D14*
%TO.P,SW6,1,1*%
%TO.N,+5V*%
X116690000Y-100330000D03*
X123190000Y-100330000D03*
%TO.P,SW6,2,2*%
%TO.N,Net-(U8-1A1)*%
X116690000Y-104830000D03*
X123190000Y-104830000D03*
%TD*%
D10*
%TO.P,R11,1*%
%TO.N,Net-(U8-1A0)*%
X99060000Y-106680000D03*
D11*
%TO.P,R11,2*%
%TO.N,GND*%
X109220000Y-106680000D03*
%TD*%
D17*
%TO.P,U1,1,~{VP}*%
%TO.N,unconnected-(U1-~{VP}-Pad1)*%
X33020000Y-40640000D03*
D11*
%TO.P,U1,2,RDY*%
%TO.N,Net-(U1-RDY)*%
X33020000Y-43180000D03*
%TO.P,U1,3,\u03D51*%
%TO.N,unconnected-(U1-\u03D51-Pad3)*%
X33020000Y-45720000D03*
%TO.P,U1,4,~{IRQ}*%
%TO.N,Net-(U1-~{IRQ})*%
X33020000Y-48260000D03*
%TO.P,U1,5,~{ML}*%
%TO.N,unconnected-(U1-~{ML}-Pad5)*%
X33020000Y-50800000D03*
%TO.P,U1,6,~{NMI}*%
%TO.N,Net-(U1-~{NMI})*%
X33020000Y-53340000D03*
%TO.P,U1,7,SYNC*%
%TO.N,unconnected-(U1-SYNC-Pad7)*%
X33020000Y-55880000D03*
%TO.P,U1,8,VDD*%
%TO.N,+5V*%
X33020000Y-58420000D03*
%TO.P,U1,9,A0*%
%TO.N,A0*%
X33020000Y-60960000D03*
%TO.P,U1,10,A1*%
%TO.N,A1*%
X33020000Y-63500000D03*
%TO.P,U1,11,A2*%
%TO.N,A2*%
X33020000Y-66040000D03*
%TO.P,U1,12,A3*%
%TO.N,A3*%
X33020000Y-68580000D03*
%TO.P,U1,13,A4*%
%TO.N,A4*%
X33020000Y-71120000D03*
%TO.P,U1,14,A5*%
%TO.N,A5*%
X33020000Y-73660000D03*
%TO.P,U1,15,A6*%
%TO.N,A6*%
X33020000Y-76200000D03*
%TO.P,U1,16,A7*%
%TO.N,A7*%
X33020000Y-78740000D03*
%TO.P,U1,17,A8*%
%TO.N,A8*%
X33020000Y-81280000D03*
%TO.P,U1,18,A9*%
%TO.N,A9*%
X33020000Y-83820000D03*
%TO.P,U1,19,A10*%
%TO.N,A10*%
X33020000Y-86360000D03*
%TO.P,U1,20,A11*%
%TO.N,A11*%
X33020000Y-88900000D03*
%TO.P,U1,21,VSS*%
%TO.N,GND*%
X48260000Y-88900000D03*
%TO.P,U1,22,A12*%
%TO.N,A12*%
X48260000Y-86360000D03*
%TO.P,U1,23,A13*%
%TO.N,A13*%
X48260000Y-83820000D03*
%TO.P,U1,24,A14*%
%TO.N,A14*%
X48260000Y-81280000D03*
%TO.P,U1,25,A15*%
%TO.N,A15*%
X48260000Y-78740000D03*
%TO.P,U1,26,D7*%
%TO.N,D7*%
X48260000Y-76200000D03*
%TO.P,U1,27,D6*%
%TO.N,D6*%
X48260000Y-73660000D03*
%TO.P,U1,28,D5*%
%TO.N,D5*%
X48260000Y-71120000D03*
%TO.P,U1,29,D4*%
%TO.N,D4*%
X48260000Y-68580000D03*
%TO.P,U1,30,D3*%
%TO.N,D3*%
X48260000Y-66040000D03*
%TO.P,U1,31,D2*%
%TO.N,D2*%
X48260000Y-63500000D03*
%TO.P,U1,32,D1*%
%TO.N,D1*%
X48260000Y-60960000D03*
%TO.P,U1,33,D0*%
%TO.N,D0*%
X48260000Y-58420000D03*
%TO.P,U1,34,R/~{W}*%
%TO.N,R{slash}~{W}*%
X48260000Y-55880000D03*
%TO.P,U1,35,nc*%
%TO.N,unconnected-(U1-nc-Pad35)*%
X48260000Y-53340000D03*
%TO.P,U1,36,BE*%
%TO.N,Net-(U1-BE)*%
X48260000Y-50800000D03*
%TO.P,U1,37,\u03D50*%
%TO.N,CLOCK*%
X48260000Y-48260000D03*
%TO.P,U1,38,~{SO}*%
%TO.N,Net-(U1-~{SO})*%
X48260000Y-45720000D03*
%TO.P,U1,39,\u03D52*%
%TO.N,unconnected-(U1-\u03D52-Pad39)*%
X48260000Y-43180000D03*
%TO.P,U1,40,~{RES}*%
%TO.N,~{RES}*%
X48260000Y-40640000D03*
%TD*%
D14*
%TO.P,SW4,1,1*%
%TO.N,+5V*%
X29060000Y-111070000D03*
X35560000Y-111070000D03*
%TO.P,SW4,2,2*%
%TO.N,Net-(U8-1A3)*%
X29060000Y-115570000D03*
X35560000Y-115570000D03*
%TD*%
D17*
%TO.P,U3,1,A15*%
%TO.N,A15*%
X99060000Y-73660000D03*
D11*
%TO.P,U3,2,A12*%
%TO.N,A12*%
X99060000Y-71120000D03*
%TO.P,U3,3,A7*%
%TO.N,A7*%
X99060000Y-68580000D03*
%TO.P,U3,4,A6*%
%TO.N,A6*%
X99060000Y-66040000D03*
%TO.P,U3,5,A5*%
%TO.N,A5*%
X99060000Y-63500000D03*
%TO.P,U3,6,A4*%
%TO.N,A4*%
X99060000Y-60960000D03*
%TO.P,U3,7,A3*%
%TO.N,A3*%
X99060000Y-58420000D03*
%TO.P,U3,8,A2*%
%TO.N,A2*%
X99060000Y-55880000D03*
%TO.P,U3,9,A1*%
%TO.N,A1*%
X99060000Y-53340000D03*
%TO.P,U3,10,A0*%
%TO.N,A0*%
X99060000Y-50800000D03*
%TO.P,U3,11,D0*%
%TO.N,D0*%
X99060000Y-48260000D03*
%TO.P,U3,12,D1*%
%TO.N,D1*%
X99060000Y-45720000D03*
%TO.P,U3,13,D2*%
%TO.N,D2*%
X99060000Y-43180000D03*
%TO.P,U3,14,GND*%
%TO.N,GND*%
X99060000Y-40640000D03*
%TO.P,U3,15,D3*%
%TO.N,D3*%
X83820000Y-40640000D03*
%TO.P,U3,16,D4*%
%TO.N,D4*%
X83820000Y-43180000D03*
%TO.P,U3,17,D5*%
%TO.N,D5*%
X83820000Y-45720000D03*
%TO.P,U3,18,D6*%
%TO.N,D6*%
X83820000Y-48260000D03*
%TO.P,U3,19,D7*%
%TO.N,D7*%
X83820000Y-50800000D03*
%TO.P,U3,20,~{CE}*%
%TO.N,~{ROM}*%
X83820000Y-53340000D03*
%TO.P,U3,21,A10*%
%TO.N,A10*%
X83820000Y-55880000D03*
%TO.P,U3,22,~{OE}*%
%TO.N,~{RD}*%
X83820000Y-58420000D03*
%TO.P,U3,23,A11*%
%TO.N,A11*%
X83820000Y-60960000D03*
%TO.P,U3,24,A9*%
%TO.N,A9*%
X83820000Y-63500000D03*
%TO.P,U3,25,A8*%
%TO.N,A8*%
X83820000Y-66040000D03*
%TO.P,U3,26,A13*%
%TO.N,A13*%
X83820000Y-68580000D03*
%TO.P,U3,27,A14*%
%TO.N,A14*%
X83820000Y-71120000D03*
%TO.P,U3,28,VCC*%
%TO.N,+5V*%
X83820000Y-73660000D03*
%TD*%
D17*
%TO.P,U8,1,1OE*%
%TO.N,~{INPUT}*%
X67310000Y-119380000D03*
D11*
%TO.P,U8,2,1A0*%
%TO.N,Net-(U8-1A0)*%
X69850000Y-119380000D03*
%TO.P,U8,3,2Y0*%
%TO.N,D4*%
X72390000Y-119380000D03*
%TO.P,U8,4,1A1*%
%TO.N,Net-(U8-1A1)*%
X74930000Y-119380000D03*
%TO.P,U8,5,2Y1*%
%TO.N,D5*%
X77470000Y-119380000D03*
%TO.P,U8,6,1A2*%
%TO.N,Net-(U8-1A2)*%
X80010000Y-119380000D03*
%TO.P,U8,7,2Y2*%
%TO.N,D6*%
X82550000Y-119380000D03*
%TO.P,U8,8,1A3*%
%TO.N,Net-(U8-1A3)*%
X85090000Y-119380000D03*
%TO.P,U8,9,2Y3*%
%TO.N,D7*%
X87630000Y-119380000D03*
%TO.P,U8,10,GND*%
%TO.N,GND*%
X90170000Y-119380000D03*
%TO.P,U8,11,2A3*%
X90170000Y-111760000D03*
%TO.P,U8,12,1Y3*%
%TO.N,D3*%
X87630000Y-111760000D03*
%TO.P,U8,13,2A2*%
%TO.N,GND*%
X85090000Y-111760000D03*
%TO.P,U8,14,1Y2*%
%TO.N,D2*%
X82550000Y-111760000D03*
%TO.P,U8,15,2A1*%
%TO.N,Net-(U8-2A1)*%
X80010000Y-111760000D03*
%TO.P,U8,16,1Y1*%
%TO.N,D1*%
X77470000Y-111760000D03*
%TO.P,U8,17,2A0*%
%TO.N,Net-(U8-2A0)*%
X74930000Y-111760000D03*
%TO.P,U8,18,1Y0*%
%TO.N,D0*%
X72390000Y-111760000D03*
%TO.P,U8,19,2OE*%
%TO.N,~{INPUT}*%
X69850000Y-111760000D03*
%TO.P,U8,20,VCC*%
%TO.N,+5V*%
X67310000Y-111760000D03*
%TD*%
D10*
%TO.P,R7,1*%
%TO.N,Net-(U8-2A0)*%
X99060000Y-91440000D03*
D11*
%TO.P,R7,2*%
%TO.N,GND*%
X109220000Y-91440000D03*
%TD*%
D10*
%TO.P,R5,1*%
%TO.N,Net-(U1-~{SO})*%
X48260000Y-102870000D03*
D11*
%TO.P,R5,2*%
%TO.N,+5V*%
X48260000Y-92710000D03*
%TD*%
D10*
%TO.P,R8,1*%
%TO.N,Net-(U8-1A3)*%
X99060000Y-95250000D03*
D11*
%TO.P,R8,2*%
%TO.N,GND*%
X109220000Y-95250000D03*
%TD*%
D10*
%TO.P,R4,1*%
%TO.N,Net-(U1-BE)*%
X44450000Y-102870000D03*
D11*
%TO.P,R4,2*%
%TO.N,+5V*%
X44450000Y-92710000D03*
%TD*%
D10*
%TO.P,C5,1*%
%TO.N,+5V*%
X87670000Y-83820000D03*
%TO.P,C5,2*%
%TO.N,GND*%
X85170000Y-83820000D03*
%TD*%
D17*
%TO.P,U2,1,A18*%
%TO.N,GND*%
X73660000Y-78740000D03*
D11*
%TO.P,U2,2,A16*%
X73660000Y-76200000D03*
%TO.P,U2,3,A14*%
%TO.N,A14*%
X73660000Y-73660000D03*
%TO.P,U2,4,A12*%
%TO.N,A12*%
X73660000Y-71120000D03*
%TO.P,U2,5,A7*%
%TO.N,A7*%
X73660000Y-68580000D03*
%TO.P,U2,6,A6*%
%TO.N,A6*%
X73660000Y-66040000D03*
%TO.P,U2,7,A5*%
%TO.N,A5*%
X73660000Y-63500000D03*
%TO.P,U2,8,A4*%
%TO.N,A4*%
X73660000Y-60960000D03*
%TO.P,U2,9,A3*%
%TO.N,A3*%
X73660000Y-58420000D03*
%TO.P,U2,10,A2*%
%TO.N,A2*%
X73660000Y-55880000D03*
%TO.P,U2,11,A1*%
%TO.N,A1*%
X73660000Y-53340000D03*
%TO.P,U2,12,A0*%
%TO.N,A0*%
X73660000Y-50800000D03*
%TO.P,U2,13,DQ0*%
%TO.N,D0*%
X73660000Y-48260000D03*
%TO.P,U2,14,DQ1*%
%TO.N,D1*%
X73660000Y-45720000D03*
%TO.P,U2,15,DQ2*%
%TO.N,D2*%
X73660000Y-43180000D03*
%TO.P,U2,16,VSS*%
%TO.N,GND*%
X73660000Y-40640000D03*
%TO.P,U2,17,DQ3*%
%TO.N,D3*%
X58420000Y-40640000D03*
%TO.P,U2,18,DQ4*%
%TO.N,D4*%
X58420000Y-43180000D03*
%TO.P,U2,19,DQ5*%
%TO.N,D5*%
X58420000Y-45720000D03*
%TO.P,U2,20,DQ6*%
%TO.N,D6*%
X58420000Y-48260000D03*
%TO.P,U2,21,DQ7*%
%TO.N,D7*%
X58420000Y-50800000D03*
%TO.P,U2,22,CE#*%
%TO.N,~{RAM}*%
X58420000Y-53340000D03*
%TO.P,U2,23,A10*%
%TO.N,A10*%
X58420000Y-55880000D03*
%TO.P,U2,24,OE#*%
%TO.N,~{RD}*%
X58420000Y-58420000D03*
%TO.P,U2,25,A11*%
%TO.N,A11*%
X58420000Y-60960000D03*
%TO.P,U2,26,A9*%
%TO.N,A9*%
X58420000Y-63500000D03*
%TO.P,U2,27,A8*%
%TO.N,A8*%
X58420000Y-66040000D03*
%TO.P,U2,28,A13*%
%TO.N,A13*%
X58420000Y-68580000D03*
%TO.P,U2,29,WE#*%
%TO.N,~{WR}*%
X58420000Y-71120000D03*
%TO.P,U2,30,A17*%
%TO.N,GND*%
X58420000Y-73660000D03*
%TO.P,U2,31,A15*%
%TO.N,A15*%
X58420000Y-76200000D03*
%TO.P,U2,32,VCC*%
%TO.N,+5V*%
X58420000Y-78740000D03*
%TD*%
D10*
%TO.P,R9,1*%
%TO.N,Net-(U8-1A2)*%
X99060000Y-99060000D03*
D11*
%TO.P,R9,2*%
%TO.N,GND*%
X109220000Y-99060000D03*
%TD*%
D17*
%TO.P,U5,1*%
%TO.N,R{slash}~{W}*%
X67310000Y-88900000D03*
D11*
%TO.P,U5,2*%
X67310000Y-91440000D03*
%TO.P,U5,3*%
%TO.N,Net-(U5-Pad3)*%
X67310000Y-93980000D03*
%TO.P,U5,4*%
X67310000Y-96520000D03*
%TO.P,U5,5*%
%TO.N,CLOCK*%
X67310000Y-99060000D03*
%TO.P,U5,6*%
%TO.N,~{WR}*%
X67310000Y-101600000D03*
%TO.P,U5,7,GND*%
%TO.N,GND*%
X67310000Y-104140000D03*
%TO.P,U5,8*%
%TO.N,~{RD}*%
X74930000Y-104140000D03*
%TO.P,U5,9*%
%TO.N,CLOCK*%
X74930000Y-101600000D03*
%TO.P,U5,10*%
%TO.N,R{slash}~{W}*%
X74930000Y-99060000D03*
%TO.P,U5,11*%
%TO.N,LCD*%
X74930000Y-96520000D03*
%TO.P,U5,12*%
%TO.N,Net-(U6-O2)*%
X74930000Y-93980000D03*
%TO.P,U5,13*%
X74930000Y-91440000D03*
%TO.P,U5,14,VCC*%
%TO.N,+5V*%
X74930000Y-88900000D03*
%TD*%
D17*
%TO.P,C6,1*%
%TO.N,+5V*%
X121920000Y-48260000D03*
D10*
%TO.P,C6,2*%
%TO.N,GND*%
X119420000Y-48260000D03*
%TD*%
%TO.P,R6,1*%
%TO.N,Net-(U8-2A1)*%
X99060000Y-87630000D03*
D11*
%TO.P,R6,2*%
%TO.N,GND*%
X109220000Y-87630000D03*
%TD*%
D17*
%TO.P,X1,1,EN*%
%TO.N,unconnected-(X1-EN-Pad1)*%
X105410000Y-49530000D03*
D10*
%TO.P,X1,7,GND*%
%TO.N,GND*%
X105410000Y-64770000D03*
%TO.P,X1,8,OUT*%
%TO.N,CLOCK*%
X113030000Y-64770000D03*
%TO.P,X1,14,Vcc*%
%TO.N,+5V*%
X113030000Y-49530000D03*
%TD*%
D14*
%TO.P,SW3,1,1*%
%TO.N,+5V*%
X39220000Y-116150000D03*
X45720000Y-116150000D03*
%TO.P,SW3,2,2*%
%TO.N,Net-(U8-2A0)*%
X39220000Y-120650000D03*
X45720000Y-120650000D03*
%TD*%
D10*
%TO.P,R2,1*%
%TO.N,Net-(U1-~{NMI})*%
X36830000Y-102870000D03*
D11*
%TO.P,R2,2*%
%TO.N,+5V*%
X36830000Y-92710000D03*
%TD*%
D18*
%TO.P,J1,1*%
%TO.N,Net-(U7-IN)*%
X120650000Y-36830000D03*
D19*
%TO.P,J1,2*%
%TO.N,GND*%
X120650000Y-31030000D03*
D20*
%TO.P,J1,3*%
%TO.N,N/C*%
X115850000Y-33830000D03*
%TD*%
D14*
%TO.P,LCD1,*%
%TO.N,*%
X38100000Y-31750000D03*
X68580000Y-31750000D03*
X71120000Y-31750000D03*
%TO.P,LCD1,1,GND*%
%TO.N,GND*%
X33020000Y-31750000D03*
%TO.P,LCD1,2,Vdd*%
%TO.N,+5V*%
X35560000Y-31750000D03*
%TO.P,LCD1,4,RS*%
%TO.N,A0*%
X40640000Y-31750000D03*
%TO.P,LCD1,5,R~{W}*%
%TO.N,R{slash}~{W}*%
X43180000Y-31750000D03*
%TO.P,LCD1,6,E*%
%TO.N,LCD*%
X45720000Y-31750000D03*
%TO.P,LCD1,7,D_{0}*%
%TO.N,D0*%
X48260000Y-31750000D03*
%TO.P,LCD1,8,D_{1}*%
%TO.N,D1*%
X50800000Y-31750000D03*
%TO.P,LCD1,9,D_{2}*%
%TO.N,D2*%
X53340000Y-31750000D03*
%TO.P,LCD1,10,D_{3}*%
%TO.N,D3*%
X55880000Y-31750000D03*
%TO.P,LCD1,11,D_{4}*%
%TO.N,D4*%
X58420000Y-31750000D03*
%TO.P,LCD1,12,D_{5}*%
%TO.N,D5*%
X60960000Y-31750000D03*
%TO.P,LCD1,13,D_{6}*%
%TO.N,D6*%
X63500000Y-31750000D03*
%TO.P,LCD1,14,D_{7}*%
%TO.N,D7*%
X66040000Y-31750000D03*
%TD*%
D21*
%TO.N,~{INPUT}*%
X70024600Y-108528200D03*
%TO.N,~{RAM}*%
X75066900Y-82080500D03*
%TO.N,CLOCK*%
X45734700Y-71468900D03*
X60237600Y-69943100D03*
X97026100Y-73369500D03*
X65388800Y-75915700D03*
%TO.N,A15*%
X81308000Y-81223800D03*
%TO.N,A12*%
X67793000Y-79817300D03*
%TO.N,A10*%
X67477600Y-77565500D03*
%TO.N,A9*%
X46933000Y-77275000D03*
%TO.N,A8*%
X70740700Y-65735800D03*
X75488600Y-66678100D03*
%TO.N,A3*%
X76492400Y-83785100D03*
%TO.N,A2*%
X75772000Y-54700800D03*
%TO.N,D6*%
X79042300Y-49059900D03*
%TO.N,R{slash}~{W}*%
X54420200Y-59786400D03*
%TD*%
D22*
%TO.N,~{INPUT}*%
X83726900Y-100423100D02*
X90170000Y-93980000D01*
X83726900Y-107200100D02*
X83726900Y-100423100D01*
X82398800Y-108528200D02*
X83726900Y-107200100D01*
X70024600Y-108528200D02*
X82398800Y-108528200D01*
%TO.N,Net-(U6-O2)*%
X90170000Y-96520000D02*
X90170000Y-95343100D01*
X74930000Y-91440000D02*
X76106900Y-91440000D01*
X76106900Y-90780000D02*
X76106900Y-91440000D01*
X84243800Y-82643100D02*
X76106900Y-90780000D01*
X85720400Y-82643100D02*
X84243800Y-82643100D01*
X86360000Y-83282700D02*
X85720400Y-82643100D01*
X86360000Y-89341500D02*
X86360000Y-83282700D01*
X89728500Y-92710000D02*
X86360000Y-89341500D01*
X90618900Y-92710000D02*
X89728500Y-92710000D01*
X91362900Y-93454000D02*
X90618900Y-92710000D01*
X91362900Y-94516000D02*
X91362900Y-93454000D01*
X90535800Y-95343100D02*
X91362900Y-94516000D01*
X90170000Y-95343100D02*
X90535800Y-95343100D01*
%TO.N,~{RAM}*%
X90170000Y-91440000D02*
X90170000Y-90263100D01*
X82016100Y-82080500D02*
X75066900Y-82080500D01*
X82517900Y-81578700D02*
X82016100Y-82080500D01*
X87101500Y-81578700D02*
X82517900Y-81578700D01*
X91355800Y-85833000D02*
X87101500Y-81578700D01*
X91355800Y-89445100D02*
X91355800Y-85833000D01*
X90537800Y-90263100D02*
X91355800Y-89445100D01*
X90170000Y-90263100D02*
X90537800Y-90263100D01*
%TO.N,Net-(U8-1A0)*%
X89511500Y-116228500D02*
X99060000Y-106680000D01*
X86519500Y-116228500D02*
X89511500Y-116228500D01*
X83820000Y-118928000D02*
X86519500Y-116228500D01*
X83820000Y-119858100D02*
X83820000Y-118928000D01*
X82528700Y-121149400D02*
X83820000Y-119858100D01*
X72428500Y-121149400D02*
X82528700Y-121149400D01*
X71026900Y-119747800D02*
X72428500Y-121149400D01*
X71026900Y-119380000D02*
X71026900Y-119747800D01*
X69850000Y-119380000D02*
X71026900Y-119380000D01*
X123190000Y-118800000D02*
X116690000Y-118800000D01*
X101716500Y-109336500D02*
X99060000Y-106680000D01*
X107226500Y-109336500D02*
X101716500Y-109336500D01*
X116690000Y-118800000D02*
X107226500Y-109336500D01*
%TO.N,Net-(U8-1A1)*%
X74930000Y-119380000D02*
X76106900Y-119380000D01*
X99060000Y-102870000D02*
X99060000Y-104545400D01*
X123190000Y-104830000D02*
X116690000Y-104830000D01*
X102409500Y-107894900D02*
X99060000Y-104545400D01*
X113625100Y-107894900D02*
X102409500Y-107894900D01*
X116690000Y-104830000D02*
X113625100Y-107894900D01*
X76106900Y-119747800D02*
X76106900Y-119380000D01*
X76943600Y-120584500D02*
X76106900Y-119747800D01*
X80553600Y-120584500D02*
X76943600Y-120584500D01*
X81280000Y-119858100D02*
X80553600Y-120584500D01*
X81280000Y-118928000D02*
X81280000Y-119858100D01*
X85696800Y-114511200D02*
X81280000Y-118928000D01*
X89094200Y-114511200D02*
X85696800Y-114511200D01*
X99060000Y-104545400D02*
X89094200Y-114511200D01*
%TO.N,Net-(U8-1A2)*%
X80010000Y-119380000D02*
X78833100Y-119380000D01*
X78833100Y-117443400D02*
X78716600Y-117326900D01*
X78833100Y-119380000D02*
X78833100Y-117443400D01*
X76959700Y-115570000D02*
X78716600Y-117326900D01*
X55880000Y-115570000D02*
X76959700Y-115570000D01*
X92738200Y-105381800D02*
X99060000Y-99060000D01*
X89747200Y-105381800D02*
X92738200Y-105381800D01*
X83820000Y-111309000D02*
X89747200Y-105381800D01*
X83820000Y-112223500D02*
X83820000Y-111309000D01*
X78716600Y-117326900D02*
X83820000Y-112223500D01*
%TO.N,Net-(U8-1A3)*%
X35560000Y-115570000D02*
X29060000Y-115570000D01*
%TO.N,Net-(U8-2A0)*%
X74930000Y-111760000D02*
X76106900Y-111760000D01*
X74930000Y-111760000D02*
X73753100Y-111760000D01*
X39220000Y-120650000D02*
X45720000Y-120650000D01*
X73753100Y-112125800D02*
X73753100Y-111760000D01*
X72147400Y-113731500D02*
X73753100Y-112125800D01*
X55163700Y-113731500D02*
X72147400Y-113731500D01*
X48245200Y-120650000D02*
X55163700Y-113731500D01*
X45720000Y-120650000D02*
X48245200Y-120650000D01*
X99060000Y-91926100D02*
X99060000Y-91440000D01*
X90656100Y-100330000D02*
X99060000Y-91926100D01*
X89769800Y-100330000D02*
X90656100Y-100330000D01*
X88608200Y-101491600D02*
X89769800Y-100330000D01*
X88608200Y-104028500D02*
X88608200Y-101491600D01*
X81373100Y-111263600D02*
X88608200Y-104028500D01*
X81373100Y-112079300D02*
X81373100Y-111263600D01*
X80467400Y-112985000D02*
X81373100Y-112079300D01*
X76964100Y-112985000D02*
X80467400Y-112985000D01*
X76106900Y-112127800D02*
X76964100Y-112985000D01*
X76106900Y-111760000D02*
X76106900Y-112127800D01*
%TO.N,Net-(U8-2A1)*%
X99060000Y-89372200D02*
X99060000Y-87630000D01*
X90642200Y-97790000D02*
X99060000Y-89372200D01*
X89749900Y-97790000D02*
X90642200Y-97790000D01*
X88077800Y-99462100D02*
X89749900Y-97790000D01*
X88077800Y-103618600D02*
X88077800Y-99462100D01*
X81113300Y-110583100D02*
X88077800Y-103618600D01*
X80010000Y-110583100D02*
X81113300Y-110583100D01*
X80010000Y-111760000D02*
X80010000Y-110583100D01*
X45720000Y-111070000D02*
X39220000Y-111070000D01*
X79116100Y-109689200D02*
X80010000Y-110583100D01*
X47100800Y-109689200D02*
X79116100Y-109689200D01*
X45720000Y-111070000D02*
X47100800Y-109689200D01*
%TO.N,~{RD}*%
X58420000Y-58420000D02*
X59596900Y-58420000D01*
X76246100Y-58420000D02*
X83820000Y-58420000D01*
X75055500Y-59610600D02*
X76246100Y-58420000D01*
X60789600Y-59610600D02*
X75055500Y-59610600D01*
X59599000Y-58420000D02*
X60789600Y-59610600D01*
X59596900Y-58420000D02*
X59599000Y-58420000D01*
%TO.N,CLOCK*%
X71213100Y-99060000D02*
X67310000Y-99060000D01*
X73753100Y-101600000D02*
X71213100Y-99060000D01*
X74930000Y-101600000D02*
X73753100Y-101600000D01*
X54810000Y-69943100D02*
X60237600Y-69943100D01*
X52456200Y-72296900D02*
X54810000Y-69943100D01*
X46562700Y-72296900D02*
X52456200Y-72296900D01*
X45734700Y-71468900D02*
X46562700Y-72296900D01*
X69831500Y-75915700D02*
X65388800Y-75915700D01*
X70750900Y-74996300D02*
X69831500Y-75915700D01*
X95399300Y-74996300D02*
X70750900Y-74996300D01*
X97026100Y-73369500D02*
X95399300Y-74996300D01*
%TO.N,A15*%
X99060000Y-73660000D02*
X97883100Y-73660000D01*
X81455000Y-81076800D02*
X81308000Y-81223800D01*
X90466300Y-81076800D02*
X81455000Y-81076800D01*
X97883100Y-73660000D02*
X90466300Y-81076800D01*
X74010800Y-81223800D02*
X81308000Y-81223800D01*
X69570400Y-76783400D02*
X74010800Y-81223800D01*
X60180300Y-76783400D02*
X69570400Y-76783400D01*
X59596900Y-76200000D02*
X60180300Y-76783400D01*
X58672100Y-76200000D02*
X59596900Y-76200000D01*
X58672100Y-76200000D02*
X58420000Y-76200000D01*
X54703100Y-78740000D02*
X48260000Y-78740000D01*
X57243100Y-76200000D02*
X54703100Y-78740000D01*
X58420000Y-76200000D02*
X57243100Y-76200000D01*
%TO.N,A14*%
X48260000Y-81280000D02*
X48260000Y-80103100D01*
X73660000Y-73660000D02*
X72483100Y-73660000D01*
X72483100Y-70592100D02*
X72483100Y-73660000D01*
X73137500Y-69937700D02*
X72483100Y-70592100D01*
X75446300Y-69937700D02*
X73137500Y-69937700D01*
X76628600Y-71120000D02*
X75446300Y-69937700D01*
X83820000Y-71120000D02*
X76628600Y-71120000D01*
X47908300Y-80103100D02*
X48260000Y-80103100D01*
X47063800Y-79258600D02*
X47908300Y-80103100D01*
X47063800Y-78267200D02*
X47063800Y-79258600D01*
X47862500Y-77468500D02*
X47063800Y-78267200D01*
X52409700Y-77468500D02*
X47862500Y-77468500D01*
X54881700Y-74996500D02*
X52409700Y-77468500D01*
X65800200Y-74996500D02*
X54881700Y-74996500D01*
X67136700Y-73660000D02*
X65800200Y-74996500D01*
X72483100Y-73660000D02*
X67136700Y-73660000D01*
%TO.N,A13*%
X58420000Y-68580000D02*
X59596900Y-68580000D01*
X83820000Y-68580000D02*
X82643100Y-68580000D01*
X76291900Y-68580000D02*
X82643100Y-68580000D01*
X75101200Y-67389300D02*
X76291900Y-68580000D01*
X60787600Y-67389300D02*
X75101200Y-67389300D01*
X59596900Y-68580000D02*
X60787600Y-67389300D01*
%TO.N,A12*%
X73660000Y-71120000D02*
X74836900Y-71120000D01*
X99060000Y-71120000D02*
X97883100Y-71120000D01*
X61250300Y-86360000D02*
X48260000Y-86360000D01*
X67793000Y-79817300D02*
X61250300Y-86360000D01*
X76027500Y-72310600D02*
X74836900Y-71120000D01*
X95423100Y-72310600D02*
X76027500Y-72310600D01*
X96613700Y-71120000D02*
X95423100Y-72310600D01*
X97883100Y-71120000D02*
X96613700Y-71120000D01*
%TO.N,A11*%
X59008500Y-60960000D02*
X59596900Y-60960000D01*
X59599100Y-60960000D02*
X59596900Y-60960000D01*
X60789700Y-62150600D02*
X59599100Y-60960000D01*
X75055500Y-62150600D02*
X60789700Y-62150600D01*
X76246100Y-60960000D02*
X75055500Y-62150600D01*
X83820000Y-60960000D02*
X76246100Y-60960000D01*
X59008500Y-60960000D02*
X58420000Y-60960000D01*
X32654200Y-87723100D02*
X33020000Y-87723100D01*
X31278400Y-86347300D02*
X32654200Y-87723100D01*
X31278400Y-73715500D02*
X31278400Y-86347300D01*
X32603900Y-72390000D02*
X31278400Y-73715500D01*
X35382700Y-72390000D02*
X32603900Y-72390000D01*
X45449600Y-62323100D02*
X35382700Y-72390000D01*
X52207400Y-62323100D02*
X45449600Y-62323100D01*
X52963300Y-61567200D02*
X52207400Y-62323100D01*
X56635900Y-61567200D02*
X52963300Y-61567200D01*
X57243100Y-60960000D02*
X56635900Y-61567200D01*
X58420000Y-60960000D02*
X57243100Y-60960000D01*
X33020000Y-88900000D02*
X33020000Y-87723100D01*
%TO.N,A10*%
X83820000Y-55880000D02*
X82643100Y-55880000D01*
X75748400Y-55880000D02*
X82643100Y-55880000D01*
X74571500Y-54703100D02*
X75748400Y-55880000D01*
X61637500Y-54703100D02*
X74571500Y-54703100D01*
X60460600Y-55880000D02*
X61637500Y-54703100D01*
X58420000Y-55880000D02*
X60460600Y-55880000D01*
X67448300Y-77536200D02*
X67477600Y-77565500D01*
X57941600Y-77536200D02*
X67448300Y-77536200D01*
X52927800Y-82550000D02*
X57941600Y-77536200D01*
X46341600Y-82550000D02*
X52927800Y-82550000D01*
X42531600Y-86360000D02*
X46341600Y-82550000D01*
X33020000Y-86360000D02*
X42531600Y-86360000D01*
%TO.N,A9*%
X40388000Y-83820000D02*
X33020000Y-83820000D01*
X46933000Y-77275000D02*
X40388000Y-83820000D01*
X60787500Y-64690600D02*
X59596900Y-63500000D01*
X74954100Y-64690600D02*
X60787500Y-64690600D01*
X76144700Y-63500000D02*
X74954100Y-64690600D01*
X83820000Y-63500000D02*
X76144700Y-63500000D01*
X58420000Y-63500000D02*
X59596900Y-63500000D01*
%TO.N,A8*%
X33020000Y-81280000D02*
X33020000Y-80103100D01*
X83820000Y-66040000D02*
X82643100Y-66040000D01*
X59901100Y-65735800D02*
X70740700Y-65735800D01*
X59596900Y-66040000D02*
X59901100Y-65735800D01*
X58420000Y-66040000D02*
X59596900Y-66040000D01*
X58420000Y-66040000D02*
X57243100Y-66040000D01*
X82005000Y-66678100D02*
X75488600Y-66678100D01*
X82643100Y-66040000D02*
X82005000Y-66678100D01*
X55973100Y-67310000D02*
X57243100Y-66040000D01*
X45768700Y-67310000D02*
X55973100Y-67310000D01*
X38150200Y-74928500D02*
X45768700Y-67310000D01*
X32530100Y-74928500D02*
X38150200Y-74928500D01*
X31792800Y-75665800D02*
X32530100Y-74928500D01*
X31792800Y-79241700D02*
X31792800Y-75665800D01*
X32654200Y-80103100D02*
X31792800Y-79241700D01*
X33020000Y-80103100D02*
X32654200Y-80103100D01*
%TO.N,A7*%
X99060000Y-68580000D02*
X97883100Y-68580000D01*
X73660000Y-68580000D02*
X74836900Y-68580000D01*
X73660000Y-68580000D02*
X72483100Y-68580000D01*
X68610300Y-72452800D02*
X72483100Y-68580000D01*
X56248800Y-72452800D02*
X68610300Y-72452800D01*
X53678500Y-75023100D02*
X56248800Y-72452800D01*
X45533800Y-75023100D02*
X53678500Y-75023100D01*
X41816900Y-78740000D02*
X45533800Y-75023100D01*
X33020000Y-78740000D02*
X41816900Y-78740000D01*
X74839000Y-68580000D02*
X74836900Y-68580000D01*
X75514000Y-69255000D02*
X74839000Y-68580000D01*
X75516100Y-69255000D02*
X75514000Y-69255000D01*
X76031100Y-69770000D02*
X75516100Y-69255000D01*
X76031100Y-69770600D02*
X76031100Y-69770000D01*
X96692500Y-69770600D02*
X76031100Y-69770600D01*
X97883100Y-68580000D02*
X96692500Y-69770600D01*
%TO.N,A6*%
X99060000Y-66040000D02*
X97883100Y-66040000D01*
X74248500Y-66040000D02*
X74836900Y-66040000D01*
X74248500Y-66040000D02*
X73660000Y-66040000D01*
X39331700Y-76200000D02*
X33020000Y-76200000D01*
X45681700Y-69850000D02*
X39331700Y-76200000D01*
X51265900Y-69850000D02*
X45681700Y-69850000D01*
X53210700Y-67905200D02*
X51265900Y-69850000D01*
X57218900Y-67905200D02*
X53210700Y-67905200D01*
X57907200Y-67216900D02*
X57218900Y-67905200D01*
X59829200Y-67216900D02*
X57907200Y-67216900D01*
X60518300Y-66527800D02*
X59829200Y-67216900D01*
X71995300Y-66527800D02*
X60518300Y-66527800D01*
X72483100Y-66040000D02*
X71995300Y-66527800D01*
X73660000Y-66040000D02*
X72483100Y-66040000D01*
X76027500Y-64849400D02*
X74836900Y-66040000D01*
X96692500Y-64849400D02*
X76027500Y-64849400D01*
X97883100Y-66040000D02*
X96692500Y-64849400D01*
%TO.N,A5*%
X96692500Y-62309400D02*
X97883100Y-63500000D01*
X76027500Y-62309400D02*
X96692500Y-62309400D01*
X74836900Y-63500000D02*
X76027500Y-62309400D01*
X99060000Y-63500000D02*
X97883100Y-63500000D01*
X74248500Y-63500000D02*
X74836900Y-63500000D01*
X74248500Y-63500000D02*
X73660000Y-63500000D01*
X36290200Y-73660000D02*
X33020000Y-73660000D01*
X45180200Y-64770000D02*
X36290200Y-73660000D01*
X53615700Y-64770000D02*
X45180200Y-64770000D01*
X56072000Y-62313700D02*
X53615700Y-64770000D01*
X60243000Y-62313700D02*
X56072000Y-62313700D01*
X61429300Y-63500000D02*
X60243000Y-62313700D01*
X73660000Y-63500000D02*
X61429300Y-63500000D01*
%TO.N,A4*%
X99060000Y-60960000D02*
X97883100Y-60960000D01*
X74248500Y-60960000D02*
X74836900Y-60960000D01*
X74248500Y-60960000D02*
X73660000Y-60960000D01*
X33020000Y-71120000D02*
X34196900Y-71120000D01*
X96692500Y-59769400D02*
X97883100Y-60960000D01*
X76027500Y-59769400D02*
X96692500Y-59769400D01*
X74836900Y-60960000D02*
X76027500Y-59769400D01*
X45547500Y-59769400D02*
X34196900Y-71120000D01*
X52342900Y-59769400D02*
X45547500Y-59769400D01*
X53638800Y-61065300D02*
X52342900Y-59769400D01*
X55201600Y-61065300D02*
X53638800Y-61065300D01*
X56497500Y-59769400D02*
X55201600Y-61065300D01*
X60238600Y-59769400D02*
X56497500Y-59769400D01*
X61429200Y-60960000D02*
X60238600Y-59769400D01*
X73660000Y-60960000D02*
X61429200Y-60960000D01*
%TO.N,A3*%
X96692500Y-57229400D02*
X97883100Y-58420000D01*
X76027500Y-57229400D02*
X96692500Y-57229400D01*
X74836900Y-58420000D02*
X76027500Y-57229400D01*
X73660000Y-58420000D02*
X74836900Y-58420000D01*
X99060000Y-58420000D02*
X97883100Y-58420000D01*
X33020000Y-68580000D02*
X33020000Y-69756900D01*
X76492400Y-89032400D02*
X76492400Y-83785100D01*
X75434800Y-90090000D02*
X76492400Y-89032400D01*
X74371000Y-90090000D02*
X75434800Y-90090000D01*
X71140000Y-86859000D02*
X74371000Y-90090000D01*
X71140000Y-83364900D02*
X71140000Y-86859000D01*
X70418200Y-82643100D02*
X71140000Y-83364900D01*
X67362100Y-82643100D02*
X70418200Y-82643100D01*
X62375200Y-87630000D02*
X67362100Y-82643100D01*
X36196700Y-87630000D02*
X62375200Y-87630000D01*
X33740200Y-90086500D02*
X36196700Y-87630000D01*
X32519600Y-90086500D02*
X33740200Y-90086500D01*
X30764000Y-88330900D02*
X32519600Y-90086500D01*
X30764000Y-71647100D02*
X30764000Y-88330900D01*
X32654200Y-69756900D02*
X30764000Y-71647100D01*
X33020000Y-69756900D02*
X32654200Y-69756900D01*
%TO.N,A2*%
X73660000Y-55880000D02*
X72483100Y-55880000D01*
X33020000Y-66040000D02*
X34196900Y-66040000D01*
X99060000Y-55880000D02*
X97883100Y-55880000D01*
X96703900Y-54700800D02*
X75772000Y-54700800D01*
X97883100Y-55880000D02*
X96703900Y-54700800D01*
X43005000Y-57231900D02*
X34196900Y-66040000D01*
X50515200Y-57231900D02*
X43005000Y-57231900D01*
X53846700Y-60563400D02*
X50515200Y-57231900D01*
X54767300Y-60563400D02*
X53846700Y-60563400D01*
X55272500Y-60058200D02*
X54767300Y-60563400D01*
X55272500Y-59831700D02*
X55272500Y-60058200D01*
X57994900Y-57109300D02*
X55272500Y-59831700D01*
X71253800Y-57109300D02*
X57994900Y-57109300D01*
X72483100Y-55880000D02*
X71253800Y-57109300D01*
%TO.N,A1*%
X33020000Y-63500000D02*
X34196900Y-63500000D01*
X99060000Y-53340000D02*
X97883100Y-53340000D01*
X61618400Y-53340000D02*
X73660000Y-53340000D01*
X60348300Y-54610100D02*
X61618400Y-53340000D01*
X43086800Y-54610100D02*
X60348300Y-54610100D01*
X34196900Y-63500000D02*
X43086800Y-54610100D01*
X96690500Y-52147400D02*
X97883100Y-53340000D01*
X82426500Y-52147400D02*
X96690500Y-52147400D01*
X81233900Y-53340000D02*
X82426500Y-52147400D01*
X74836900Y-53340000D02*
X81233900Y-53340000D01*
X73660000Y-53340000D02*
X74836900Y-53340000D01*
%TO.N,~{RES}*%
X107315000Y-113610000D02*
X100815000Y-113610000D01*
X122480000Y-62341400D02*
X122480000Y-71570000D01*
X90509300Y-30370700D02*
X122480000Y-62341400D01*
X32446800Y-30370700D02*
X90509300Y-30370700D01*
X31632300Y-31185200D02*
X32446800Y-30370700D01*
X31632300Y-32339200D02*
X31632300Y-31185200D01*
X39933100Y-40640000D02*
X31632300Y-32339200D01*
X48260000Y-40640000D02*
X39933100Y-40640000D01*
%TO.N,D7*%
X81452500Y-51990600D02*
X82643100Y-50800000D01*
X60787500Y-51990600D02*
X81452500Y-51990600D01*
X59596900Y-50800000D02*
X60787500Y-51990600D01*
X58420000Y-50800000D02*
X59596900Y-50800000D01*
X83820000Y-50800000D02*
X82643100Y-50800000D01*
%TO.N,D6*%
X83820000Y-48260000D02*
X82643100Y-48260000D01*
X58420000Y-48260000D02*
X59596900Y-48260000D01*
X81843200Y-49059900D02*
X79042300Y-49059900D01*
X82643100Y-48260000D02*
X81843200Y-49059900D01*
X78638000Y-49464200D02*
X79042300Y-49059900D01*
X60801100Y-49464200D02*
X78638000Y-49464200D01*
X59596900Y-48260000D02*
X60801100Y-49464200D01*
%TO.N,D5*%
X83820000Y-45720000D02*
X82643100Y-45720000D01*
X58420000Y-45720000D02*
X59596900Y-45720000D01*
X59920300Y-46043400D02*
X59596900Y-45720000D01*
X61220700Y-46043400D02*
X59920300Y-46043400D01*
X62104800Y-46927500D02*
X61220700Y-46043400D01*
X81435600Y-46927500D02*
X62104800Y-46927500D01*
X82643100Y-45720000D02*
X81435600Y-46927500D01*
%TO.N,D4*%
X58420000Y-43180000D02*
X59596900Y-43180000D01*
X60804300Y-44387400D02*
X59596900Y-43180000D01*
X75038700Y-44387400D02*
X60804300Y-44387400D01*
X76246100Y-43180000D02*
X75038700Y-44387400D01*
X83820000Y-43180000D02*
X76246100Y-43180000D01*
%TO.N,D3*%
X83820000Y-40640000D02*
X82643100Y-40640000D01*
X80489700Y-38486600D02*
X82643100Y-40640000D01*
X62616600Y-38486600D02*
X80489700Y-38486600D01*
X55880000Y-31750000D02*
X62616600Y-38486600D01*
%TO.N,D2*%
X99060000Y-43180000D02*
X97883100Y-43180000D01*
X64770000Y-43180000D02*
X73660000Y-43180000D01*
X53340000Y-31750000D02*
X64770000Y-43180000D01*
X73660000Y-43180000D02*
X74836900Y-43180000D01*
X96692500Y-41989400D02*
X97883100Y-43180000D01*
X76027500Y-41989400D02*
X96692500Y-41989400D01*
X74836900Y-43180000D02*
X76027500Y-41989400D01*
%TO.N,D1*%
X99060000Y-45720000D02*
X97883100Y-45720000D01*
X73660000Y-45720000D02*
X74836900Y-45720000D01*
X96692500Y-44529400D02*
X97883100Y-45720000D01*
X76027500Y-44529400D02*
X96692500Y-44529400D01*
X74836900Y-45720000D02*
X76027500Y-44529400D01*
X50800000Y-37243000D02*
X50800000Y-31750000D01*
X58007000Y-44450000D02*
X50800000Y-37243000D01*
X59684800Y-44450000D02*
X58007000Y-44450000D01*
X60776300Y-45541500D02*
X59684800Y-44450000D01*
X72304600Y-45541500D02*
X60776300Y-45541500D01*
X72483100Y-45720000D02*
X72304600Y-45541500D01*
X73660000Y-45720000D02*
X72483100Y-45720000D01*
%TO.N,D0*%
X99060000Y-48260000D02*
X97883100Y-48260000D01*
X96692500Y-47069400D02*
X97883100Y-48260000D01*
X82424500Y-47069400D02*
X96692500Y-47069400D01*
X81233900Y-48260000D02*
X82424500Y-47069400D01*
X73660000Y-48260000D02*
X81233900Y-48260000D01*
X62433400Y-48260000D02*
X73660000Y-48260000D01*
X61247600Y-47074200D02*
X62433400Y-48260000D01*
X58037800Y-47074200D02*
X61247600Y-47074200D01*
X48260000Y-37296400D02*
X58037800Y-47074200D01*
X48260000Y-31750000D02*
X48260000Y-37296400D01*
%TO.N,R{slash}~{W}*%
X50513800Y-55880000D02*
X54420200Y-59786400D01*
X48260000Y-55880000D02*
X50513800Y-55880000D01*
%TO.N,A0*%
X99060000Y-50800000D02*
X97883100Y-50800000D01*
X73660000Y-50800000D02*
X74836900Y-50800000D01*
X33020000Y-60960000D02*
X34196900Y-60960000D01*
X96692500Y-49609400D02*
X97883100Y-50800000D01*
X79591500Y-49609400D02*
X96692500Y-49609400D01*
X78400900Y-50800000D02*
X79591500Y-49609400D01*
X74836900Y-50800000D02*
X78400900Y-50800000D01*
X47051900Y-42642600D02*
X47051900Y-49616800D01*
X47784500Y-41910000D02*
X47051900Y-42642600D01*
X48684400Y-41910000D02*
X47784500Y-41910000D01*
X49462700Y-41131700D02*
X48684400Y-41910000D01*
X49462700Y-40144400D02*
X49462700Y-41131700D01*
X41068300Y-31750000D02*
X49462700Y-40144400D01*
X40640000Y-31750000D02*
X41068300Y-31750000D01*
X45540100Y-49616800D02*
X47051900Y-49616800D01*
X34196900Y-60960000D02*
X45540100Y-49616800D01*
X60417800Y-50800000D02*
X73660000Y-50800000D01*
X59234600Y-49616800D02*
X60417800Y-50800000D01*
X47051900Y-49616800D02*
X59234600Y-49616800D01*
%TO.N,Net-(U7-IN)*%
X99826700Y-36326700D02*
X90170000Y-26670000D01*
X117569800Y-36326700D02*
X99826700Y-36326700D01*
X118073100Y-36830000D02*
X117569800Y-36326700D01*
X120650000Y-36830000D02*
X118073100Y-36830000D01*
%TO.N,GND*%
X82550000Y-99060000D02*
X80010000Y-99060000D01*
X80010000Y-93980000D02*
X80010000Y-96520000D01*
X82550000Y-96520000D02*
X80010000Y-96520000D01*
X80010000Y-96520000D02*
X80010000Y-99060000D01*
X82550000Y-93980000D02*
X80010000Y-93980000D01*
X80010000Y-87630000D02*
X80010000Y-93980000D01*
X83820000Y-83820000D02*
X80010000Y-87630000D01*
X85170000Y-83820000D02*
X83820000Y-83820000D01*
X109220000Y-99060000D02*
X109220000Y-102870000D01*
X109220000Y-102870000D02*
X109220000Y-106680000D01*
X109220000Y-95250000D02*
X109220000Y-99060000D01*
X109220000Y-87630000D02*
X109220000Y-91440000D01*
X109220000Y-91440000D02*
X109220000Y-95250000D01*
X45720000Y-91440000D02*
X48260000Y-88900000D01*
X31750000Y-91440000D02*
X45720000Y-91440000D01*
X29210000Y-88900000D02*
X31750000Y-91440000D01*
X29210000Y-66000000D02*
X29210000Y-88900000D01*
X88993100Y-111394200D02*
X88993100Y-111760000D01*
X88172000Y-110573100D02*
X88993100Y-111394200D01*
X87086000Y-110573100D02*
X88172000Y-110573100D01*
X86266900Y-111392200D02*
X87086000Y-110573100D01*
X86266900Y-111760000D02*
X86266900Y-111392200D01*
X85090000Y-111760000D02*
X86266900Y-111760000D01*
X90170000Y-111760000D02*
X88993100Y-111760000D01*
X107315000Y-118110000D02*
X100815000Y-118110000D01*
X80010000Y-99060000D02*
X80010000Y-102870000D01*
X80010000Y-104140000D02*
X82550000Y-106680000D01*
X80010000Y-102870000D02*
X80010000Y-104140000D01*
X69756900Y-102870000D02*
X68486900Y-104140000D01*
X80010000Y-102870000D02*
X69756900Y-102870000D01*
X67310000Y-104140000D02*
X68486900Y-104140000D01*
X68460400Y-36750400D02*
X67270000Y-35560000D01*
X91519600Y-36750400D02*
X68460400Y-36750400D01*
X92710000Y-35560000D02*
X91519600Y-36750400D01*
X97790000Y-40640000D02*
X92710000Y-35560000D01*
X99060000Y-40640000D02*
X97790000Y-40640000D01*
X110600000Y-64770000D02*
X105410000Y-64770000D01*
X117400000Y-71570000D02*
X110600000Y-64770000D01*
X64770000Y-87630000D02*
X64770000Y-89707400D01*
X68580000Y-83820000D02*
X64770000Y-87630000D01*
X69890000Y-83820000D02*
X68580000Y-83820000D01*
X64770000Y-101600000D02*
X67310000Y-104140000D01*
X64770000Y-89707400D02*
X64770000Y-101600000D01*
X48260000Y-88900000D02*
X49436900Y-88900000D01*
X99545000Y-119380000D02*
X100815000Y-118110000D01*
X90170000Y-119380000D02*
X99545000Y-119380000D01*
X50244300Y-89707400D02*
X64770000Y-89707400D01*
X49436900Y-88900000D02*
X50244300Y-89707400D01*
%TO.N,+5V*%
X29210000Y-62230000D02*
X33020000Y-58420000D01*
X29210000Y-63500000D02*
X29210000Y-62230000D01*
X45720000Y-116150000D02*
X39220000Y-116150000D01*
X35560000Y-111070000D02*
X29060000Y-111070000D01*
X45720000Y-106570000D02*
X39220000Y-106570000D01*
X123190000Y-114300000D02*
X116690000Y-114300000D01*
X88998600Y-34348600D02*
X90210000Y-35560000D01*
X65981400Y-34348600D02*
X88998600Y-34348600D01*
X64770000Y-35560000D02*
X65981400Y-34348600D01*
X36830000Y-92710000D02*
X33020000Y-92710000D01*
X44450000Y-92710000D02*
X40640000Y-92710000D01*
X40640000Y-92710000D02*
X36830000Y-92710000D01*
X119840900Y-49530000D02*
X113030000Y-49530000D01*
X120743100Y-48627800D02*
X119840900Y-49530000D01*
X120743100Y-48260000D02*
X120743100Y-48627800D01*
X121920000Y-48260000D02*
X120743100Y-48260000D01*
X45720000Y-92710000D02*
X45720000Y-106570000D01*
X48260000Y-92710000D02*
X45720000Y-92710000D01*
X45720000Y-92710000D02*
X44450000Y-92710000D01*
X118813100Y-72696900D02*
X116933300Y-72696900D01*
X119940000Y-71570000D02*
X118813100Y-72696900D01*
X122946700Y-100086700D02*
X123190000Y-100330000D01*
X116933300Y-100086700D02*
X122946700Y-100086700D01*
X116933300Y-72696900D02*
X116933300Y-100086700D01*
X116933300Y-100086700D02*
X116690000Y-100330000D01*
X90170000Y-86320000D02*
X87670000Y-83820000D01*
X90170000Y-88900000D02*
X90170000Y-86320000D01*
X74930000Y-86360000D02*
X73822500Y-85252400D01*
X74930000Y-88900000D02*
X74930000Y-86360000D01*
X85983900Y-82133900D02*
X87670000Y-83820000D01*
X82922800Y-82133900D02*
X85983900Y-82133900D01*
X82200800Y-82855900D02*
X82922800Y-82133900D01*
X76219000Y-82855900D02*
X82200800Y-82855900D01*
X73822500Y-85252400D02*
X76219000Y-82855900D01*
X73822500Y-85252400D02*
X72390000Y-83820000D01*
X67831500Y-78740000D02*
X58420000Y-78740000D01*
X72390000Y-83298500D02*
X67831500Y-78740000D01*
X72390000Y-83820000D02*
X72390000Y-83298500D01*
X94783600Y-73660000D02*
X83820000Y-73660000D01*
X95971800Y-72471800D02*
X94783600Y-73660000D01*
X116708200Y-72471800D02*
X95971800Y-72471800D01*
X116933300Y-72696900D02*
X116708200Y-72471800D01*
X49380000Y-111070000D02*
X55880000Y-111070000D01*
X65443100Y-111070000D02*
X66133100Y-111760000D01*
X55880000Y-111070000D02*
X65443100Y-111070000D01*
X67310000Y-111760000D02*
X66133100Y-111760000D01*
%TD*%
M02*
