%TF.GenerationSoftware,KiCad,Pcbnew,7.0.8*%
%TF.CreationDate,2023-12-27T01:37:41+02:00*%
%TF.ProjectId,main,6d61696e-2e6b-4696-9361-645f70636258,rev?*%
%TF.SameCoordinates,Original*%
%TF.FileFunction,Legend,Top*%
%TF.FilePolarity,Positive*%
%FSLAX46Y46*%
G04 Gerber Fmt 4.6, Leading zero omitted, Abs format (unit mm)*
G04 Created by KiCad (PCBNEW 7.0.8) date 2023-12-27 01:37:41*
%MOMM*%
%LPD*%
G01*
G04 APERTURE LIST*
%ADD10C,0.000000*%
%ADD11C,0.200000*%
%ADD12C,0.300000*%
%ADD13C,0.150000*%
%ADD14C,0.100000*%
%ADD15C,0.120000*%
G04 APERTURE END LIST*
D10*
G36*
X58670001Y-92185002D02*
G01*
X58670001Y-99060001D01*
X62670000Y-91435002D01*
X62670000Y-102435000D01*
X59545001Y-102435000D01*
X58420001Y-104685000D01*
X57295001Y-102435000D01*
X57795001Y-102435000D01*
X58170001Y-103185000D01*
X58670001Y-103185000D01*
X59045001Y-102435000D01*
X58920000Y-102435000D01*
X58670001Y-102685000D01*
X58670001Y-103185000D01*
X58170001Y-103185000D01*
X58170001Y-102685000D01*
X57920001Y-102435000D01*
X57795001Y-102435000D01*
X57295001Y-102435000D01*
X54170001Y-102435000D01*
X54170001Y-101935001D01*
X55420001Y-101935001D01*
X57420001Y-101935001D01*
X58670001Y-101935001D01*
X58795001Y-101935001D01*
X59420000Y-101935001D01*
X61419999Y-101935001D01*
X60045001Y-101310001D01*
X59420000Y-101935001D01*
X58795001Y-101935001D01*
X59670001Y-101060001D01*
X59420000Y-100935000D01*
X60420001Y-100935000D01*
X62170001Y-101810001D01*
X62170001Y-99310001D01*
X60420001Y-100935000D01*
X59420000Y-100935000D01*
X58670001Y-100560001D01*
X58670001Y-100560002D01*
X58670001Y-101935001D01*
X57420001Y-101935001D01*
X56795001Y-101310001D01*
X55420001Y-101935001D01*
X54170001Y-101935001D01*
X54170001Y-99310001D01*
X54670001Y-99310001D01*
X54670002Y-101810001D01*
X56170003Y-101060000D01*
X57170001Y-101060000D01*
X58045001Y-101935000D01*
X58170001Y-101935000D01*
X58170001Y-100560001D01*
X57170001Y-101060000D01*
X56170003Y-101060000D01*
X56420001Y-100935000D01*
X54670001Y-99310001D01*
X54170001Y-99310001D01*
X54170001Y-98685000D01*
X54670001Y-98685000D01*
X56795001Y-100685000D01*
X58170001Y-100060000D01*
X58670001Y-100060000D01*
X60045001Y-100685000D01*
X62170001Y-98685000D01*
X62170001Y-93435002D01*
X58670001Y-100060000D01*
X58170001Y-100060000D01*
X54670001Y-93435002D01*
X54670001Y-98685000D01*
X54170001Y-98685000D01*
X54170001Y-91435002D01*
X58170001Y-99060000D01*
X58170001Y-92185001D01*
X58417067Y-90185002D01*
X58670001Y-92185002D01*
G37*
D11*
X121787219Y-56891517D02*
X121787219Y-57462945D01*
X121787219Y-57177231D02*
X120787219Y-57177231D01*
X120787219Y-57177231D02*
X120930076Y-57272469D01*
X120930076Y-57272469D02*
X121025314Y-57367707D01*
X121025314Y-57367707D02*
X121072933Y-57462945D01*
X120787219Y-56034374D02*
X120787219Y-56224850D01*
X120787219Y-56224850D02*
X120834838Y-56320088D01*
X120834838Y-56320088D02*
X120882457Y-56367707D01*
X120882457Y-56367707D02*
X121025314Y-56462945D01*
X121025314Y-56462945D02*
X121215790Y-56510564D01*
X121215790Y-56510564D02*
X121596742Y-56510564D01*
X121596742Y-56510564D02*
X121691980Y-56462945D01*
X121691980Y-56462945D02*
X121739600Y-56415326D01*
X121739600Y-56415326D02*
X121787219Y-56320088D01*
X121787219Y-56320088D02*
X121787219Y-56129612D01*
X121787219Y-56129612D02*
X121739600Y-56034374D01*
X121739600Y-56034374D02*
X121691980Y-55986755D01*
X121691980Y-55986755D02*
X121596742Y-55939136D01*
X121596742Y-55939136D02*
X121358647Y-55939136D01*
X121358647Y-55939136D02*
X121263409Y-55986755D01*
X121263409Y-55986755D02*
X121215790Y-56034374D01*
X121215790Y-56034374D02*
X121168171Y-56129612D01*
X121168171Y-56129612D02*
X121168171Y-56320088D01*
X121168171Y-56320088D02*
X121215790Y-56415326D01*
X121215790Y-56415326D02*
X121263409Y-56462945D01*
X121263409Y-56462945D02*
X121358647Y-56510564D01*
X121787219Y-54748659D02*
X121120552Y-54748659D01*
X121120552Y-54748659D02*
X121120552Y-54367707D01*
X121120552Y-54034373D02*
X122120552Y-54034373D01*
X121168171Y-54034373D02*
X121120552Y-53939135D01*
X121120552Y-53939135D02*
X121120552Y-53748659D01*
X121120552Y-53748659D02*
X121168171Y-53653421D01*
X121168171Y-53653421D02*
X121215790Y-53605802D01*
X121215790Y-53605802D02*
X121311028Y-53558183D01*
X121311028Y-53558183D02*
X121596742Y-53558183D01*
X121596742Y-53558183D02*
X121691980Y-53605802D01*
X121691980Y-53605802D02*
X121739600Y-53653421D01*
X121739600Y-53653421D02*
X121787219Y-53748659D01*
X121787219Y-53748659D02*
X121787219Y-53939135D01*
X121787219Y-53939135D02*
X121739600Y-54034373D01*
X121120552Y-53224849D02*
X121787219Y-52986754D01*
X121120552Y-52748659D02*
X121787219Y-52986754D01*
X121787219Y-52986754D02*
X122025314Y-53081992D01*
X122025314Y-53081992D02*
X122072933Y-53129611D01*
X122072933Y-53129611D02*
X122120552Y-53224849D01*
X121215790Y-51891516D02*
X121168171Y-51939135D01*
X121168171Y-51939135D02*
X121120552Y-52034373D01*
X121120552Y-52034373D02*
X121120552Y-52224849D01*
X121120552Y-52224849D02*
X121168171Y-52320087D01*
X121168171Y-52320087D02*
X121215790Y-52367706D01*
X121215790Y-52367706D02*
X121311028Y-52415325D01*
X121311028Y-52415325D02*
X121596742Y-52415325D01*
X121596742Y-52415325D02*
X121691980Y-52367706D01*
X121691980Y-52367706D02*
X121739600Y-52320087D01*
X121739600Y-52320087D02*
X121787219Y-52224849D01*
X121787219Y-52224849D02*
X121787219Y-52081992D01*
X121787219Y-52081992D02*
X121739600Y-51986754D01*
X121739600Y-51986754D02*
X121691980Y-51939135D01*
X121691980Y-51939135D02*
X121596742Y-51891516D01*
X121596742Y-51891516D02*
X120977695Y-51891516D01*
X120977695Y-51891516D02*
X120882457Y-51939135D01*
X120882457Y-51939135D02*
X120834838Y-51986754D01*
X120834838Y-51986754D02*
X120787219Y-52081992D01*
X120787219Y-52081992D02*
X120787219Y-52272468D01*
X120787219Y-52272468D02*
X120834838Y-52367706D01*
X121453885Y-51462944D02*
X121453885Y-51034373D01*
X121120552Y-51462944D02*
X121787219Y-51462944D01*
X121120552Y-51034373D02*
X121787219Y-51034373D01*
X121501504Y-50367706D02*
X121787219Y-50605801D01*
X121787219Y-50177230D02*
X121120552Y-50177230D01*
X121120552Y-50177230D02*
X121120552Y-50462944D01*
X121120552Y-50462944D02*
X121168171Y-50558182D01*
X121168171Y-50558182D02*
X121263409Y-50605801D01*
X121263409Y-50605801D02*
X121358647Y-50605801D01*
X121358647Y-50605801D02*
X121453885Y-50558182D01*
X121453885Y-50558182D02*
X121501504Y-50462944D01*
X121501504Y-50462944D02*
X121501504Y-50177230D01*
X121739600Y-49653420D02*
X121787219Y-49653420D01*
X121787219Y-49653420D02*
X121882457Y-49701039D01*
X121882457Y-49701039D02*
X121930076Y-49748658D01*
X120882457Y-48510563D02*
X120834838Y-48462944D01*
X120834838Y-48462944D02*
X120787219Y-48367706D01*
X120787219Y-48367706D02*
X120787219Y-48129611D01*
X120787219Y-48129611D02*
X120834838Y-48034373D01*
X120834838Y-48034373D02*
X120882457Y-47986754D01*
X120882457Y-47986754D02*
X120977695Y-47939135D01*
X120977695Y-47939135D02*
X121072933Y-47939135D01*
X121072933Y-47939135D02*
X121215790Y-47986754D01*
X121215790Y-47986754D02*
X121787219Y-48558182D01*
X121787219Y-48558182D02*
X121787219Y-47939135D01*
X120787219Y-47320087D02*
X120787219Y-47224849D01*
X120787219Y-47224849D02*
X120834838Y-47129611D01*
X120834838Y-47129611D02*
X120882457Y-47081992D01*
X120882457Y-47081992D02*
X120977695Y-47034373D01*
X120977695Y-47034373D02*
X121168171Y-46986754D01*
X121168171Y-46986754D02*
X121406266Y-46986754D01*
X121406266Y-46986754D02*
X121596742Y-47034373D01*
X121596742Y-47034373D02*
X121691980Y-47081992D01*
X121691980Y-47081992D02*
X121739600Y-47129611D01*
X121739600Y-47129611D02*
X121787219Y-47224849D01*
X121787219Y-47224849D02*
X121787219Y-47320087D01*
X121787219Y-47320087D02*
X121739600Y-47415325D01*
X121739600Y-47415325D02*
X121691980Y-47462944D01*
X121691980Y-47462944D02*
X121596742Y-47510563D01*
X121596742Y-47510563D02*
X121406266Y-47558182D01*
X121406266Y-47558182D02*
X121168171Y-47558182D01*
X121168171Y-47558182D02*
X120977695Y-47510563D01*
X120977695Y-47510563D02*
X120882457Y-47462944D01*
X120882457Y-47462944D02*
X120834838Y-47415325D01*
X120834838Y-47415325D02*
X120787219Y-47320087D01*
X120882457Y-46605801D02*
X120834838Y-46558182D01*
X120834838Y-46558182D02*
X120787219Y-46462944D01*
X120787219Y-46462944D02*
X120787219Y-46224849D01*
X120787219Y-46224849D02*
X120834838Y-46129611D01*
X120834838Y-46129611D02*
X120882457Y-46081992D01*
X120882457Y-46081992D02*
X120977695Y-46034373D01*
X120977695Y-46034373D02*
X121072933Y-46034373D01*
X121072933Y-46034373D02*
X121215790Y-46081992D01*
X121215790Y-46081992D02*
X121787219Y-46653420D01*
X121787219Y-46653420D02*
X121787219Y-46034373D01*
X120787219Y-45701039D02*
X120787219Y-45081992D01*
X120787219Y-45081992D02*
X121168171Y-45415325D01*
X121168171Y-45415325D02*
X121168171Y-45272468D01*
X121168171Y-45272468D02*
X121215790Y-45177230D01*
X121215790Y-45177230D02*
X121263409Y-45129611D01*
X121263409Y-45129611D02*
X121358647Y-45081992D01*
X121358647Y-45081992D02*
X121596742Y-45081992D01*
X121596742Y-45081992D02*
X121691980Y-45129611D01*
X121691980Y-45129611D02*
X121739600Y-45177230D01*
X121739600Y-45177230D02*
X121787219Y-45272468D01*
X121787219Y-45272468D02*
X121787219Y-45558182D01*
X121787219Y-45558182D02*
X121739600Y-45653420D01*
X121739600Y-45653420D02*
X121691980Y-45701039D01*
X122284123Y-73230802D02*
X121034123Y-73230802D01*
X121510314Y-73230802D02*
X121450790Y-73111755D01*
X121450790Y-73111755D02*
X121450790Y-72873660D01*
X121450790Y-72873660D02*
X121510314Y-72754612D01*
X121510314Y-72754612D02*
X121569838Y-72695088D01*
X121569838Y-72695088D02*
X121688885Y-72635564D01*
X121688885Y-72635564D02*
X122046028Y-72635564D01*
X122046028Y-72635564D02*
X122165076Y-72695088D01*
X122165076Y-72695088D02*
X122224600Y-72754612D01*
X122224600Y-72754612D02*
X122284123Y-72873660D01*
X122284123Y-72873660D02*
X122284123Y-73111755D01*
X122284123Y-73111755D02*
X122224600Y-73230802D01*
X121450790Y-72218898D02*
X122284123Y-71921279D01*
X121450790Y-71623660D02*
X122284123Y-71921279D01*
X122284123Y-71921279D02*
X122581742Y-72040327D01*
X122581742Y-72040327D02*
X122641266Y-72099850D01*
X122641266Y-72099850D02*
X122700790Y-72218898D01*
X121926980Y-70254612D02*
X121926980Y-69659374D01*
X122284123Y-70373660D02*
X121034123Y-69956993D01*
X121034123Y-69956993D02*
X122284123Y-69540327D01*
X121867457Y-69123659D02*
X121867457Y-68587945D01*
X121450790Y-69123659D02*
X122284123Y-69123659D01*
X121450790Y-68587945D02*
X122284123Y-68587945D01*
X121569838Y-67397469D02*
X121510314Y-67456993D01*
X121510314Y-67456993D02*
X121450790Y-67576041D01*
X121450790Y-67576041D02*
X121450790Y-67814136D01*
X121450790Y-67814136D02*
X121510314Y-67933184D01*
X121510314Y-67933184D02*
X121569838Y-67992707D01*
X121569838Y-67992707D02*
X121688885Y-68052231D01*
X121688885Y-68052231D02*
X122046028Y-68052231D01*
X122046028Y-68052231D02*
X122165076Y-67992707D01*
X122165076Y-67992707D02*
X122224600Y-67933184D01*
X122224600Y-67933184D02*
X122284123Y-67814136D01*
X122284123Y-67814136D02*
X122284123Y-67635565D01*
X122284123Y-67635565D02*
X122224600Y-67516517D01*
X122224600Y-67516517D02*
X122165076Y-67456993D01*
X122165076Y-67456993D02*
X122046028Y-67397469D01*
X122046028Y-67397469D02*
X121272219Y-67397469D01*
X121272219Y-67397469D02*
X121153171Y-67456993D01*
X121153171Y-67456993D02*
X121093647Y-67516517D01*
X121093647Y-67516517D02*
X121034123Y-67635565D01*
X121034123Y-67635565D02*
X121034123Y-67873660D01*
X121034123Y-67873660D02*
X121093647Y-67992707D01*
X122224600Y-66385565D02*
X122284123Y-66504613D01*
X122284123Y-66504613D02*
X122284123Y-66742708D01*
X122284123Y-66742708D02*
X122224600Y-66861755D01*
X122224600Y-66861755D02*
X122105552Y-66921279D01*
X122105552Y-66921279D02*
X121629361Y-66921279D01*
X121629361Y-66921279D02*
X121510314Y-66861755D01*
X121510314Y-66861755D02*
X121450790Y-66742708D01*
X121450790Y-66742708D02*
X121450790Y-66504613D01*
X121450790Y-66504613D02*
X121510314Y-66385565D01*
X121510314Y-66385565D02*
X121629361Y-66326041D01*
X121629361Y-66326041D02*
X121748409Y-66326041D01*
X121748409Y-66326041D02*
X121867457Y-66921279D01*
X121450790Y-65790326D02*
X122700790Y-65790326D01*
X121510314Y-65790326D02*
X121450790Y-65671279D01*
X121450790Y-65671279D02*
X121450790Y-65433184D01*
X121450790Y-65433184D02*
X121510314Y-65314136D01*
X121510314Y-65314136D02*
X121569838Y-65254612D01*
X121569838Y-65254612D02*
X121688885Y-65195088D01*
X121688885Y-65195088D02*
X122046028Y-65195088D01*
X122046028Y-65195088D02*
X122165076Y-65254612D01*
X122165076Y-65254612D02*
X122224600Y-65314136D01*
X122224600Y-65314136D02*
X122284123Y-65433184D01*
X122284123Y-65433184D02*
X122284123Y-65671279D01*
X122284123Y-65671279D02*
X122224600Y-65790326D01*
X122224600Y-64123660D02*
X122284123Y-64242708D01*
X122284123Y-64242708D02*
X122284123Y-64480803D01*
X122284123Y-64480803D02*
X122224600Y-64599851D01*
X122224600Y-64599851D02*
X122165076Y-64659374D01*
X122165076Y-64659374D02*
X122046028Y-64718898D01*
X122046028Y-64718898D02*
X121688885Y-64718898D01*
X121688885Y-64718898D02*
X121569838Y-64659374D01*
X121569838Y-64659374D02*
X121510314Y-64599851D01*
X121510314Y-64599851D02*
X121450790Y-64480803D01*
X121450790Y-64480803D02*
X121450790Y-64242708D01*
X121450790Y-64242708D02*
X121510314Y-64123660D01*
X122284123Y-63409374D02*
X122224600Y-63528422D01*
X122224600Y-63528422D02*
X122165076Y-63587945D01*
X122165076Y-63587945D02*
X122046028Y-63647469D01*
X122046028Y-63647469D02*
X121688885Y-63647469D01*
X121688885Y-63647469D02*
X121569838Y-63587945D01*
X121569838Y-63587945D02*
X121510314Y-63528422D01*
X121510314Y-63528422D02*
X121450790Y-63409374D01*
X121450790Y-63409374D02*
X121450790Y-63230803D01*
X121450790Y-63230803D02*
X121510314Y-63111755D01*
X121510314Y-63111755D02*
X121569838Y-63052231D01*
X121569838Y-63052231D02*
X121688885Y-62992707D01*
X121688885Y-62992707D02*
X122046028Y-62992707D01*
X122046028Y-62992707D02*
X122165076Y-63052231D01*
X122165076Y-63052231D02*
X122224600Y-63111755D01*
X122224600Y-63111755D02*
X122284123Y-63230803D01*
X122284123Y-63230803D02*
X122284123Y-63409374D01*
X121867457Y-62456993D02*
X121867457Y-61921279D01*
X121450790Y-62456993D02*
X122284123Y-62456993D01*
X121450790Y-61921279D02*
X122284123Y-61921279D01*
X123463290Y-73349850D02*
X124296623Y-73052231D01*
X123463290Y-72754612D02*
X124296623Y-73052231D01*
X124296623Y-73052231D02*
X124594242Y-73171279D01*
X124594242Y-73171279D02*
X124653766Y-73230802D01*
X124653766Y-73230802D02*
X124713290Y-73349850D01*
X124296623Y-72099850D02*
X124237100Y-72218898D01*
X124237100Y-72218898D02*
X124177576Y-72278421D01*
X124177576Y-72278421D02*
X124058528Y-72337945D01*
X124058528Y-72337945D02*
X123701385Y-72337945D01*
X123701385Y-72337945D02*
X123582338Y-72278421D01*
X123582338Y-72278421D02*
X123522814Y-72218898D01*
X123522814Y-72218898D02*
X123463290Y-72099850D01*
X123463290Y-72099850D02*
X123463290Y-71921279D01*
X123463290Y-71921279D02*
X123522814Y-71802231D01*
X123522814Y-71802231D02*
X123582338Y-71742707D01*
X123582338Y-71742707D02*
X123701385Y-71683183D01*
X123701385Y-71683183D02*
X124058528Y-71683183D01*
X124058528Y-71683183D02*
X124177576Y-71742707D01*
X124177576Y-71742707D02*
X124237100Y-71802231D01*
X124237100Y-71802231D02*
X124296623Y-71921279D01*
X124296623Y-71921279D02*
X124296623Y-72099850D01*
X123463290Y-70611755D02*
X124296623Y-70611755D01*
X123463290Y-71147469D02*
X124118052Y-71147469D01*
X124118052Y-71147469D02*
X124237100Y-71087946D01*
X124237100Y-71087946D02*
X124296623Y-70968898D01*
X124296623Y-70968898D02*
X124296623Y-70790327D01*
X124296623Y-70790327D02*
X124237100Y-70671279D01*
X124237100Y-70671279D02*
X124177576Y-70611755D01*
X123463290Y-70195089D02*
X123463290Y-69718898D01*
X123046623Y-70016517D02*
X124118052Y-70016517D01*
X124118052Y-70016517D02*
X124237100Y-69956994D01*
X124237100Y-69956994D02*
X124296623Y-69837946D01*
X124296623Y-69837946D02*
X124296623Y-69718898D01*
X123463290Y-68766517D02*
X124296623Y-68766517D01*
X123463290Y-69302231D02*
X124118052Y-69302231D01*
X124118052Y-69302231D02*
X124237100Y-69242708D01*
X124237100Y-69242708D02*
X124296623Y-69123660D01*
X124296623Y-69123660D02*
X124296623Y-68945089D01*
X124296623Y-68945089D02*
X124237100Y-68826041D01*
X124237100Y-68826041D02*
X124177576Y-68766517D01*
X124296623Y-68171279D02*
X123046623Y-68171279D01*
X123522814Y-68171279D02*
X123463290Y-68052232D01*
X123463290Y-68052232D02*
X123463290Y-67814137D01*
X123463290Y-67814137D02*
X123522814Y-67695089D01*
X123522814Y-67695089D02*
X123582338Y-67635565D01*
X123582338Y-67635565D02*
X123701385Y-67576041D01*
X123701385Y-67576041D02*
X124058528Y-67576041D01*
X124058528Y-67576041D02*
X124177576Y-67635565D01*
X124177576Y-67635565D02*
X124237100Y-67695089D01*
X124237100Y-67695089D02*
X124296623Y-67814137D01*
X124296623Y-67814137D02*
X124296623Y-68052232D01*
X124296623Y-68052232D02*
X124237100Y-68171279D01*
X124237100Y-66564137D02*
X124296623Y-66683185D01*
X124296623Y-66683185D02*
X124296623Y-66921280D01*
X124296623Y-66921280D02*
X124237100Y-67040327D01*
X124237100Y-67040327D02*
X124118052Y-67099851D01*
X124118052Y-67099851D02*
X123641861Y-67099851D01*
X123641861Y-67099851D02*
X123522814Y-67040327D01*
X123522814Y-67040327D02*
X123463290Y-66921280D01*
X123463290Y-66921280D02*
X123463290Y-66683185D01*
X123463290Y-66683185D02*
X123522814Y-66564137D01*
X123522814Y-66564137D02*
X123641861Y-66504613D01*
X123641861Y-66504613D02*
X123760909Y-66504613D01*
X123760909Y-66504613D02*
X123879957Y-67099851D01*
X124177576Y-65968898D02*
X124237100Y-65909375D01*
X124237100Y-65909375D02*
X124296623Y-65968898D01*
X124296623Y-65968898D02*
X124237100Y-66028422D01*
X124237100Y-66028422D02*
X124177576Y-65968898D01*
X124177576Y-65968898D02*
X124296623Y-65968898D01*
X124237100Y-64837946D02*
X124296623Y-64956994D01*
X124296623Y-64956994D02*
X124296623Y-65195089D01*
X124296623Y-65195089D02*
X124237100Y-65314137D01*
X124237100Y-65314137D02*
X124177576Y-65373660D01*
X124177576Y-65373660D02*
X124058528Y-65433184D01*
X124058528Y-65433184D02*
X123701385Y-65433184D01*
X123701385Y-65433184D02*
X123582338Y-65373660D01*
X123582338Y-65373660D02*
X123522814Y-65314137D01*
X123522814Y-65314137D02*
X123463290Y-65195089D01*
X123463290Y-65195089D02*
X123463290Y-64956994D01*
X123463290Y-64956994D02*
X123522814Y-64837946D01*
X124296623Y-64123660D02*
X124237100Y-64242708D01*
X124237100Y-64242708D02*
X124177576Y-64302231D01*
X124177576Y-64302231D02*
X124058528Y-64361755D01*
X124058528Y-64361755D02*
X123701385Y-64361755D01*
X123701385Y-64361755D02*
X123582338Y-64302231D01*
X123582338Y-64302231D02*
X123522814Y-64242708D01*
X123522814Y-64242708D02*
X123463290Y-64123660D01*
X123463290Y-64123660D02*
X123463290Y-63945089D01*
X123463290Y-63945089D02*
X123522814Y-63826041D01*
X123522814Y-63826041D02*
X123582338Y-63766517D01*
X123582338Y-63766517D02*
X123701385Y-63706993D01*
X123701385Y-63706993D02*
X124058528Y-63706993D01*
X124058528Y-63706993D02*
X124177576Y-63766517D01*
X124177576Y-63766517D02*
X124237100Y-63826041D01*
X124237100Y-63826041D02*
X124296623Y-63945089D01*
X124296623Y-63945089D02*
X124296623Y-64123660D01*
X124296623Y-63171279D02*
X123463290Y-63171279D01*
X123582338Y-63171279D02*
X123522814Y-63111756D01*
X123522814Y-63111756D02*
X123463290Y-62992708D01*
X123463290Y-62992708D02*
X123463290Y-62814137D01*
X123463290Y-62814137D02*
X123522814Y-62695089D01*
X123522814Y-62695089D02*
X123641861Y-62635565D01*
X123641861Y-62635565D02*
X124296623Y-62635565D01*
X123641861Y-62635565D02*
X123522814Y-62576041D01*
X123522814Y-62576041D02*
X123463290Y-62456994D01*
X123463290Y-62456994D02*
X123463290Y-62278422D01*
X123463290Y-62278422D02*
X123522814Y-62159375D01*
X123522814Y-62159375D02*
X123641861Y-62099851D01*
X123641861Y-62099851D02*
X124296623Y-62099851D01*
X122987100Y-60611755D02*
X124594242Y-61683184D01*
X123701385Y-59421279D02*
X123641861Y-59480803D01*
X123641861Y-59480803D02*
X123582338Y-59599850D01*
X123582338Y-59599850D02*
X123582338Y-59718898D01*
X123582338Y-59718898D02*
X123641861Y-59837946D01*
X123641861Y-59837946D02*
X123701385Y-59897469D01*
X123701385Y-59897469D02*
X123820433Y-59956993D01*
X123820433Y-59956993D02*
X123939480Y-59956993D01*
X123939480Y-59956993D02*
X124058528Y-59897469D01*
X124058528Y-59897469D02*
X124118052Y-59837946D01*
X124118052Y-59837946D02*
X124177576Y-59718898D01*
X124177576Y-59718898D02*
X124177576Y-59599850D01*
X124177576Y-59599850D02*
X124118052Y-59480803D01*
X124118052Y-59480803D02*
X124058528Y-59421279D01*
X123582338Y-59421279D02*
X124058528Y-59421279D01*
X124058528Y-59421279D02*
X124118052Y-59361755D01*
X124118052Y-59361755D02*
X124118052Y-59302231D01*
X124118052Y-59302231D02*
X124058528Y-59183184D01*
X124058528Y-59183184D02*
X123939480Y-59123660D01*
X123939480Y-59123660D02*
X123641861Y-59123660D01*
X123641861Y-59123660D02*
X123463290Y-59242708D01*
X123463290Y-59242708D02*
X123344242Y-59421279D01*
X123344242Y-59421279D02*
X123284719Y-59659374D01*
X123284719Y-59659374D02*
X123344242Y-59897469D01*
X123344242Y-59897469D02*
X123463290Y-60076041D01*
X123463290Y-60076041D02*
X123641861Y-60195088D01*
X123641861Y-60195088D02*
X123879957Y-60254612D01*
X123879957Y-60254612D02*
X124118052Y-60195088D01*
X124118052Y-60195088D02*
X124296623Y-60076041D01*
X124296623Y-60076041D02*
X124415671Y-59897469D01*
X124415671Y-59897469D02*
X124475195Y-59659374D01*
X124475195Y-59659374D02*
X124415671Y-59421279D01*
X124415671Y-59421279D02*
X124296623Y-59242708D01*
X124237100Y-58647469D02*
X124296623Y-58528422D01*
X124296623Y-58528422D02*
X124296623Y-58290326D01*
X124296623Y-58290326D02*
X124237100Y-58171279D01*
X124237100Y-58171279D02*
X124118052Y-58111755D01*
X124118052Y-58111755D02*
X124058528Y-58111755D01*
X124058528Y-58111755D02*
X123939480Y-58171279D01*
X123939480Y-58171279D02*
X123879957Y-58290326D01*
X123879957Y-58290326D02*
X123879957Y-58468898D01*
X123879957Y-58468898D02*
X123820433Y-58587945D01*
X123820433Y-58587945D02*
X123701385Y-58647469D01*
X123701385Y-58647469D02*
X123641861Y-58647469D01*
X123641861Y-58647469D02*
X123522814Y-58587945D01*
X123522814Y-58587945D02*
X123463290Y-58468898D01*
X123463290Y-58468898D02*
X123463290Y-58290326D01*
X123463290Y-58290326D02*
X123522814Y-58171279D01*
X123463290Y-57576040D02*
X124713290Y-57576040D01*
X123522814Y-57576040D02*
X123463290Y-57456993D01*
X123463290Y-57456993D02*
X123463290Y-57218898D01*
X123463290Y-57218898D02*
X123522814Y-57099850D01*
X123522814Y-57099850D02*
X123582338Y-57040326D01*
X123582338Y-57040326D02*
X123701385Y-56980802D01*
X123701385Y-56980802D02*
X124058528Y-56980802D01*
X124058528Y-56980802D02*
X124177576Y-57040326D01*
X124177576Y-57040326D02*
X124237100Y-57099850D01*
X124237100Y-57099850D02*
X124296623Y-57218898D01*
X124296623Y-57218898D02*
X124296623Y-57456993D01*
X124296623Y-57456993D02*
X124237100Y-57576040D01*
X124296623Y-55909374D02*
X123641861Y-55909374D01*
X123641861Y-55909374D02*
X123522814Y-55968898D01*
X123522814Y-55968898D02*
X123463290Y-56087946D01*
X123463290Y-56087946D02*
X123463290Y-56326041D01*
X123463290Y-56326041D02*
X123522814Y-56445088D01*
X124237100Y-55909374D02*
X124296623Y-56028422D01*
X124296623Y-56028422D02*
X124296623Y-56326041D01*
X124296623Y-56326041D02*
X124237100Y-56445088D01*
X124237100Y-56445088D02*
X124118052Y-56504612D01*
X124118052Y-56504612D02*
X123999004Y-56504612D01*
X123999004Y-56504612D02*
X123879957Y-56445088D01*
X123879957Y-56445088D02*
X123820433Y-56326041D01*
X123820433Y-56326041D02*
X123820433Y-56028422D01*
X123820433Y-56028422D02*
X123760909Y-55909374D01*
X124237100Y-54778422D02*
X124296623Y-54897470D01*
X124296623Y-54897470D02*
X124296623Y-55135565D01*
X124296623Y-55135565D02*
X124237100Y-55254613D01*
X124237100Y-55254613D02*
X124177576Y-55314136D01*
X124177576Y-55314136D02*
X124058528Y-55373660D01*
X124058528Y-55373660D02*
X123701385Y-55373660D01*
X123701385Y-55373660D02*
X123582338Y-55314136D01*
X123582338Y-55314136D02*
X123522814Y-55254613D01*
X123522814Y-55254613D02*
X123463290Y-55135565D01*
X123463290Y-55135565D02*
X123463290Y-54897470D01*
X123463290Y-54897470D02*
X123522814Y-54778422D01*
X124237100Y-53766517D02*
X124296623Y-53885565D01*
X124296623Y-53885565D02*
X124296623Y-54123660D01*
X124296623Y-54123660D02*
X124237100Y-54242707D01*
X124237100Y-54242707D02*
X124118052Y-54302231D01*
X124118052Y-54302231D02*
X123641861Y-54302231D01*
X123641861Y-54302231D02*
X123522814Y-54242707D01*
X123522814Y-54242707D02*
X123463290Y-54123660D01*
X123463290Y-54123660D02*
X123463290Y-53885565D01*
X123463290Y-53885565D02*
X123522814Y-53766517D01*
X123522814Y-53766517D02*
X123641861Y-53706993D01*
X123641861Y-53706993D02*
X123760909Y-53706993D01*
X123760909Y-53706993D02*
X123879957Y-54302231D01*
X124177576Y-53171278D02*
X124237100Y-53111755D01*
X124237100Y-53111755D02*
X124296623Y-53171278D01*
X124296623Y-53171278D02*
X124237100Y-53230802D01*
X124237100Y-53230802D02*
X124177576Y-53171278D01*
X124177576Y-53171278D02*
X124296623Y-53171278D01*
X124237100Y-52040326D02*
X124296623Y-52159374D01*
X124296623Y-52159374D02*
X124296623Y-52397469D01*
X124296623Y-52397469D02*
X124237100Y-52516517D01*
X124237100Y-52516517D02*
X124177576Y-52576040D01*
X124177576Y-52576040D02*
X124058528Y-52635564D01*
X124058528Y-52635564D02*
X123701385Y-52635564D01*
X123701385Y-52635564D02*
X123582338Y-52576040D01*
X123582338Y-52576040D02*
X123522814Y-52516517D01*
X123522814Y-52516517D02*
X123463290Y-52397469D01*
X123463290Y-52397469D02*
X123463290Y-52159374D01*
X123463290Y-52159374D02*
X123522814Y-52040326D01*
X124296623Y-50968897D02*
X123641861Y-50968897D01*
X123641861Y-50968897D02*
X123522814Y-51028421D01*
X123522814Y-51028421D02*
X123463290Y-51147469D01*
X123463290Y-51147469D02*
X123463290Y-51385564D01*
X123463290Y-51385564D02*
X123522814Y-51504611D01*
X124237100Y-50968897D02*
X124296623Y-51087945D01*
X124296623Y-51087945D02*
X124296623Y-51385564D01*
X124296623Y-51385564D02*
X124237100Y-51504611D01*
X124237100Y-51504611D02*
X124118052Y-51564135D01*
X124118052Y-51564135D02*
X123999004Y-51564135D01*
X123999004Y-51564135D02*
X123879957Y-51504611D01*
X123879957Y-51504611D02*
X123820433Y-51385564D01*
X123820433Y-51385564D02*
X123820433Y-51087945D01*
X123820433Y-51087945D02*
X123760909Y-50968897D01*
X123463290Y-50492707D02*
X124296623Y-50195088D01*
X124296623Y-50195088D02*
X123463290Y-49897469D01*
X124237100Y-48945088D02*
X124296623Y-49064136D01*
X124296623Y-49064136D02*
X124296623Y-49302231D01*
X124296623Y-49302231D02*
X124237100Y-49421278D01*
X124237100Y-49421278D02*
X124118052Y-49480802D01*
X124118052Y-49480802D02*
X123641861Y-49480802D01*
X123641861Y-49480802D02*
X123522814Y-49421278D01*
X123522814Y-49421278D02*
X123463290Y-49302231D01*
X123463290Y-49302231D02*
X123463290Y-49064136D01*
X123463290Y-49064136D02*
X123522814Y-48945088D01*
X123522814Y-48945088D02*
X123641861Y-48885564D01*
X123641861Y-48885564D02*
X123760909Y-48885564D01*
X123760909Y-48885564D02*
X123879957Y-49480802D01*
X124296623Y-48349849D02*
X123463290Y-48349849D01*
X123582338Y-48349849D02*
X123522814Y-48290326D01*
X123522814Y-48290326D02*
X123463290Y-48171278D01*
X123463290Y-48171278D02*
X123463290Y-47992707D01*
X123463290Y-47992707D02*
X123522814Y-47873659D01*
X123522814Y-47873659D02*
X123641861Y-47814135D01*
X123641861Y-47814135D02*
X124296623Y-47814135D01*
X123641861Y-47814135D02*
X123522814Y-47754611D01*
X123522814Y-47754611D02*
X123463290Y-47635564D01*
X123463290Y-47635564D02*
X123463290Y-47456992D01*
X123463290Y-47456992D02*
X123522814Y-47337945D01*
X123522814Y-47337945D02*
X123641861Y-47278421D01*
X123641861Y-47278421D02*
X124296623Y-47278421D01*
X124296623Y-46147468D02*
X123641861Y-46147468D01*
X123641861Y-46147468D02*
X123522814Y-46206992D01*
X123522814Y-46206992D02*
X123463290Y-46326040D01*
X123463290Y-46326040D02*
X123463290Y-46564135D01*
X123463290Y-46564135D02*
X123522814Y-46683182D01*
X124237100Y-46147468D02*
X124296623Y-46266516D01*
X124296623Y-46266516D02*
X124296623Y-46564135D01*
X124296623Y-46564135D02*
X124237100Y-46683182D01*
X124237100Y-46683182D02*
X124118052Y-46742706D01*
X124118052Y-46742706D02*
X123999004Y-46742706D01*
X123999004Y-46742706D02*
X123879957Y-46683182D01*
X123879957Y-46683182D02*
X123820433Y-46564135D01*
X123820433Y-46564135D02*
X123820433Y-46266516D01*
X123820433Y-46266516D02*
X123760909Y-46147468D01*
X123463290Y-45552230D02*
X124296623Y-45552230D01*
X123582338Y-45552230D02*
X123522814Y-45492707D01*
X123522814Y-45492707D02*
X123463290Y-45373659D01*
X123463290Y-45373659D02*
X123463290Y-45195088D01*
X123463290Y-45195088D02*
X123522814Y-45076040D01*
X123522814Y-45076040D02*
X123641861Y-45016516D01*
X123641861Y-45016516D02*
X124296623Y-45016516D01*
D12*
X37527368Y-120935114D02*
X37813082Y-120935114D01*
X37313082Y-120292257D02*
X37455939Y-120220828D01*
X37455939Y-120220828D02*
X37813082Y-120220828D01*
X37813082Y-120220828D02*
X37955939Y-120292257D01*
X37955939Y-120292257D02*
X38027368Y-120363685D01*
X38027368Y-120363685D02*
X38098796Y-120506542D01*
X38098796Y-120506542D02*
X38098796Y-120649400D01*
X38098796Y-120649400D02*
X38027368Y-120792257D01*
X38027368Y-120792257D02*
X37955939Y-120863685D01*
X37955939Y-120863685D02*
X37813082Y-120935114D01*
X37813082Y-120935114D02*
X38027368Y-121006542D01*
X38027368Y-121006542D02*
X38098796Y-121077971D01*
X38098796Y-121077971D02*
X38170225Y-121220828D01*
X38170225Y-121220828D02*
X38170225Y-121435114D01*
X38170225Y-121435114D02*
X38098796Y-121577971D01*
X38098796Y-121577971D02*
X38027368Y-121649400D01*
X38027368Y-121649400D02*
X37884510Y-121720828D01*
X37884510Y-121720828D02*
X37455939Y-121720828D01*
X37455939Y-121720828D02*
X37313082Y-121649400D01*
X38813081Y-120720828D02*
X38813081Y-122220828D01*
X38813081Y-120792257D02*
X38955939Y-120720828D01*
X38955939Y-120720828D02*
X39241653Y-120720828D01*
X39241653Y-120720828D02*
X39384510Y-120792257D01*
X39384510Y-120792257D02*
X39455939Y-120863685D01*
X39455939Y-120863685D02*
X39527367Y-121006542D01*
X39527367Y-121006542D02*
X39527367Y-121435114D01*
X39527367Y-121435114D02*
X39455939Y-121577971D01*
X39455939Y-121577971D02*
X39384510Y-121649400D01*
X39384510Y-121649400D02*
X39241653Y-121720828D01*
X39241653Y-121720828D02*
X38955939Y-121720828D01*
X38955939Y-121720828D02*
X38813081Y-121649400D01*
X40384510Y-121720828D02*
X40241653Y-121649400D01*
X40241653Y-121649400D02*
X40170224Y-121577971D01*
X40170224Y-121577971D02*
X40098796Y-121435114D01*
X40098796Y-121435114D02*
X40098796Y-121006542D01*
X40098796Y-121006542D02*
X40170224Y-120863685D01*
X40170224Y-120863685D02*
X40241653Y-120792257D01*
X40241653Y-120792257D02*
X40384510Y-120720828D01*
X40384510Y-120720828D02*
X40598796Y-120720828D01*
X40598796Y-120720828D02*
X40741653Y-120792257D01*
X40741653Y-120792257D02*
X40813082Y-120863685D01*
X40813082Y-120863685D02*
X40884510Y-121006542D01*
X40884510Y-121006542D02*
X40884510Y-121435114D01*
X40884510Y-121435114D02*
X40813082Y-121577971D01*
X40813082Y-121577971D02*
X40741653Y-121649400D01*
X40741653Y-121649400D02*
X40598796Y-121720828D01*
X40598796Y-121720828D02*
X40384510Y-121720828D01*
X42241653Y-120149400D02*
X42170225Y-120220828D01*
X42170225Y-120220828D02*
X42027367Y-120292257D01*
X42027367Y-120292257D02*
X41741653Y-120292257D01*
X41741653Y-120292257D02*
X41598796Y-120363685D01*
X41598796Y-120363685D02*
X41527367Y-120435114D01*
X41527367Y-120435114D02*
X41455939Y-120577971D01*
X41455939Y-120577971D02*
X41455939Y-121435114D01*
X41455939Y-121435114D02*
X41527367Y-121577971D01*
X41527367Y-121577971D02*
X41598796Y-121649400D01*
X41598796Y-121649400D02*
X41741653Y-121720828D01*
X41741653Y-121720828D02*
X41955939Y-121720828D01*
X41955939Y-121720828D02*
X42098796Y-121649400D01*
X42098796Y-121649400D02*
X42170225Y-121577971D01*
X42170225Y-121577971D02*
X42241653Y-121435114D01*
X42241653Y-121435114D02*
X42241653Y-121006542D01*
X42241653Y-121006542D02*
X42170225Y-120863685D01*
X42170225Y-120863685D02*
X42098796Y-120792257D01*
X42098796Y-120792257D02*
X41955939Y-120720828D01*
X41955939Y-120720828D02*
X41670225Y-120720828D01*
X41670225Y-120720828D02*
X41527367Y-120792257D01*
X41527367Y-120792257D02*
X41455939Y-120863685D01*
X43455939Y-121720828D02*
X43455939Y-120720828D01*
X43455939Y-120720828D02*
X43241653Y-120720828D01*
X43241653Y-120720828D02*
X43098796Y-120792257D01*
X43098796Y-120792257D02*
X43027368Y-120935114D01*
X43027368Y-120935114D02*
X42955939Y-121506542D01*
X42955939Y-121506542D02*
X42884510Y-121649400D01*
X42884510Y-121649400D02*
X42741653Y-121720828D01*
X44741653Y-121649400D02*
X44598796Y-121720828D01*
X44598796Y-121720828D02*
X44313082Y-121720828D01*
X44313082Y-121720828D02*
X44170224Y-121649400D01*
X44170224Y-121649400D02*
X44098796Y-121506542D01*
X44098796Y-121506542D02*
X44098796Y-120935114D01*
X44098796Y-120935114D02*
X44170224Y-120792257D01*
X44170224Y-120792257D02*
X44313082Y-120720828D01*
X44313082Y-120720828D02*
X44598796Y-120720828D01*
X44598796Y-120720828D02*
X44741653Y-120792257D01*
X44741653Y-120792257D02*
X44813082Y-120935114D01*
X44813082Y-120935114D02*
X44813082Y-121077971D01*
X44813082Y-121077971D02*
X44098796Y-121220828D01*
X45455938Y-121220828D02*
X46098796Y-121220828D01*
X45455938Y-120720828D02*
X45455938Y-121720828D01*
X46098796Y-120720828D02*
X46098796Y-121720828D01*
X47027367Y-121720828D02*
X46884510Y-121649400D01*
X46884510Y-121649400D02*
X46813081Y-121577971D01*
X46813081Y-121577971D02*
X46741653Y-121435114D01*
X46741653Y-121435114D02*
X46741653Y-121006542D01*
X46741653Y-121006542D02*
X46813081Y-120863685D01*
X46813081Y-120863685D02*
X46884510Y-120792257D01*
X46884510Y-120792257D02*
X47027367Y-120720828D01*
X47027367Y-120720828D02*
X47241653Y-120720828D01*
X47241653Y-120720828D02*
X47384510Y-120792257D01*
X47384510Y-120792257D02*
X47455939Y-120863685D01*
X47455939Y-120863685D02*
X47527367Y-121006542D01*
X47527367Y-121006542D02*
X47527367Y-121435114D01*
X47527367Y-121435114D02*
X47455939Y-121577971D01*
X47455939Y-121577971D02*
X47384510Y-121649400D01*
X47384510Y-121649400D02*
X47241653Y-121720828D01*
X47241653Y-121720828D02*
X47027367Y-121720828D01*
X49170224Y-120720828D02*
X49527367Y-121720828D01*
X49884510Y-120720828D02*
X49527367Y-121720828D01*
X49527367Y-121720828D02*
X49384510Y-122077971D01*
X49384510Y-122077971D02*
X49313081Y-122149400D01*
X49313081Y-122149400D02*
X49170224Y-122220828D01*
X52455938Y-121720828D02*
X52455938Y-120220828D01*
X52455938Y-120220828D02*
X52241653Y-120220828D01*
X52241653Y-120220828D02*
X52027367Y-120292257D01*
X52027367Y-120292257D02*
X51884510Y-120435114D01*
X51884510Y-120435114D02*
X51813081Y-120649400D01*
X51813081Y-120649400D02*
X51670224Y-121506542D01*
X51670224Y-121506542D02*
X51598795Y-121649400D01*
X51598795Y-121649400D02*
X51455938Y-121720828D01*
X51455938Y-121720828D02*
X51384510Y-121720828D01*
X53170224Y-120720828D02*
X53170224Y-121720828D01*
X53170224Y-121720828D02*
X53527367Y-121720828D01*
X53527367Y-121720828D02*
X53670224Y-121649400D01*
X53670224Y-121649400D02*
X53741653Y-121506542D01*
X53741653Y-121506542D02*
X53741653Y-121292257D01*
X53741653Y-121292257D02*
X53670224Y-121149400D01*
X53670224Y-121149400D02*
X53527367Y-121077971D01*
X53527367Y-121077971D02*
X53170224Y-121077971D01*
X54741653Y-121220828D02*
X54955939Y-121292257D01*
X54955939Y-121292257D02*
X55027368Y-121435114D01*
X55027368Y-121435114D02*
X55027368Y-121506542D01*
X55027368Y-121506542D02*
X54955939Y-121649400D01*
X54955939Y-121649400D02*
X54813082Y-121720828D01*
X54813082Y-121720828D02*
X54384510Y-121720828D01*
X54384510Y-121720828D02*
X54384510Y-120720828D01*
X54384510Y-120720828D02*
X54741653Y-120720828D01*
X54741653Y-120720828D02*
X54884510Y-120792257D01*
X54884510Y-120792257D02*
X54955939Y-120935114D01*
X54955939Y-120935114D02*
X54955939Y-121006542D01*
X54955939Y-121006542D02*
X54884510Y-121149400D01*
X54884510Y-121149400D02*
X54741653Y-121220828D01*
X54741653Y-121220828D02*
X54384510Y-121220828D01*
X55884510Y-121720828D02*
X55741653Y-121649400D01*
X55741653Y-121649400D02*
X55670224Y-121577971D01*
X55670224Y-121577971D02*
X55598796Y-121435114D01*
X55598796Y-121435114D02*
X55598796Y-121006542D01*
X55598796Y-121006542D02*
X55670224Y-120863685D01*
X55670224Y-120863685D02*
X55741653Y-120792257D01*
X55741653Y-120792257D02*
X55884510Y-120720828D01*
X55884510Y-120720828D02*
X56098796Y-120720828D01*
X56098796Y-120720828D02*
X56241653Y-120792257D01*
X56241653Y-120792257D02*
X56313082Y-120863685D01*
X56313082Y-120863685D02*
X56384510Y-121006542D01*
X56384510Y-121006542D02*
X56384510Y-121435114D01*
X56384510Y-121435114D02*
X56313082Y-121577971D01*
X56313082Y-121577971D02*
X56241653Y-121649400D01*
X56241653Y-121649400D02*
X56098796Y-121720828D01*
X56098796Y-121720828D02*
X55884510Y-121720828D01*
X57384510Y-121220828D02*
X57598796Y-121292257D01*
X57598796Y-121292257D02*
X57670225Y-121435114D01*
X57670225Y-121435114D02*
X57670225Y-121506542D01*
X57670225Y-121506542D02*
X57598796Y-121649400D01*
X57598796Y-121649400D02*
X57455939Y-121720828D01*
X57455939Y-121720828D02*
X57027367Y-121720828D01*
X57027367Y-121720828D02*
X57027367Y-120720828D01*
X57027367Y-120720828D02*
X57384510Y-120720828D01*
X57384510Y-120720828D02*
X57527367Y-120792257D01*
X57527367Y-120792257D02*
X57598796Y-120935114D01*
X57598796Y-120935114D02*
X57598796Y-121006542D01*
X57598796Y-121006542D02*
X57527367Y-121149400D01*
X57527367Y-121149400D02*
X57384510Y-121220828D01*
X57384510Y-121220828D02*
X57027367Y-121220828D01*
X58313081Y-121720828D02*
X58313081Y-120720828D01*
X58313081Y-120220828D02*
X58241653Y-120292257D01*
X58241653Y-120292257D02*
X58313081Y-120363685D01*
X58313081Y-120363685D02*
X58384510Y-120292257D01*
X58384510Y-120292257D02*
X58313081Y-120220828D01*
X58313081Y-120220828D02*
X58313081Y-120363685D01*
D13*
X33474819Y-96051666D02*
X32998628Y-96384999D01*
X33474819Y-96623094D02*
X32474819Y-96623094D01*
X32474819Y-96623094D02*
X32474819Y-96242142D01*
X32474819Y-96242142D02*
X32522438Y-96146904D01*
X32522438Y-96146904D02*
X32570057Y-96099285D01*
X32570057Y-96099285D02*
X32665295Y-96051666D01*
X32665295Y-96051666D02*
X32808152Y-96051666D01*
X32808152Y-96051666D02*
X32903390Y-96099285D01*
X32903390Y-96099285D02*
X32951009Y-96146904D01*
X32951009Y-96146904D02*
X32998628Y-96242142D01*
X32998628Y-96242142D02*
X32998628Y-96623094D01*
X33474819Y-95099285D02*
X33474819Y-95670713D01*
X33474819Y-95384999D02*
X32474819Y-95384999D01*
X32474819Y-95384999D02*
X32617676Y-95480237D01*
X32617676Y-95480237D02*
X32712914Y-95575475D01*
X32712914Y-95575475D02*
X32760533Y-95670713D01*
X32474819Y-92336904D02*
X32474819Y-92813094D01*
X32474819Y-92813094D02*
X32951009Y-92860713D01*
X32951009Y-92860713D02*
X32903390Y-92813094D01*
X32903390Y-92813094D02*
X32855771Y-92717856D01*
X32855771Y-92717856D02*
X32855771Y-92479761D01*
X32855771Y-92479761D02*
X32903390Y-92384523D01*
X32903390Y-92384523D02*
X32951009Y-92336904D01*
X32951009Y-92336904D02*
X33046247Y-92289285D01*
X33046247Y-92289285D02*
X33284342Y-92289285D01*
X33284342Y-92289285D02*
X33379580Y-92336904D01*
X33379580Y-92336904D02*
X33427200Y-92384523D01*
X33427200Y-92384523D02*
X33474819Y-92479761D01*
X33474819Y-92479761D02*
X33474819Y-92717856D01*
X33474819Y-92717856D02*
X33427200Y-92813094D01*
X33427200Y-92813094D02*
X33379580Y-92860713D01*
X33474819Y-91860713D02*
X32474819Y-91860713D01*
X33474819Y-91289285D02*
X32903390Y-91717856D01*
X32474819Y-91289285D02*
X33046247Y-91860713D01*
X87463333Y-35919580D02*
X87415714Y-35967200D01*
X87415714Y-35967200D02*
X87272857Y-36014819D01*
X87272857Y-36014819D02*
X87177619Y-36014819D01*
X87177619Y-36014819D02*
X87034762Y-35967200D01*
X87034762Y-35967200D02*
X86939524Y-35871961D01*
X86939524Y-35871961D02*
X86891905Y-35776723D01*
X86891905Y-35776723D02*
X86844286Y-35586247D01*
X86844286Y-35586247D02*
X86844286Y-35443390D01*
X86844286Y-35443390D02*
X86891905Y-35252914D01*
X86891905Y-35252914D02*
X86939524Y-35157676D01*
X86939524Y-35157676D02*
X87034762Y-35062438D01*
X87034762Y-35062438D02*
X87177619Y-35014819D01*
X87177619Y-35014819D02*
X87272857Y-35014819D01*
X87272857Y-35014819D02*
X87415714Y-35062438D01*
X87415714Y-35062438D02*
X87463333Y-35110057D01*
X87796667Y-35014819D02*
X88415714Y-35014819D01*
X88415714Y-35014819D02*
X88082381Y-35395771D01*
X88082381Y-35395771D02*
X88225238Y-35395771D01*
X88225238Y-35395771D02*
X88320476Y-35443390D01*
X88320476Y-35443390D02*
X88368095Y-35491009D01*
X88368095Y-35491009D02*
X88415714Y-35586247D01*
X88415714Y-35586247D02*
X88415714Y-35824342D01*
X88415714Y-35824342D02*
X88368095Y-35919580D01*
X88368095Y-35919580D02*
X88320476Y-35967200D01*
X88320476Y-35967200D02*
X88225238Y-36014819D01*
X88225238Y-36014819D02*
X87939524Y-36014819D01*
X87939524Y-36014819D02*
X87844286Y-35967200D01*
X87844286Y-35967200D02*
X87796667Y-35919580D01*
X94877143Y-35014819D02*
X94972381Y-35014819D01*
X94972381Y-35014819D02*
X95067619Y-35062438D01*
X95067619Y-35062438D02*
X95115238Y-35110057D01*
X95115238Y-35110057D02*
X95162857Y-35205295D01*
X95162857Y-35205295D02*
X95210476Y-35395771D01*
X95210476Y-35395771D02*
X95210476Y-35633866D01*
X95210476Y-35633866D02*
X95162857Y-35824342D01*
X95162857Y-35824342D02*
X95115238Y-35919580D01*
X95115238Y-35919580D02*
X95067619Y-35967200D01*
X95067619Y-35967200D02*
X94972381Y-36014819D01*
X94972381Y-36014819D02*
X94877143Y-36014819D01*
X94877143Y-36014819D02*
X94781905Y-35967200D01*
X94781905Y-35967200D02*
X94734286Y-35919580D01*
X94734286Y-35919580D02*
X94686667Y-35824342D01*
X94686667Y-35824342D02*
X94639048Y-35633866D01*
X94639048Y-35633866D02*
X94639048Y-35395771D01*
X94639048Y-35395771D02*
X94686667Y-35205295D01*
X94686667Y-35205295D02*
X94734286Y-35110057D01*
X94734286Y-35110057D02*
X94781905Y-35062438D01*
X94781905Y-35062438D02*
X94877143Y-35014819D01*
X95639048Y-35919580D02*
X95686667Y-35967200D01*
X95686667Y-35967200D02*
X95639048Y-36014819D01*
X95639048Y-36014819D02*
X95591429Y-35967200D01*
X95591429Y-35967200D02*
X95639048Y-35919580D01*
X95639048Y-35919580D02*
X95639048Y-36014819D01*
X96639047Y-36014819D02*
X96067619Y-36014819D01*
X96353333Y-36014819D02*
X96353333Y-35014819D01*
X96353333Y-35014819D02*
X96258095Y-35157676D01*
X96258095Y-35157676D02*
X96162857Y-35252914D01*
X96162857Y-35252914D02*
X96067619Y-35300533D01*
X97496190Y-35348152D02*
X97496190Y-36014819D01*
X97067619Y-35348152D02*
X97067619Y-35871961D01*
X97067619Y-35871961D02*
X97115238Y-35967200D01*
X97115238Y-35967200D02*
X97210476Y-36014819D01*
X97210476Y-36014819D02*
X97353333Y-36014819D01*
X97353333Y-36014819D02*
X97448571Y-35967200D01*
X97448571Y-35967200D02*
X97496190Y-35919580D01*
X98305714Y-35491009D02*
X97972381Y-35491009D01*
X97972381Y-36014819D02*
X97972381Y-35014819D01*
X97972381Y-35014819D02*
X98448571Y-35014819D01*
X98417142Y-93164819D02*
X98083809Y-92688628D01*
X97845714Y-93164819D02*
X97845714Y-92164819D01*
X97845714Y-92164819D02*
X98226666Y-92164819D01*
X98226666Y-92164819D02*
X98321904Y-92212438D01*
X98321904Y-92212438D02*
X98369523Y-92260057D01*
X98369523Y-92260057D02*
X98417142Y-92355295D01*
X98417142Y-92355295D02*
X98417142Y-92498152D01*
X98417142Y-92498152D02*
X98369523Y-92593390D01*
X98369523Y-92593390D02*
X98321904Y-92641009D01*
X98321904Y-92641009D02*
X98226666Y-92688628D01*
X98226666Y-92688628D02*
X97845714Y-92688628D01*
X99369523Y-93164819D02*
X98798095Y-93164819D01*
X99083809Y-93164819D02*
X99083809Y-92164819D01*
X99083809Y-92164819D02*
X98988571Y-92307676D01*
X98988571Y-92307676D02*
X98893333Y-92402914D01*
X98893333Y-92402914D02*
X98798095Y-92450533D01*
X99988571Y-92164819D02*
X100083809Y-92164819D01*
X100083809Y-92164819D02*
X100179047Y-92212438D01*
X100179047Y-92212438D02*
X100226666Y-92260057D01*
X100226666Y-92260057D02*
X100274285Y-92355295D01*
X100274285Y-92355295D02*
X100321904Y-92545771D01*
X100321904Y-92545771D02*
X100321904Y-92783866D01*
X100321904Y-92783866D02*
X100274285Y-92974342D01*
X100274285Y-92974342D02*
X100226666Y-93069580D01*
X100226666Y-93069580D02*
X100179047Y-93117200D01*
X100179047Y-93117200D02*
X100083809Y-93164819D01*
X100083809Y-93164819D02*
X99988571Y-93164819D01*
X99988571Y-93164819D02*
X99893333Y-93117200D01*
X99893333Y-93117200D02*
X99845714Y-93069580D01*
X99845714Y-93069580D02*
X99798095Y-92974342D01*
X99798095Y-92974342D02*
X99750476Y-92783866D01*
X99750476Y-92783866D02*
X99750476Y-92545771D01*
X99750476Y-92545771D02*
X99798095Y-92355295D01*
X99798095Y-92355295D02*
X99845714Y-92260057D01*
X99845714Y-92260057D02*
X99893333Y-92212438D01*
X99893333Y-92212438D02*
X99988571Y-92164819D01*
X106418095Y-92164819D02*
X105941905Y-92164819D01*
X105941905Y-92164819D02*
X105894286Y-92641009D01*
X105894286Y-92641009D02*
X105941905Y-92593390D01*
X105941905Y-92593390D02*
X106037143Y-92545771D01*
X106037143Y-92545771D02*
X106275238Y-92545771D01*
X106275238Y-92545771D02*
X106370476Y-92593390D01*
X106370476Y-92593390D02*
X106418095Y-92641009D01*
X106418095Y-92641009D02*
X106465714Y-92736247D01*
X106465714Y-92736247D02*
X106465714Y-92974342D01*
X106465714Y-92974342D02*
X106418095Y-93069580D01*
X106418095Y-93069580D02*
X106370476Y-93117200D01*
X106370476Y-93117200D02*
X106275238Y-93164819D01*
X106275238Y-93164819D02*
X106037143Y-93164819D01*
X106037143Y-93164819D02*
X105941905Y-93117200D01*
X105941905Y-93117200D02*
X105894286Y-93069580D01*
X106894286Y-93164819D02*
X106894286Y-92164819D01*
X107465714Y-93164819D02*
X107037143Y-92593390D01*
X107465714Y-92164819D02*
X106894286Y-92736247D01*
X118618095Y-83024819D02*
X118618095Y-83834342D01*
X118618095Y-83834342D02*
X118665714Y-83929580D01*
X118665714Y-83929580D02*
X118713333Y-83977200D01*
X118713333Y-83977200D02*
X118808571Y-84024819D01*
X118808571Y-84024819D02*
X118999047Y-84024819D01*
X118999047Y-84024819D02*
X119094285Y-83977200D01*
X119094285Y-83977200D02*
X119141904Y-83929580D01*
X119141904Y-83929580D02*
X119189523Y-83834342D01*
X119189523Y-83834342D02*
X119189523Y-83024819D01*
X120094285Y-83358152D02*
X120094285Y-84024819D01*
X119856190Y-82977200D02*
X119618095Y-83691485D01*
X119618095Y-83691485D02*
X120237142Y-83691485D01*
X116066667Y-108897200D02*
X116209524Y-108944819D01*
X116209524Y-108944819D02*
X116447619Y-108944819D01*
X116447619Y-108944819D02*
X116542857Y-108897200D01*
X116542857Y-108897200D02*
X116590476Y-108849580D01*
X116590476Y-108849580D02*
X116638095Y-108754342D01*
X116638095Y-108754342D02*
X116638095Y-108659104D01*
X116638095Y-108659104D02*
X116590476Y-108563866D01*
X116590476Y-108563866D02*
X116542857Y-108516247D01*
X116542857Y-108516247D02*
X116447619Y-108468628D01*
X116447619Y-108468628D02*
X116257143Y-108421009D01*
X116257143Y-108421009D02*
X116161905Y-108373390D01*
X116161905Y-108373390D02*
X116114286Y-108325771D01*
X116114286Y-108325771D02*
X116066667Y-108230533D01*
X116066667Y-108230533D02*
X116066667Y-108135295D01*
X116066667Y-108135295D02*
X116114286Y-108040057D01*
X116114286Y-108040057D02*
X116161905Y-107992438D01*
X116161905Y-107992438D02*
X116257143Y-107944819D01*
X116257143Y-107944819D02*
X116495238Y-107944819D01*
X116495238Y-107944819D02*
X116638095Y-107992438D01*
X116971429Y-107944819D02*
X117209524Y-108944819D01*
X117209524Y-108944819D02*
X117400000Y-108230533D01*
X117400000Y-108230533D02*
X117590476Y-108944819D01*
X117590476Y-108944819D02*
X117828572Y-107944819D01*
X118114286Y-107944819D02*
X118780952Y-107944819D01*
X118780952Y-107944819D02*
X118352381Y-108944819D01*
X117971428Y-117121009D02*
X118114285Y-117168628D01*
X118114285Y-117168628D02*
X118161904Y-117216247D01*
X118161904Y-117216247D02*
X118209523Y-117311485D01*
X118209523Y-117311485D02*
X118209523Y-117454342D01*
X118209523Y-117454342D02*
X118161904Y-117549580D01*
X118161904Y-117549580D02*
X118114285Y-117597200D01*
X118114285Y-117597200D02*
X118019047Y-117644819D01*
X118019047Y-117644819D02*
X117638095Y-117644819D01*
X117638095Y-117644819D02*
X117638095Y-116644819D01*
X117638095Y-116644819D02*
X117971428Y-116644819D01*
X117971428Y-116644819D02*
X118066666Y-116692438D01*
X118066666Y-116692438D02*
X118114285Y-116740057D01*
X118114285Y-116740057D02*
X118161904Y-116835295D01*
X118161904Y-116835295D02*
X118161904Y-116930533D01*
X118161904Y-116930533D02*
X118114285Y-117025771D01*
X118114285Y-117025771D02*
X118066666Y-117073390D01*
X118066666Y-117073390D02*
X117971428Y-117121009D01*
X117971428Y-117121009D02*
X117638095Y-117121009D01*
X85598095Y-24854819D02*
X85598095Y-25664342D01*
X85598095Y-25664342D02*
X85645714Y-25759580D01*
X85645714Y-25759580D02*
X85693333Y-25807200D01*
X85693333Y-25807200D02*
X85788571Y-25854819D01*
X85788571Y-25854819D02*
X85979047Y-25854819D01*
X85979047Y-25854819D02*
X86074285Y-25807200D01*
X86074285Y-25807200D02*
X86121904Y-25759580D01*
X86121904Y-25759580D02*
X86169523Y-25664342D01*
X86169523Y-25664342D02*
X86169523Y-24854819D01*
X86550476Y-24854819D02*
X87217142Y-24854819D01*
X87217142Y-24854819D02*
X86788571Y-25854819D01*
X91114761Y-29624819D02*
X90638571Y-29624819D01*
X90638571Y-29624819D02*
X90638571Y-28624819D01*
X91352857Y-28624819D02*
X92019523Y-28624819D01*
X92019523Y-28624819D02*
X91590952Y-29624819D01*
X92543333Y-29053390D02*
X92448095Y-29005771D01*
X92448095Y-29005771D02*
X92400476Y-28958152D01*
X92400476Y-28958152D02*
X92352857Y-28862914D01*
X92352857Y-28862914D02*
X92352857Y-28815295D01*
X92352857Y-28815295D02*
X92400476Y-28720057D01*
X92400476Y-28720057D02*
X92448095Y-28672438D01*
X92448095Y-28672438D02*
X92543333Y-28624819D01*
X92543333Y-28624819D02*
X92733809Y-28624819D01*
X92733809Y-28624819D02*
X92829047Y-28672438D01*
X92829047Y-28672438D02*
X92876666Y-28720057D01*
X92876666Y-28720057D02*
X92924285Y-28815295D01*
X92924285Y-28815295D02*
X92924285Y-28862914D01*
X92924285Y-28862914D02*
X92876666Y-28958152D01*
X92876666Y-28958152D02*
X92829047Y-29005771D01*
X92829047Y-29005771D02*
X92733809Y-29053390D01*
X92733809Y-29053390D02*
X92543333Y-29053390D01*
X92543333Y-29053390D02*
X92448095Y-29101009D01*
X92448095Y-29101009D02*
X92400476Y-29148628D01*
X92400476Y-29148628D02*
X92352857Y-29243866D01*
X92352857Y-29243866D02*
X92352857Y-29434342D01*
X92352857Y-29434342D02*
X92400476Y-29529580D01*
X92400476Y-29529580D02*
X92448095Y-29577200D01*
X92448095Y-29577200D02*
X92543333Y-29624819D01*
X92543333Y-29624819D02*
X92733809Y-29624819D01*
X92733809Y-29624819D02*
X92829047Y-29577200D01*
X92829047Y-29577200D02*
X92876666Y-29529580D01*
X92876666Y-29529580D02*
X92924285Y-29434342D01*
X92924285Y-29434342D02*
X92924285Y-29243866D01*
X92924285Y-29243866D02*
X92876666Y-29148628D01*
X92876666Y-29148628D02*
X92829047Y-29101009D01*
X92829047Y-29101009D02*
X92733809Y-29053390D01*
X93543333Y-28624819D02*
X93638571Y-28624819D01*
X93638571Y-28624819D02*
X93733809Y-28672438D01*
X93733809Y-28672438D02*
X93781428Y-28720057D01*
X93781428Y-28720057D02*
X93829047Y-28815295D01*
X93829047Y-28815295D02*
X93876666Y-29005771D01*
X93876666Y-29005771D02*
X93876666Y-29243866D01*
X93876666Y-29243866D02*
X93829047Y-29434342D01*
X93829047Y-29434342D02*
X93781428Y-29529580D01*
X93781428Y-29529580D02*
X93733809Y-29577200D01*
X93733809Y-29577200D02*
X93638571Y-29624819D01*
X93638571Y-29624819D02*
X93543333Y-29624819D01*
X93543333Y-29624819D02*
X93448095Y-29577200D01*
X93448095Y-29577200D02*
X93400476Y-29529580D01*
X93400476Y-29529580D02*
X93352857Y-29434342D01*
X93352857Y-29434342D02*
X93305238Y-29243866D01*
X93305238Y-29243866D02*
X93305238Y-29005771D01*
X93305238Y-29005771D02*
X93352857Y-28815295D01*
X93352857Y-28815295D02*
X93400476Y-28720057D01*
X93400476Y-28720057D02*
X93448095Y-28672438D01*
X93448095Y-28672438D02*
X93543333Y-28624819D01*
X94781428Y-28624819D02*
X94305238Y-28624819D01*
X94305238Y-28624819D02*
X94257619Y-29101009D01*
X94257619Y-29101009D02*
X94305238Y-29053390D01*
X94305238Y-29053390D02*
X94400476Y-29005771D01*
X94400476Y-29005771D02*
X94638571Y-29005771D01*
X94638571Y-29005771D02*
X94733809Y-29053390D01*
X94733809Y-29053390D02*
X94781428Y-29101009D01*
X94781428Y-29101009D02*
X94829047Y-29196247D01*
X94829047Y-29196247D02*
X94829047Y-29434342D01*
X94829047Y-29434342D02*
X94781428Y-29529580D01*
X94781428Y-29529580D02*
X94733809Y-29577200D01*
X94733809Y-29577200D02*
X94638571Y-29624819D01*
X94638571Y-29624819D02*
X94400476Y-29624819D01*
X94400476Y-29624819D02*
X94305238Y-29577200D01*
X94305238Y-29577200D02*
X94257619Y-29529580D01*
X51296667Y-106357200D02*
X51439524Y-106404819D01*
X51439524Y-106404819D02*
X51677619Y-106404819D01*
X51677619Y-106404819D02*
X51772857Y-106357200D01*
X51772857Y-106357200D02*
X51820476Y-106309580D01*
X51820476Y-106309580D02*
X51868095Y-106214342D01*
X51868095Y-106214342D02*
X51868095Y-106119104D01*
X51868095Y-106119104D02*
X51820476Y-106023866D01*
X51820476Y-106023866D02*
X51772857Y-105976247D01*
X51772857Y-105976247D02*
X51677619Y-105928628D01*
X51677619Y-105928628D02*
X51487143Y-105881009D01*
X51487143Y-105881009D02*
X51391905Y-105833390D01*
X51391905Y-105833390D02*
X51344286Y-105785771D01*
X51344286Y-105785771D02*
X51296667Y-105690533D01*
X51296667Y-105690533D02*
X51296667Y-105595295D01*
X51296667Y-105595295D02*
X51344286Y-105500057D01*
X51344286Y-105500057D02*
X51391905Y-105452438D01*
X51391905Y-105452438D02*
X51487143Y-105404819D01*
X51487143Y-105404819D02*
X51725238Y-105404819D01*
X51725238Y-105404819D02*
X51868095Y-105452438D01*
X52201429Y-105404819D02*
X52439524Y-106404819D01*
X52439524Y-106404819D02*
X52630000Y-105690533D01*
X52630000Y-105690533D02*
X52820476Y-106404819D01*
X52820476Y-106404819D02*
X53058572Y-105404819D01*
X53915714Y-105404819D02*
X53439524Y-105404819D01*
X53439524Y-105404819D02*
X53391905Y-105881009D01*
X53391905Y-105881009D02*
X53439524Y-105833390D01*
X53439524Y-105833390D02*
X53534762Y-105785771D01*
X53534762Y-105785771D02*
X53772857Y-105785771D01*
X53772857Y-105785771D02*
X53868095Y-105833390D01*
X53868095Y-105833390D02*
X53915714Y-105881009D01*
X53915714Y-105881009D02*
X53963333Y-105976247D01*
X53963333Y-105976247D02*
X53963333Y-106214342D01*
X53963333Y-106214342D02*
X53915714Y-106309580D01*
X53915714Y-106309580D02*
X53868095Y-106357200D01*
X53868095Y-106357200D02*
X53772857Y-106404819D01*
X53772857Y-106404819D02*
X53534762Y-106404819D01*
X53534762Y-106404819D02*
X53439524Y-106357200D01*
X53439524Y-106357200D02*
X53391905Y-106309580D01*
X117971667Y-94927200D02*
X118114524Y-94974819D01*
X118114524Y-94974819D02*
X118352619Y-94974819D01*
X118352619Y-94974819D02*
X118447857Y-94927200D01*
X118447857Y-94927200D02*
X118495476Y-94879580D01*
X118495476Y-94879580D02*
X118543095Y-94784342D01*
X118543095Y-94784342D02*
X118543095Y-94689104D01*
X118543095Y-94689104D02*
X118495476Y-94593866D01*
X118495476Y-94593866D02*
X118447857Y-94546247D01*
X118447857Y-94546247D02*
X118352619Y-94498628D01*
X118352619Y-94498628D02*
X118162143Y-94451009D01*
X118162143Y-94451009D02*
X118066905Y-94403390D01*
X118066905Y-94403390D02*
X118019286Y-94355771D01*
X118019286Y-94355771D02*
X117971667Y-94260533D01*
X117971667Y-94260533D02*
X117971667Y-94165295D01*
X117971667Y-94165295D02*
X118019286Y-94070057D01*
X118019286Y-94070057D02*
X118066905Y-94022438D01*
X118066905Y-94022438D02*
X118162143Y-93974819D01*
X118162143Y-93974819D02*
X118400238Y-93974819D01*
X118400238Y-93974819D02*
X118543095Y-94022438D01*
X118876429Y-93974819D02*
X119114524Y-94974819D01*
X119114524Y-94974819D02*
X119305000Y-94260533D01*
X119305000Y-94260533D02*
X119495476Y-94974819D01*
X119495476Y-94974819D02*
X119733572Y-93974819D01*
X120638333Y-94974819D02*
X120066905Y-94974819D01*
X120352619Y-94974819D02*
X120352619Y-93974819D01*
X120352619Y-93974819D02*
X120257381Y-94117676D01*
X120257381Y-94117676D02*
X120162143Y-94212914D01*
X120162143Y-94212914D02*
X120066905Y-94260533D01*
X29569580Y-63666666D02*
X29617200Y-63714285D01*
X29617200Y-63714285D02*
X29664819Y-63857142D01*
X29664819Y-63857142D02*
X29664819Y-63952380D01*
X29664819Y-63952380D02*
X29617200Y-64095237D01*
X29617200Y-64095237D02*
X29521961Y-64190475D01*
X29521961Y-64190475D02*
X29426723Y-64238094D01*
X29426723Y-64238094D02*
X29236247Y-64285713D01*
X29236247Y-64285713D02*
X29093390Y-64285713D01*
X29093390Y-64285713D02*
X28902914Y-64238094D01*
X28902914Y-64238094D02*
X28807676Y-64190475D01*
X28807676Y-64190475D02*
X28712438Y-64095237D01*
X28712438Y-64095237D02*
X28664819Y-63952380D01*
X28664819Y-63952380D02*
X28664819Y-63857142D01*
X28664819Y-63857142D02*
X28712438Y-63714285D01*
X28712438Y-63714285D02*
X28760057Y-63666666D01*
X29664819Y-62714285D02*
X29664819Y-63285713D01*
X29664819Y-62999999D02*
X28664819Y-62999999D01*
X28664819Y-62999999D02*
X28807676Y-63095237D01*
X28807676Y-63095237D02*
X28902914Y-63190475D01*
X28902914Y-63190475D02*
X28950533Y-63285713D01*
X41136667Y-104547200D02*
X41279524Y-104594819D01*
X41279524Y-104594819D02*
X41517619Y-104594819D01*
X41517619Y-104594819D02*
X41612857Y-104547200D01*
X41612857Y-104547200D02*
X41660476Y-104499580D01*
X41660476Y-104499580D02*
X41708095Y-104404342D01*
X41708095Y-104404342D02*
X41708095Y-104309104D01*
X41708095Y-104309104D02*
X41660476Y-104213866D01*
X41660476Y-104213866D02*
X41612857Y-104166247D01*
X41612857Y-104166247D02*
X41517619Y-104118628D01*
X41517619Y-104118628D02*
X41327143Y-104071009D01*
X41327143Y-104071009D02*
X41231905Y-104023390D01*
X41231905Y-104023390D02*
X41184286Y-103975771D01*
X41184286Y-103975771D02*
X41136667Y-103880533D01*
X41136667Y-103880533D02*
X41136667Y-103785295D01*
X41136667Y-103785295D02*
X41184286Y-103690057D01*
X41184286Y-103690057D02*
X41231905Y-103642438D01*
X41231905Y-103642438D02*
X41327143Y-103594819D01*
X41327143Y-103594819D02*
X41565238Y-103594819D01*
X41565238Y-103594819D02*
X41708095Y-103642438D01*
X42041429Y-103594819D02*
X42279524Y-104594819D01*
X42279524Y-104594819D02*
X42470000Y-103880533D01*
X42470000Y-103880533D02*
X42660476Y-104594819D01*
X42660476Y-104594819D02*
X42898572Y-103594819D01*
X43231905Y-103690057D02*
X43279524Y-103642438D01*
X43279524Y-103642438D02*
X43374762Y-103594819D01*
X43374762Y-103594819D02*
X43612857Y-103594819D01*
X43612857Y-103594819D02*
X43708095Y-103642438D01*
X43708095Y-103642438D02*
X43755714Y-103690057D01*
X43755714Y-103690057D02*
X43803333Y-103785295D01*
X43803333Y-103785295D02*
X43803333Y-103880533D01*
X43803333Y-103880533D02*
X43755714Y-104023390D01*
X43755714Y-104023390D02*
X43184286Y-104594819D01*
X43184286Y-104594819D02*
X43803333Y-104594819D01*
X41094819Y-96051666D02*
X40618628Y-96384999D01*
X41094819Y-96623094D02*
X40094819Y-96623094D01*
X40094819Y-96623094D02*
X40094819Y-96242142D01*
X40094819Y-96242142D02*
X40142438Y-96146904D01*
X40142438Y-96146904D02*
X40190057Y-96099285D01*
X40190057Y-96099285D02*
X40285295Y-96051666D01*
X40285295Y-96051666D02*
X40428152Y-96051666D01*
X40428152Y-96051666D02*
X40523390Y-96099285D01*
X40523390Y-96099285D02*
X40571009Y-96146904D01*
X40571009Y-96146904D02*
X40618628Y-96242142D01*
X40618628Y-96242142D02*
X40618628Y-96623094D01*
X40094819Y-95718332D02*
X40094819Y-95099285D01*
X40094819Y-95099285D02*
X40475771Y-95432618D01*
X40475771Y-95432618D02*
X40475771Y-95289761D01*
X40475771Y-95289761D02*
X40523390Y-95194523D01*
X40523390Y-95194523D02*
X40571009Y-95146904D01*
X40571009Y-95146904D02*
X40666247Y-95099285D01*
X40666247Y-95099285D02*
X40904342Y-95099285D01*
X40904342Y-95099285D02*
X40999580Y-95146904D01*
X40999580Y-95146904D02*
X41047200Y-95194523D01*
X41047200Y-95194523D02*
X41094819Y-95289761D01*
X41094819Y-95289761D02*
X41094819Y-95575475D01*
X41094819Y-95575475D02*
X41047200Y-95670713D01*
X41047200Y-95670713D02*
X40999580Y-95718332D01*
X40094819Y-92336904D02*
X40094819Y-92813094D01*
X40094819Y-92813094D02*
X40571009Y-92860713D01*
X40571009Y-92860713D02*
X40523390Y-92813094D01*
X40523390Y-92813094D02*
X40475771Y-92717856D01*
X40475771Y-92717856D02*
X40475771Y-92479761D01*
X40475771Y-92479761D02*
X40523390Y-92384523D01*
X40523390Y-92384523D02*
X40571009Y-92336904D01*
X40571009Y-92336904D02*
X40666247Y-92289285D01*
X40666247Y-92289285D02*
X40904342Y-92289285D01*
X40904342Y-92289285D02*
X40999580Y-92336904D01*
X40999580Y-92336904D02*
X41047200Y-92384523D01*
X41047200Y-92384523D02*
X41094819Y-92479761D01*
X41094819Y-92479761D02*
X41094819Y-92717856D01*
X41094819Y-92717856D02*
X41047200Y-92813094D01*
X41047200Y-92813094D02*
X40999580Y-92860713D01*
X41094819Y-91860713D02*
X40094819Y-91860713D01*
X41094819Y-91289285D02*
X40523390Y-91717856D01*
X40094819Y-91289285D02*
X40666247Y-91860713D01*
X114831905Y-86394819D02*
X114831905Y-85394819D01*
X114831905Y-85394819D02*
X115070000Y-85394819D01*
X115070000Y-85394819D02*
X115212857Y-85442438D01*
X115212857Y-85442438D02*
X115308095Y-85537676D01*
X115308095Y-85537676D02*
X115355714Y-85632914D01*
X115355714Y-85632914D02*
X115403333Y-85823390D01*
X115403333Y-85823390D02*
X115403333Y-85966247D01*
X115403333Y-85966247D02*
X115355714Y-86156723D01*
X115355714Y-86156723D02*
X115308095Y-86251961D01*
X115308095Y-86251961D02*
X115212857Y-86347200D01*
X115212857Y-86347200D02*
X115070000Y-86394819D01*
X115070000Y-86394819D02*
X114831905Y-86394819D01*
X116355714Y-86394819D02*
X115784286Y-86394819D01*
X116070000Y-86394819D02*
X116070000Y-85394819D01*
X116070000Y-85394819D02*
X115974762Y-85537676D01*
X115974762Y-85537676D02*
X115879524Y-85632914D01*
X115879524Y-85632914D02*
X115784286Y-85680533D01*
X74763333Y-84179580D02*
X74715714Y-84227200D01*
X74715714Y-84227200D02*
X74572857Y-84274819D01*
X74572857Y-84274819D02*
X74477619Y-84274819D01*
X74477619Y-84274819D02*
X74334762Y-84227200D01*
X74334762Y-84227200D02*
X74239524Y-84131961D01*
X74239524Y-84131961D02*
X74191905Y-84036723D01*
X74191905Y-84036723D02*
X74144286Y-83846247D01*
X74144286Y-83846247D02*
X74144286Y-83703390D01*
X74144286Y-83703390D02*
X74191905Y-83512914D01*
X74191905Y-83512914D02*
X74239524Y-83417676D01*
X74239524Y-83417676D02*
X74334762Y-83322438D01*
X74334762Y-83322438D02*
X74477619Y-83274819D01*
X74477619Y-83274819D02*
X74572857Y-83274819D01*
X74572857Y-83274819D02*
X74715714Y-83322438D01*
X74715714Y-83322438D02*
X74763333Y-83370057D01*
X75620476Y-83608152D02*
X75620476Y-84274819D01*
X75382381Y-83227200D02*
X75144286Y-83941485D01*
X75144286Y-83941485D02*
X75763333Y-83941485D01*
X62063333Y-35919580D02*
X62015714Y-35967200D01*
X62015714Y-35967200D02*
X61872857Y-36014819D01*
X61872857Y-36014819D02*
X61777619Y-36014819D01*
X61777619Y-36014819D02*
X61634762Y-35967200D01*
X61634762Y-35967200D02*
X61539524Y-35871961D01*
X61539524Y-35871961D02*
X61491905Y-35776723D01*
X61491905Y-35776723D02*
X61444286Y-35586247D01*
X61444286Y-35586247D02*
X61444286Y-35443390D01*
X61444286Y-35443390D02*
X61491905Y-35252914D01*
X61491905Y-35252914D02*
X61539524Y-35157676D01*
X61539524Y-35157676D02*
X61634762Y-35062438D01*
X61634762Y-35062438D02*
X61777619Y-35014819D01*
X61777619Y-35014819D02*
X61872857Y-35014819D01*
X61872857Y-35014819D02*
X62015714Y-35062438D01*
X62015714Y-35062438D02*
X62063333Y-35110057D01*
X62444286Y-35110057D02*
X62491905Y-35062438D01*
X62491905Y-35062438D02*
X62587143Y-35014819D01*
X62587143Y-35014819D02*
X62825238Y-35014819D01*
X62825238Y-35014819D02*
X62920476Y-35062438D01*
X62920476Y-35062438D02*
X62968095Y-35110057D01*
X62968095Y-35110057D02*
X63015714Y-35205295D01*
X63015714Y-35205295D02*
X63015714Y-35300533D01*
X63015714Y-35300533D02*
X62968095Y-35443390D01*
X62968095Y-35443390D02*
X62396667Y-36014819D01*
X62396667Y-36014819D02*
X63015714Y-36014819D01*
X69477143Y-35014819D02*
X69572381Y-35014819D01*
X69572381Y-35014819D02*
X69667619Y-35062438D01*
X69667619Y-35062438D02*
X69715238Y-35110057D01*
X69715238Y-35110057D02*
X69762857Y-35205295D01*
X69762857Y-35205295D02*
X69810476Y-35395771D01*
X69810476Y-35395771D02*
X69810476Y-35633866D01*
X69810476Y-35633866D02*
X69762857Y-35824342D01*
X69762857Y-35824342D02*
X69715238Y-35919580D01*
X69715238Y-35919580D02*
X69667619Y-35967200D01*
X69667619Y-35967200D02*
X69572381Y-36014819D01*
X69572381Y-36014819D02*
X69477143Y-36014819D01*
X69477143Y-36014819D02*
X69381905Y-35967200D01*
X69381905Y-35967200D02*
X69334286Y-35919580D01*
X69334286Y-35919580D02*
X69286667Y-35824342D01*
X69286667Y-35824342D02*
X69239048Y-35633866D01*
X69239048Y-35633866D02*
X69239048Y-35395771D01*
X69239048Y-35395771D02*
X69286667Y-35205295D01*
X69286667Y-35205295D02*
X69334286Y-35110057D01*
X69334286Y-35110057D02*
X69381905Y-35062438D01*
X69381905Y-35062438D02*
X69477143Y-35014819D01*
X70239048Y-35919580D02*
X70286667Y-35967200D01*
X70286667Y-35967200D02*
X70239048Y-36014819D01*
X70239048Y-36014819D02*
X70191429Y-35967200D01*
X70191429Y-35967200D02*
X70239048Y-35919580D01*
X70239048Y-35919580D02*
X70239048Y-36014819D01*
X71239047Y-36014819D02*
X70667619Y-36014819D01*
X70953333Y-36014819D02*
X70953333Y-35014819D01*
X70953333Y-35014819D02*
X70858095Y-35157676D01*
X70858095Y-35157676D02*
X70762857Y-35252914D01*
X70762857Y-35252914D02*
X70667619Y-35300533D01*
X72096190Y-35348152D02*
X72096190Y-36014819D01*
X71667619Y-35348152D02*
X71667619Y-35871961D01*
X71667619Y-35871961D02*
X71715238Y-35967200D01*
X71715238Y-35967200D02*
X71810476Y-36014819D01*
X71810476Y-36014819D02*
X71953333Y-36014819D01*
X71953333Y-36014819D02*
X72048571Y-35967200D01*
X72048571Y-35967200D02*
X72096190Y-35919580D01*
X72905714Y-35491009D02*
X72572381Y-35491009D01*
X72572381Y-36014819D02*
X72572381Y-35014819D01*
X72572381Y-35014819D02*
X73048571Y-35014819D01*
X85598095Y-86024819D02*
X85598095Y-86834342D01*
X85598095Y-86834342D02*
X85645714Y-86929580D01*
X85645714Y-86929580D02*
X85693333Y-86977200D01*
X85693333Y-86977200D02*
X85788571Y-87024819D01*
X85788571Y-87024819D02*
X85979047Y-87024819D01*
X85979047Y-87024819D02*
X86074285Y-86977200D01*
X86074285Y-86977200D02*
X86121904Y-86929580D01*
X86121904Y-86929580D02*
X86169523Y-86834342D01*
X86169523Y-86834342D02*
X86169523Y-86024819D01*
X87074285Y-86024819D02*
X86883809Y-86024819D01*
X86883809Y-86024819D02*
X86788571Y-86072438D01*
X86788571Y-86072438D02*
X86740952Y-86120057D01*
X86740952Y-86120057D02*
X86645714Y-86262914D01*
X86645714Y-86262914D02*
X86598095Y-86453390D01*
X86598095Y-86453390D02*
X86598095Y-86834342D01*
X86598095Y-86834342D02*
X86645714Y-86929580D01*
X86645714Y-86929580D02*
X86693333Y-86977200D01*
X86693333Y-86977200D02*
X86788571Y-87024819D01*
X86788571Y-87024819D02*
X86979047Y-87024819D01*
X86979047Y-87024819D02*
X87074285Y-86977200D01*
X87074285Y-86977200D02*
X87121904Y-86929580D01*
X87121904Y-86929580D02*
X87169523Y-86834342D01*
X87169523Y-86834342D02*
X87169523Y-86596247D01*
X87169523Y-86596247D02*
X87121904Y-86501009D01*
X87121904Y-86501009D02*
X87074285Y-86453390D01*
X87074285Y-86453390D02*
X86979047Y-86405771D01*
X86979047Y-86405771D02*
X86788571Y-86405771D01*
X86788571Y-86405771D02*
X86693333Y-86453390D01*
X86693333Y-86453390D02*
X86645714Y-86501009D01*
X86645714Y-86501009D02*
X86598095Y-86596247D01*
X98417142Y-104594819D02*
X98083809Y-104118628D01*
X97845714Y-104594819D02*
X97845714Y-103594819D01*
X97845714Y-103594819D02*
X98226666Y-103594819D01*
X98226666Y-103594819D02*
X98321904Y-103642438D01*
X98321904Y-103642438D02*
X98369523Y-103690057D01*
X98369523Y-103690057D02*
X98417142Y-103785295D01*
X98417142Y-103785295D02*
X98417142Y-103928152D01*
X98417142Y-103928152D02*
X98369523Y-104023390D01*
X98369523Y-104023390D02*
X98321904Y-104071009D01*
X98321904Y-104071009D02*
X98226666Y-104118628D01*
X98226666Y-104118628D02*
X97845714Y-104118628D01*
X99369523Y-104594819D02*
X98798095Y-104594819D01*
X99083809Y-104594819D02*
X99083809Y-103594819D01*
X99083809Y-103594819D02*
X98988571Y-103737676D01*
X98988571Y-103737676D02*
X98893333Y-103832914D01*
X98893333Y-103832914D02*
X98798095Y-103880533D01*
X99702857Y-103594819D02*
X100321904Y-103594819D01*
X100321904Y-103594819D02*
X99988571Y-103975771D01*
X99988571Y-103975771D02*
X100131428Y-103975771D01*
X100131428Y-103975771D02*
X100226666Y-104023390D01*
X100226666Y-104023390D02*
X100274285Y-104071009D01*
X100274285Y-104071009D02*
X100321904Y-104166247D01*
X100321904Y-104166247D02*
X100321904Y-104404342D01*
X100321904Y-104404342D02*
X100274285Y-104499580D01*
X100274285Y-104499580D02*
X100226666Y-104547200D01*
X100226666Y-104547200D02*
X100131428Y-104594819D01*
X100131428Y-104594819D02*
X99845714Y-104594819D01*
X99845714Y-104594819D02*
X99750476Y-104547200D01*
X99750476Y-104547200D02*
X99702857Y-104499580D01*
X105989523Y-104594819D02*
X105418095Y-104594819D01*
X105703809Y-104594819D02*
X105703809Y-103594819D01*
X105703809Y-103594819D02*
X105608571Y-103737676D01*
X105608571Y-103737676D02*
X105513333Y-103832914D01*
X105513333Y-103832914D02*
X105418095Y-103880533D01*
X106608571Y-103594819D02*
X106703809Y-103594819D01*
X106703809Y-103594819D02*
X106799047Y-103642438D01*
X106799047Y-103642438D02*
X106846666Y-103690057D01*
X106846666Y-103690057D02*
X106894285Y-103785295D01*
X106894285Y-103785295D02*
X106941904Y-103975771D01*
X106941904Y-103975771D02*
X106941904Y-104213866D01*
X106941904Y-104213866D02*
X106894285Y-104404342D01*
X106894285Y-104404342D02*
X106846666Y-104499580D01*
X106846666Y-104499580D02*
X106799047Y-104547200D01*
X106799047Y-104547200D02*
X106703809Y-104594819D01*
X106703809Y-104594819D02*
X106608571Y-104594819D01*
X106608571Y-104594819D02*
X106513333Y-104547200D01*
X106513333Y-104547200D02*
X106465714Y-104499580D01*
X106465714Y-104499580D02*
X106418095Y-104404342D01*
X106418095Y-104404342D02*
X106370476Y-104213866D01*
X106370476Y-104213866D02*
X106370476Y-103975771D01*
X106370476Y-103975771D02*
X106418095Y-103785295D01*
X106418095Y-103785295D02*
X106465714Y-103690057D01*
X106465714Y-103690057D02*
X106513333Y-103642438D01*
X106513333Y-103642438D02*
X106608571Y-103594819D01*
X107370476Y-104594819D02*
X107370476Y-103594819D01*
X107941904Y-104594819D02*
X107513333Y-104023390D01*
X107941904Y-103594819D02*
X107370476Y-104166247D01*
X102246667Y-108897200D02*
X102389524Y-108944819D01*
X102389524Y-108944819D02*
X102627619Y-108944819D01*
X102627619Y-108944819D02*
X102722857Y-108897200D01*
X102722857Y-108897200D02*
X102770476Y-108849580D01*
X102770476Y-108849580D02*
X102818095Y-108754342D01*
X102818095Y-108754342D02*
X102818095Y-108659104D01*
X102818095Y-108659104D02*
X102770476Y-108563866D01*
X102770476Y-108563866D02*
X102722857Y-108516247D01*
X102722857Y-108516247D02*
X102627619Y-108468628D01*
X102627619Y-108468628D02*
X102437143Y-108421009D01*
X102437143Y-108421009D02*
X102341905Y-108373390D01*
X102341905Y-108373390D02*
X102294286Y-108325771D01*
X102294286Y-108325771D02*
X102246667Y-108230533D01*
X102246667Y-108230533D02*
X102246667Y-108135295D01*
X102246667Y-108135295D02*
X102294286Y-108040057D01*
X102294286Y-108040057D02*
X102341905Y-107992438D01*
X102341905Y-107992438D02*
X102437143Y-107944819D01*
X102437143Y-107944819D02*
X102675238Y-107944819D01*
X102675238Y-107944819D02*
X102818095Y-107992438D01*
X103151429Y-107944819D02*
X103389524Y-108944819D01*
X103389524Y-108944819D02*
X103580000Y-108230533D01*
X103580000Y-108230533D02*
X103770476Y-108944819D01*
X103770476Y-108944819D02*
X104008572Y-107944819D01*
X104818095Y-107944819D02*
X104627619Y-107944819D01*
X104627619Y-107944819D02*
X104532381Y-107992438D01*
X104532381Y-107992438D02*
X104484762Y-108040057D01*
X104484762Y-108040057D02*
X104389524Y-108182914D01*
X104389524Y-108182914D02*
X104341905Y-108373390D01*
X104341905Y-108373390D02*
X104341905Y-108754342D01*
X104341905Y-108754342D02*
X104389524Y-108849580D01*
X104389524Y-108849580D02*
X104437143Y-108897200D01*
X104437143Y-108897200D02*
X104532381Y-108944819D01*
X104532381Y-108944819D02*
X104722857Y-108944819D01*
X104722857Y-108944819D02*
X104818095Y-108897200D01*
X104818095Y-108897200D02*
X104865714Y-108849580D01*
X104865714Y-108849580D02*
X104913333Y-108754342D01*
X104913333Y-108754342D02*
X104913333Y-108516247D01*
X104913333Y-108516247D02*
X104865714Y-108421009D01*
X104865714Y-108421009D02*
X104818095Y-108373390D01*
X104818095Y-108373390D02*
X104722857Y-108325771D01*
X104722857Y-108325771D02*
X104532381Y-108325771D01*
X104532381Y-108325771D02*
X104437143Y-108373390D01*
X104437143Y-108373390D02*
X104389524Y-108421009D01*
X104389524Y-108421009D02*
X104341905Y-108516247D01*
X103841905Y-117359104D02*
X104318095Y-117359104D01*
X103746667Y-117644819D02*
X104080000Y-116644819D01*
X104080000Y-116644819D02*
X104413333Y-117644819D01*
X98417142Y-96974819D02*
X98083809Y-96498628D01*
X97845714Y-96974819D02*
X97845714Y-95974819D01*
X97845714Y-95974819D02*
X98226666Y-95974819D01*
X98226666Y-95974819D02*
X98321904Y-96022438D01*
X98321904Y-96022438D02*
X98369523Y-96070057D01*
X98369523Y-96070057D02*
X98417142Y-96165295D01*
X98417142Y-96165295D02*
X98417142Y-96308152D01*
X98417142Y-96308152D02*
X98369523Y-96403390D01*
X98369523Y-96403390D02*
X98321904Y-96451009D01*
X98321904Y-96451009D02*
X98226666Y-96498628D01*
X98226666Y-96498628D02*
X97845714Y-96498628D01*
X99369523Y-96974819D02*
X98798095Y-96974819D01*
X99083809Y-96974819D02*
X99083809Y-95974819D01*
X99083809Y-95974819D02*
X98988571Y-96117676D01*
X98988571Y-96117676D02*
X98893333Y-96212914D01*
X98893333Y-96212914D02*
X98798095Y-96260533D01*
X100321904Y-96974819D02*
X99750476Y-96974819D01*
X100036190Y-96974819D02*
X100036190Y-95974819D01*
X100036190Y-95974819D02*
X99940952Y-96117676D01*
X99940952Y-96117676D02*
X99845714Y-96212914D01*
X99845714Y-96212914D02*
X99750476Y-96260533D01*
X106418095Y-95974819D02*
X105941905Y-95974819D01*
X105941905Y-95974819D02*
X105894286Y-96451009D01*
X105894286Y-96451009D02*
X105941905Y-96403390D01*
X105941905Y-96403390D02*
X106037143Y-96355771D01*
X106037143Y-96355771D02*
X106275238Y-96355771D01*
X106275238Y-96355771D02*
X106370476Y-96403390D01*
X106370476Y-96403390D02*
X106418095Y-96451009D01*
X106418095Y-96451009D02*
X106465714Y-96546247D01*
X106465714Y-96546247D02*
X106465714Y-96784342D01*
X106465714Y-96784342D02*
X106418095Y-96879580D01*
X106418095Y-96879580D02*
X106370476Y-96927200D01*
X106370476Y-96927200D02*
X106275238Y-96974819D01*
X106275238Y-96974819D02*
X106037143Y-96974819D01*
X106037143Y-96974819D02*
X105941905Y-96927200D01*
X105941905Y-96927200D02*
X105894286Y-96879580D01*
X106894286Y-96974819D02*
X106894286Y-95974819D01*
X107465714Y-96974819D02*
X107037143Y-96403390D01*
X107465714Y-95974819D02*
X106894286Y-96546247D01*
X32258095Y-32684819D02*
X32258095Y-33494342D01*
X32258095Y-33494342D02*
X32305714Y-33589580D01*
X32305714Y-33589580D02*
X32353333Y-33637200D01*
X32353333Y-33637200D02*
X32448571Y-33684819D01*
X32448571Y-33684819D02*
X32639047Y-33684819D01*
X32639047Y-33684819D02*
X32734285Y-33637200D01*
X32734285Y-33637200D02*
X32781904Y-33589580D01*
X32781904Y-33589580D02*
X32829523Y-33494342D01*
X32829523Y-33494342D02*
X32829523Y-32684819D01*
X33829523Y-33684819D02*
X33258095Y-33684819D01*
X33543809Y-33684819D02*
X33543809Y-32684819D01*
X33543809Y-32684819D02*
X33448571Y-32827676D01*
X33448571Y-32827676D02*
X33353333Y-32922914D01*
X33353333Y-32922914D02*
X33258095Y-32970533D01*
X51159580Y-36274285D02*
X51207200Y-36321904D01*
X51207200Y-36321904D02*
X51254819Y-36464761D01*
X51254819Y-36464761D02*
X51254819Y-36559999D01*
X51254819Y-36559999D02*
X51207200Y-36702856D01*
X51207200Y-36702856D02*
X51111961Y-36798094D01*
X51111961Y-36798094D02*
X51016723Y-36845713D01*
X51016723Y-36845713D02*
X50826247Y-36893332D01*
X50826247Y-36893332D02*
X50683390Y-36893332D01*
X50683390Y-36893332D02*
X50492914Y-36845713D01*
X50492914Y-36845713D02*
X50397676Y-36798094D01*
X50397676Y-36798094D02*
X50302438Y-36702856D01*
X50302438Y-36702856D02*
X50254819Y-36559999D01*
X50254819Y-36559999D02*
X50254819Y-36464761D01*
X50254819Y-36464761D02*
X50302438Y-36321904D01*
X50302438Y-36321904D02*
X50350057Y-36274285D01*
X51254819Y-35845713D02*
X50254819Y-35845713D01*
X50254819Y-35845713D02*
X50254819Y-35464761D01*
X50254819Y-35464761D02*
X50302438Y-35369523D01*
X50302438Y-35369523D02*
X50350057Y-35321904D01*
X50350057Y-35321904D02*
X50445295Y-35274285D01*
X50445295Y-35274285D02*
X50588152Y-35274285D01*
X50588152Y-35274285D02*
X50683390Y-35321904D01*
X50683390Y-35321904D02*
X50731009Y-35369523D01*
X50731009Y-35369523D02*
X50778628Y-35464761D01*
X50778628Y-35464761D02*
X50778628Y-35845713D01*
X50254819Y-34845713D02*
X51064342Y-34845713D01*
X51064342Y-34845713D02*
X51159580Y-34798094D01*
X51159580Y-34798094D02*
X51207200Y-34750475D01*
X51207200Y-34750475D02*
X51254819Y-34655237D01*
X51254819Y-34655237D02*
X51254819Y-34464761D01*
X51254819Y-34464761D02*
X51207200Y-34369523D01*
X51207200Y-34369523D02*
X51159580Y-34321904D01*
X51159580Y-34321904D02*
X51064342Y-34274285D01*
X51064342Y-34274285D02*
X50254819Y-34274285D01*
X30976667Y-106357200D02*
X31119524Y-106404819D01*
X31119524Y-106404819D02*
X31357619Y-106404819D01*
X31357619Y-106404819D02*
X31452857Y-106357200D01*
X31452857Y-106357200D02*
X31500476Y-106309580D01*
X31500476Y-106309580D02*
X31548095Y-106214342D01*
X31548095Y-106214342D02*
X31548095Y-106119104D01*
X31548095Y-106119104D02*
X31500476Y-106023866D01*
X31500476Y-106023866D02*
X31452857Y-105976247D01*
X31452857Y-105976247D02*
X31357619Y-105928628D01*
X31357619Y-105928628D02*
X31167143Y-105881009D01*
X31167143Y-105881009D02*
X31071905Y-105833390D01*
X31071905Y-105833390D02*
X31024286Y-105785771D01*
X31024286Y-105785771D02*
X30976667Y-105690533D01*
X30976667Y-105690533D02*
X30976667Y-105595295D01*
X30976667Y-105595295D02*
X31024286Y-105500057D01*
X31024286Y-105500057D02*
X31071905Y-105452438D01*
X31071905Y-105452438D02*
X31167143Y-105404819D01*
X31167143Y-105404819D02*
X31405238Y-105404819D01*
X31405238Y-105404819D02*
X31548095Y-105452438D01*
X31881429Y-105404819D02*
X32119524Y-106404819D01*
X32119524Y-106404819D02*
X32310000Y-105690533D01*
X32310000Y-105690533D02*
X32500476Y-106404819D01*
X32500476Y-106404819D02*
X32738572Y-105404819D01*
X33548095Y-105738152D02*
X33548095Y-106404819D01*
X33310000Y-105357200D02*
X33071905Y-106071485D01*
X33071905Y-106071485D02*
X33690952Y-106071485D01*
X83058095Y-37554819D02*
X83058095Y-38364342D01*
X83058095Y-38364342D02*
X83105714Y-38459580D01*
X83105714Y-38459580D02*
X83153333Y-38507200D01*
X83153333Y-38507200D02*
X83248571Y-38554819D01*
X83248571Y-38554819D02*
X83439047Y-38554819D01*
X83439047Y-38554819D02*
X83534285Y-38507200D01*
X83534285Y-38507200D02*
X83581904Y-38459580D01*
X83581904Y-38459580D02*
X83629523Y-38364342D01*
X83629523Y-38364342D02*
X83629523Y-37554819D01*
X84010476Y-37554819D02*
X84629523Y-37554819D01*
X84629523Y-37554819D02*
X84296190Y-37935771D01*
X84296190Y-37935771D02*
X84439047Y-37935771D01*
X84439047Y-37935771D02*
X84534285Y-37983390D01*
X84534285Y-37983390D02*
X84581904Y-38031009D01*
X84581904Y-38031009D02*
X84629523Y-38126247D01*
X84629523Y-38126247D02*
X84629523Y-38364342D01*
X84629523Y-38364342D02*
X84581904Y-38459580D01*
X84581904Y-38459580D02*
X84534285Y-38507200D01*
X84534285Y-38507200D02*
X84439047Y-38554819D01*
X84439047Y-38554819D02*
X84153333Y-38554819D01*
X84153333Y-38554819D02*
X84058095Y-38507200D01*
X84058095Y-38507200D02*
X84010476Y-38459580D01*
X90674285Y-38554819D02*
X90340952Y-38078628D01*
X90102857Y-38554819D02*
X90102857Y-37554819D01*
X90102857Y-37554819D02*
X90483809Y-37554819D01*
X90483809Y-37554819D02*
X90579047Y-37602438D01*
X90579047Y-37602438D02*
X90626666Y-37650057D01*
X90626666Y-37650057D02*
X90674285Y-37745295D01*
X90674285Y-37745295D02*
X90674285Y-37888152D01*
X90674285Y-37888152D02*
X90626666Y-37983390D01*
X90626666Y-37983390D02*
X90579047Y-38031009D01*
X90579047Y-38031009D02*
X90483809Y-38078628D01*
X90483809Y-38078628D02*
X90102857Y-38078628D01*
X91293333Y-37554819D02*
X91483809Y-37554819D01*
X91483809Y-37554819D02*
X91579047Y-37602438D01*
X91579047Y-37602438D02*
X91674285Y-37697676D01*
X91674285Y-37697676D02*
X91721904Y-37888152D01*
X91721904Y-37888152D02*
X91721904Y-38221485D01*
X91721904Y-38221485D02*
X91674285Y-38411961D01*
X91674285Y-38411961D02*
X91579047Y-38507200D01*
X91579047Y-38507200D02*
X91483809Y-38554819D01*
X91483809Y-38554819D02*
X91293333Y-38554819D01*
X91293333Y-38554819D02*
X91198095Y-38507200D01*
X91198095Y-38507200D02*
X91102857Y-38411961D01*
X91102857Y-38411961D02*
X91055238Y-38221485D01*
X91055238Y-38221485D02*
X91055238Y-37888152D01*
X91055238Y-37888152D02*
X91102857Y-37697676D01*
X91102857Y-37697676D02*
X91198095Y-37602438D01*
X91198095Y-37602438D02*
X91293333Y-37554819D01*
X92150476Y-38554819D02*
X92150476Y-37554819D01*
X92150476Y-37554819D02*
X92483809Y-38269104D01*
X92483809Y-38269104D02*
X92817142Y-37554819D01*
X92817142Y-37554819D02*
X92817142Y-38554819D01*
X64434819Y-116331904D02*
X65244342Y-116331904D01*
X65244342Y-116331904D02*
X65339580Y-116284285D01*
X65339580Y-116284285D02*
X65387200Y-116236666D01*
X65387200Y-116236666D02*
X65434819Y-116141428D01*
X65434819Y-116141428D02*
X65434819Y-115950952D01*
X65434819Y-115950952D02*
X65387200Y-115855714D01*
X65387200Y-115855714D02*
X65339580Y-115808095D01*
X65339580Y-115808095D02*
X65244342Y-115760476D01*
X65244342Y-115760476D02*
X64434819Y-115760476D01*
X64863390Y-115141428D02*
X64815771Y-115236666D01*
X64815771Y-115236666D02*
X64768152Y-115284285D01*
X64768152Y-115284285D02*
X64672914Y-115331904D01*
X64672914Y-115331904D02*
X64625295Y-115331904D01*
X64625295Y-115331904D02*
X64530057Y-115284285D01*
X64530057Y-115284285D02*
X64482438Y-115236666D01*
X64482438Y-115236666D02*
X64434819Y-115141428D01*
X64434819Y-115141428D02*
X64434819Y-114950952D01*
X64434819Y-114950952D02*
X64482438Y-114855714D01*
X64482438Y-114855714D02*
X64530057Y-114808095D01*
X64530057Y-114808095D02*
X64625295Y-114760476D01*
X64625295Y-114760476D02*
X64672914Y-114760476D01*
X64672914Y-114760476D02*
X64768152Y-114808095D01*
X64768152Y-114808095D02*
X64815771Y-114855714D01*
X64815771Y-114855714D02*
X64863390Y-114950952D01*
X64863390Y-114950952D02*
X64863390Y-115141428D01*
X64863390Y-115141428D02*
X64911009Y-115236666D01*
X64911009Y-115236666D02*
X64958628Y-115284285D01*
X64958628Y-115284285D02*
X65053866Y-115331904D01*
X65053866Y-115331904D02*
X65244342Y-115331904D01*
X65244342Y-115331904D02*
X65339580Y-115284285D01*
X65339580Y-115284285D02*
X65387200Y-115236666D01*
X65387200Y-115236666D02*
X65434819Y-115141428D01*
X65434819Y-115141428D02*
X65434819Y-114950952D01*
X65434819Y-114950952D02*
X65387200Y-114855714D01*
X65387200Y-114855714D02*
X65339580Y-114808095D01*
X65339580Y-114808095D02*
X65244342Y-114760476D01*
X65244342Y-114760476D02*
X65053866Y-114760476D01*
X65053866Y-114760476D02*
X64958628Y-114808095D01*
X64958628Y-114808095D02*
X64911009Y-114855714D01*
X64911009Y-114855714D02*
X64863390Y-114950952D01*
X98893333Y-81734819D02*
X98560000Y-81258628D01*
X98321905Y-81734819D02*
X98321905Y-80734819D01*
X98321905Y-80734819D02*
X98702857Y-80734819D01*
X98702857Y-80734819D02*
X98798095Y-80782438D01*
X98798095Y-80782438D02*
X98845714Y-80830057D01*
X98845714Y-80830057D02*
X98893333Y-80925295D01*
X98893333Y-80925295D02*
X98893333Y-81068152D01*
X98893333Y-81068152D02*
X98845714Y-81163390D01*
X98845714Y-81163390D02*
X98798095Y-81211009D01*
X98798095Y-81211009D02*
X98702857Y-81258628D01*
X98702857Y-81258628D02*
X98321905Y-81258628D01*
X99226667Y-80734819D02*
X99893333Y-80734819D01*
X99893333Y-80734819D02*
X99464762Y-81734819D01*
X106418095Y-80734819D02*
X105941905Y-80734819D01*
X105941905Y-80734819D02*
X105894286Y-81211009D01*
X105894286Y-81211009D02*
X105941905Y-81163390D01*
X105941905Y-81163390D02*
X106037143Y-81115771D01*
X106037143Y-81115771D02*
X106275238Y-81115771D01*
X106275238Y-81115771D02*
X106370476Y-81163390D01*
X106370476Y-81163390D02*
X106418095Y-81211009D01*
X106418095Y-81211009D02*
X106465714Y-81306247D01*
X106465714Y-81306247D02*
X106465714Y-81544342D01*
X106465714Y-81544342D02*
X106418095Y-81639580D01*
X106418095Y-81639580D02*
X106370476Y-81687200D01*
X106370476Y-81687200D02*
X106275238Y-81734819D01*
X106275238Y-81734819D02*
X106037143Y-81734819D01*
X106037143Y-81734819D02*
X105941905Y-81687200D01*
X105941905Y-81687200D02*
X105894286Y-81639580D01*
X106894286Y-81734819D02*
X106894286Y-80734819D01*
X107465714Y-81734819D02*
X107037143Y-81163390D01*
X107465714Y-80734819D02*
X106894286Y-81306247D01*
X48714819Y-96051666D02*
X48238628Y-96384999D01*
X48714819Y-96623094D02*
X47714819Y-96623094D01*
X47714819Y-96623094D02*
X47714819Y-96242142D01*
X47714819Y-96242142D02*
X47762438Y-96146904D01*
X47762438Y-96146904D02*
X47810057Y-96099285D01*
X47810057Y-96099285D02*
X47905295Y-96051666D01*
X47905295Y-96051666D02*
X48048152Y-96051666D01*
X48048152Y-96051666D02*
X48143390Y-96099285D01*
X48143390Y-96099285D02*
X48191009Y-96146904D01*
X48191009Y-96146904D02*
X48238628Y-96242142D01*
X48238628Y-96242142D02*
X48238628Y-96623094D01*
X47714819Y-95146904D02*
X47714819Y-95623094D01*
X47714819Y-95623094D02*
X48191009Y-95670713D01*
X48191009Y-95670713D02*
X48143390Y-95623094D01*
X48143390Y-95623094D02*
X48095771Y-95527856D01*
X48095771Y-95527856D02*
X48095771Y-95289761D01*
X48095771Y-95289761D02*
X48143390Y-95194523D01*
X48143390Y-95194523D02*
X48191009Y-95146904D01*
X48191009Y-95146904D02*
X48286247Y-95099285D01*
X48286247Y-95099285D02*
X48524342Y-95099285D01*
X48524342Y-95099285D02*
X48619580Y-95146904D01*
X48619580Y-95146904D02*
X48667200Y-95194523D01*
X48667200Y-95194523D02*
X48714819Y-95289761D01*
X48714819Y-95289761D02*
X48714819Y-95527856D01*
X48714819Y-95527856D02*
X48667200Y-95623094D01*
X48667200Y-95623094D02*
X48619580Y-95670713D01*
X47714819Y-92336904D02*
X47714819Y-92813094D01*
X47714819Y-92813094D02*
X48191009Y-92860713D01*
X48191009Y-92860713D02*
X48143390Y-92813094D01*
X48143390Y-92813094D02*
X48095771Y-92717856D01*
X48095771Y-92717856D02*
X48095771Y-92479761D01*
X48095771Y-92479761D02*
X48143390Y-92384523D01*
X48143390Y-92384523D02*
X48191009Y-92336904D01*
X48191009Y-92336904D02*
X48286247Y-92289285D01*
X48286247Y-92289285D02*
X48524342Y-92289285D01*
X48524342Y-92289285D02*
X48619580Y-92336904D01*
X48619580Y-92336904D02*
X48667200Y-92384523D01*
X48667200Y-92384523D02*
X48714819Y-92479761D01*
X48714819Y-92479761D02*
X48714819Y-92717856D01*
X48714819Y-92717856D02*
X48667200Y-92813094D01*
X48667200Y-92813094D02*
X48619580Y-92860713D01*
X48714819Y-91860713D02*
X47714819Y-91860713D01*
X48714819Y-91289285D02*
X48143390Y-91717856D01*
X47714819Y-91289285D02*
X48286247Y-91860713D01*
X98893333Y-85544819D02*
X98560000Y-85068628D01*
X98321905Y-85544819D02*
X98321905Y-84544819D01*
X98321905Y-84544819D02*
X98702857Y-84544819D01*
X98702857Y-84544819D02*
X98798095Y-84592438D01*
X98798095Y-84592438D02*
X98845714Y-84640057D01*
X98845714Y-84640057D02*
X98893333Y-84735295D01*
X98893333Y-84735295D02*
X98893333Y-84878152D01*
X98893333Y-84878152D02*
X98845714Y-84973390D01*
X98845714Y-84973390D02*
X98798095Y-85021009D01*
X98798095Y-85021009D02*
X98702857Y-85068628D01*
X98702857Y-85068628D02*
X98321905Y-85068628D01*
X99464762Y-84973390D02*
X99369524Y-84925771D01*
X99369524Y-84925771D02*
X99321905Y-84878152D01*
X99321905Y-84878152D02*
X99274286Y-84782914D01*
X99274286Y-84782914D02*
X99274286Y-84735295D01*
X99274286Y-84735295D02*
X99321905Y-84640057D01*
X99321905Y-84640057D02*
X99369524Y-84592438D01*
X99369524Y-84592438D02*
X99464762Y-84544819D01*
X99464762Y-84544819D02*
X99655238Y-84544819D01*
X99655238Y-84544819D02*
X99750476Y-84592438D01*
X99750476Y-84592438D02*
X99798095Y-84640057D01*
X99798095Y-84640057D02*
X99845714Y-84735295D01*
X99845714Y-84735295D02*
X99845714Y-84782914D01*
X99845714Y-84782914D02*
X99798095Y-84878152D01*
X99798095Y-84878152D02*
X99750476Y-84925771D01*
X99750476Y-84925771D02*
X99655238Y-84973390D01*
X99655238Y-84973390D02*
X99464762Y-84973390D01*
X99464762Y-84973390D02*
X99369524Y-85021009D01*
X99369524Y-85021009D02*
X99321905Y-85068628D01*
X99321905Y-85068628D02*
X99274286Y-85163866D01*
X99274286Y-85163866D02*
X99274286Y-85354342D01*
X99274286Y-85354342D02*
X99321905Y-85449580D01*
X99321905Y-85449580D02*
X99369524Y-85497200D01*
X99369524Y-85497200D02*
X99464762Y-85544819D01*
X99464762Y-85544819D02*
X99655238Y-85544819D01*
X99655238Y-85544819D02*
X99750476Y-85497200D01*
X99750476Y-85497200D02*
X99798095Y-85449580D01*
X99798095Y-85449580D02*
X99845714Y-85354342D01*
X99845714Y-85354342D02*
X99845714Y-85163866D01*
X99845714Y-85163866D02*
X99798095Y-85068628D01*
X99798095Y-85068628D02*
X99750476Y-85021009D01*
X99750476Y-85021009D02*
X99655238Y-84973390D01*
X106418095Y-84544819D02*
X105941905Y-84544819D01*
X105941905Y-84544819D02*
X105894286Y-85021009D01*
X105894286Y-85021009D02*
X105941905Y-84973390D01*
X105941905Y-84973390D02*
X106037143Y-84925771D01*
X106037143Y-84925771D02*
X106275238Y-84925771D01*
X106275238Y-84925771D02*
X106370476Y-84973390D01*
X106370476Y-84973390D02*
X106418095Y-85021009D01*
X106418095Y-85021009D02*
X106465714Y-85116247D01*
X106465714Y-85116247D02*
X106465714Y-85354342D01*
X106465714Y-85354342D02*
X106418095Y-85449580D01*
X106418095Y-85449580D02*
X106370476Y-85497200D01*
X106370476Y-85497200D02*
X106275238Y-85544819D01*
X106275238Y-85544819D02*
X106037143Y-85544819D01*
X106037143Y-85544819D02*
X105941905Y-85497200D01*
X105941905Y-85497200D02*
X105894286Y-85449580D01*
X106894286Y-85544819D02*
X106894286Y-84544819D01*
X107465714Y-85544819D02*
X107037143Y-84973390D01*
X107465714Y-84544819D02*
X106894286Y-85116247D01*
X44904819Y-96051666D02*
X44428628Y-96384999D01*
X44904819Y-96623094D02*
X43904819Y-96623094D01*
X43904819Y-96623094D02*
X43904819Y-96242142D01*
X43904819Y-96242142D02*
X43952438Y-96146904D01*
X43952438Y-96146904D02*
X44000057Y-96099285D01*
X44000057Y-96099285D02*
X44095295Y-96051666D01*
X44095295Y-96051666D02*
X44238152Y-96051666D01*
X44238152Y-96051666D02*
X44333390Y-96099285D01*
X44333390Y-96099285D02*
X44381009Y-96146904D01*
X44381009Y-96146904D02*
X44428628Y-96242142D01*
X44428628Y-96242142D02*
X44428628Y-96623094D01*
X44238152Y-95194523D02*
X44904819Y-95194523D01*
X43857200Y-95432618D02*
X44571485Y-95670713D01*
X44571485Y-95670713D02*
X44571485Y-95051666D01*
X43904819Y-92336904D02*
X43904819Y-92813094D01*
X43904819Y-92813094D02*
X44381009Y-92860713D01*
X44381009Y-92860713D02*
X44333390Y-92813094D01*
X44333390Y-92813094D02*
X44285771Y-92717856D01*
X44285771Y-92717856D02*
X44285771Y-92479761D01*
X44285771Y-92479761D02*
X44333390Y-92384523D01*
X44333390Y-92384523D02*
X44381009Y-92336904D01*
X44381009Y-92336904D02*
X44476247Y-92289285D01*
X44476247Y-92289285D02*
X44714342Y-92289285D01*
X44714342Y-92289285D02*
X44809580Y-92336904D01*
X44809580Y-92336904D02*
X44857200Y-92384523D01*
X44857200Y-92384523D02*
X44904819Y-92479761D01*
X44904819Y-92479761D02*
X44904819Y-92717856D01*
X44904819Y-92717856D02*
X44857200Y-92813094D01*
X44857200Y-92813094D02*
X44809580Y-92860713D01*
X44904819Y-91860713D02*
X43904819Y-91860713D01*
X44904819Y-91289285D02*
X44333390Y-91717856D01*
X43904819Y-91289285D02*
X44476247Y-91860713D01*
X90043333Y-84179580D02*
X89995714Y-84227200D01*
X89995714Y-84227200D02*
X89852857Y-84274819D01*
X89852857Y-84274819D02*
X89757619Y-84274819D01*
X89757619Y-84274819D02*
X89614762Y-84227200D01*
X89614762Y-84227200D02*
X89519524Y-84131961D01*
X89519524Y-84131961D02*
X89471905Y-84036723D01*
X89471905Y-84036723D02*
X89424286Y-83846247D01*
X89424286Y-83846247D02*
X89424286Y-83703390D01*
X89424286Y-83703390D02*
X89471905Y-83512914D01*
X89471905Y-83512914D02*
X89519524Y-83417676D01*
X89519524Y-83417676D02*
X89614762Y-83322438D01*
X89614762Y-83322438D02*
X89757619Y-83274819D01*
X89757619Y-83274819D02*
X89852857Y-83274819D01*
X89852857Y-83274819D02*
X89995714Y-83322438D01*
X89995714Y-83322438D02*
X90043333Y-83370057D01*
X90948095Y-83274819D02*
X90471905Y-83274819D01*
X90471905Y-83274819D02*
X90424286Y-83751009D01*
X90424286Y-83751009D02*
X90471905Y-83703390D01*
X90471905Y-83703390D02*
X90567143Y-83655771D01*
X90567143Y-83655771D02*
X90805238Y-83655771D01*
X90805238Y-83655771D02*
X90900476Y-83703390D01*
X90900476Y-83703390D02*
X90948095Y-83751009D01*
X90948095Y-83751009D02*
X90995714Y-83846247D01*
X90995714Y-83846247D02*
X90995714Y-84084342D01*
X90995714Y-84084342D02*
X90948095Y-84179580D01*
X90948095Y-84179580D02*
X90900476Y-84227200D01*
X90900476Y-84227200D02*
X90805238Y-84274819D01*
X90805238Y-84274819D02*
X90567143Y-84274819D01*
X90567143Y-84274819D02*
X90471905Y-84227200D01*
X90471905Y-84227200D02*
X90424286Y-84179580D01*
X57658095Y-37554819D02*
X57658095Y-38364342D01*
X57658095Y-38364342D02*
X57705714Y-38459580D01*
X57705714Y-38459580D02*
X57753333Y-38507200D01*
X57753333Y-38507200D02*
X57848571Y-38554819D01*
X57848571Y-38554819D02*
X58039047Y-38554819D01*
X58039047Y-38554819D02*
X58134285Y-38507200D01*
X58134285Y-38507200D02*
X58181904Y-38459580D01*
X58181904Y-38459580D02*
X58229523Y-38364342D01*
X58229523Y-38364342D02*
X58229523Y-37554819D01*
X58658095Y-37650057D02*
X58705714Y-37602438D01*
X58705714Y-37602438D02*
X58800952Y-37554819D01*
X58800952Y-37554819D02*
X59039047Y-37554819D01*
X59039047Y-37554819D02*
X59134285Y-37602438D01*
X59134285Y-37602438D02*
X59181904Y-37650057D01*
X59181904Y-37650057D02*
X59229523Y-37745295D01*
X59229523Y-37745295D02*
X59229523Y-37840533D01*
X59229523Y-37840533D02*
X59181904Y-37983390D01*
X59181904Y-37983390D02*
X58610476Y-38554819D01*
X58610476Y-38554819D02*
X59229523Y-38554819D01*
X65349523Y-38554819D02*
X65016190Y-38078628D01*
X64778095Y-38554819D02*
X64778095Y-37554819D01*
X64778095Y-37554819D02*
X65159047Y-37554819D01*
X65159047Y-37554819D02*
X65254285Y-37602438D01*
X65254285Y-37602438D02*
X65301904Y-37650057D01*
X65301904Y-37650057D02*
X65349523Y-37745295D01*
X65349523Y-37745295D02*
X65349523Y-37888152D01*
X65349523Y-37888152D02*
X65301904Y-37983390D01*
X65301904Y-37983390D02*
X65254285Y-38031009D01*
X65254285Y-38031009D02*
X65159047Y-38078628D01*
X65159047Y-38078628D02*
X64778095Y-38078628D01*
X65730476Y-38269104D02*
X66206666Y-38269104D01*
X65635238Y-38554819D02*
X65968571Y-37554819D01*
X65968571Y-37554819D02*
X66301904Y-38554819D01*
X66635238Y-38554819D02*
X66635238Y-37554819D01*
X66635238Y-37554819D02*
X66968571Y-38269104D01*
X66968571Y-38269104D02*
X67301904Y-37554819D01*
X67301904Y-37554819D02*
X67301904Y-38554819D01*
X98893333Y-89354819D02*
X98560000Y-88878628D01*
X98321905Y-89354819D02*
X98321905Y-88354819D01*
X98321905Y-88354819D02*
X98702857Y-88354819D01*
X98702857Y-88354819D02*
X98798095Y-88402438D01*
X98798095Y-88402438D02*
X98845714Y-88450057D01*
X98845714Y-88450057D02*
X98893333Y-88545295D01*
X98893333Y-88545295D02*
X98893333Y-88688152D01*
X98893333Y-88688152D02*
X98845714Y-88783390D01*
X98845714Y-88783390D02*
X98798095Y-88831009D01*
X98798095Y-88831009D02*
X98702857Y-88878628D01*
X98702857Y-88878628D02*
X98321905Y-88878628D01*
X99369524Y-89354819D02*
X99560000Y-89354819D01*
X99560000Y-89354819D02*
X99655238Y-89307200D01*
X99655238Y-89307200D02*
X99702857Y-89259580D01*
X99702857Y-89259580D02*
X99798095Y-89116723D01*
X99798095Y-89116723D02*
X99845714Y-88926247D01*
X99845714Y-88926247D02*
X99845714Y-88545295D01*
X99845714Y-88545295D02*
X99798095Y-88450057D01*
X99798095Y-88450057D02*
X99750476Y-88402438D01*
X99750476Y-88402438D02*
X99655238Y-88354819D01*
X99655238Y-88354819D02*
X99464762Y-88354819D01*
X99464762Y-88354819D02*
X99369524Y-88402438D01*
X99369524Y-88402438D02*
X99321905Y-88450057D01*
X99321905Y-88450057D02*
X99274286Y-88545295D01*
X99274286Y-88545295D02*
X99274286Y-88783390D01*
X99274286Y-88783390D02*
X99321905Y-88878628D01*
X99321905Y-88878628D02*
X99369524Y-88926247D01*
X99369524Y-88926247D02*
X99464762Y-88973866D01*
X99464762Y-88973866D02*
X99655238Y-88973866D01*
X99655238Y-88973866D02*
X99750476Y-88926247D01*
X99750476Y-88926247D02*
X99798095Y-88878628D01*
X99798095Y-88878628D02*
X99845714Y-88783390D01*
X106418095Y-88354819D02*
X105941905Y-88354819D01*
X105941905Y-88354819D02*
X105894286Y-88831009D01*
X105894286Y-88831009D02*
X105941905Y-88783390D01*
X105941905Y-88783390D02*
X106037143Y-88735771D01*
X106037143Y-88735771D02*
X106275238Y-88735771D01*
X106275238Y-88735771D02*
X106370476Y-88783390D01*
X106370476Y-88783390D02*
X106418095Y-88831009D01*
X106418095Y-88831009D02*
X106465714Y-88926247D01*
X106465714Y-88926247D02*
X106465714Y-89164342D01*
X106465714Y-89164342D02*
X106418095Y-89259580D01*
X106418095Y-89259580D02*
X106370476Y-89307200D01*
X106370476Y-89307200D02*
X106275238Y-89354819D01*
X106275238Y-89354819D02*
X106037143Y-89354819D01*
X106037143Y-89354819D02*
X105941905Y-89307200D01*
X105941905Y-89307200D02*
X105894286Y-89259580D01*
X106894286Y-89354819D02*
X106894286Y-88354819D01*
X107465714Y-89354819D02*
X107037143Y-88783390D01*
X107465714Y-88354819D02*
X106894286Y-88926247D01*
X70358095Y-86024819D02*
X70358095Y-86834342D01*
X70358095Y-86834342D02*
X70405714Y-86929580D01*
X70405714Y-86929580D02*
X70453333Y-86977200D01*
X70453333Y-86977200D02*
X70548571Y-87024819D01*
X70548571Y-87024819D02*
X70739047Y-87024819D01*
X70739047Y-87024819D02*
X70834285Y-86977200D01*
X70834285Y-86977200D02*
X70881904Y-86929580D01*
X70881904Y-86929580D02*
X70929523Y-86834342D01*
X70929523Y-86834342D02*
X70929523Y-86024819D01*
X71881904Y-86024819D02*
X71405714Y-86024819D01*
X71405714Y-86024819D02*
X71358095Y-86501009D01*
X71358095Y-86501009D02*
X71405714Y-86453390D01*
X71405714Y-86453390D02*
X71500952Y-86405771D01*
X71500952Y-86405771D02*
X71739047Y-86405771D01*
X71739047Y-86405771D02*
X71834285Y-86453390D01*
X71834285Y-86453390D02*
X71881904Y-86501009D01*
X71881904Y-86501009D02*
X71929523Y-86596247D01*
X71929523Y-86596247D02*
X71929523Y-86834342D01*
X71929523Y-86834342D02*
X71881904Y-86929580D01*
X71881904Y-86929580D02*
X71834285Y-86977200D01*
X71834285Y-86977200D02*
X71739047Y-87024819D01*
X71739047Y-87024819D02*
X71500952Y-87024819D01*
X71500952Y-87024819D02*
X71405714Y-86977200D01*
X71405714Y-86977200D02*
X71358095Y-86929580D01*
X68334286Y-105924819D02*
X69000952Y-105924819D01*
X69000952Y-105924819D02*
X68572381Y-106924819D01*
X69810476Y-106258152D02*
X69810476Y-106924819D01*
X69572381Y-105877200D02*
X69334286Y-106591485D01*
X69334286Y-106591485D02*
X69953333Y-106591485D01*
X70334286Y-106924819D02*
X70334286Y-105924819D01*
X70334286Y-106401009D02*
X70905714Y-106401009D01*
X70905714Y-106924819D02*
X70905714Y-105924819D01*
X71953333Y-106829580D02*
X71905714Y-106877200D01*
X71905714Y-106877200D02*
X71762857Y-106924819D01*
X71762857Y-106924819D02*
X71667619Y-106924819D01*
X71667619Y-106924819D02*
X71524762Y-106877200D01*
X71524762Y-106877200D02*
X71429524Y-106781961D01*
X71429524Y-106781961D02*
X71381905Y-106686723D01*
X71381905Y-106686723D02*
X71334286Y-106496247D01*
X71334286Y-106496247D02*
X71334286Y-106353390D01*
X71334286Y-106353390D02*
X71381905Y-106162914D01*
X71381905Y-106162914D02*
X71429524Y-106067676D01*
X71429524Y-106067676D02*
X71524762Y-105972438D01*
X71524762Y-105972438D02*
X71667619Y-105924819D01*
X71667619Y-105924819D02*
X71762857Y-105924819D01*
X71762857Y-105924819D02*
X71905714Y-105972438D01*
X71905714Y-105972438D02*
X71953333Y-106020057D01*
X72572381Y-105924819D02*
X72667619Y-105924819D01*
X72667619Y-105924819D02*
X72762857Y-105972438D01*
X72762857Y-105972438D02*
X72810476Y-106020057D01*
X72810476Y-106020057D02*
X72858095Y-106115295D01*
X72858095Y-106115295D02*
X72905714Y-106305771D01*
X72905714Y-106305771D02*
X72905714Y-106543866D01*
X72905714Y-106543866D02*
X72858095Y-106734342D01*
X72858095Y-106734342D02*
X72810476Y-106829580D01*
X72810476Y-106829580D02*
X72762857Y-106877200D01*
X72762857Y-106877200D02*
X72667619Y-106924819D01*
X72667619Y-106924819D02*
X72572381Y-106924819D01*
X72572381Y-106924819D02*
X72477143Y-106877200D01*
X72477143Y-106877200D02*
X72429524Y-106829580D01*
X72429524Y-106829580D02*
X72381905Y-106734342D01*
X72381905Y-106734342D02*
X72334286Y-106543866D01*
X72334286Y-106543866D02*
X72334286Y-106305771D01*
X72334286Y-106305771D02*
X72381905Y-106115295D01*
X72381905Y-106115295D02*
X72429524Y-106020057D01*
X72429524Y-106020057D02*
X72477143Y-105972438D01*
X72477143Y-105972438D02*
X72572381Y-105924819D01*
X73524762Y-105924819D02*
X73620000Y-105924819D01*
X73620000Y-105924819D02*
X73715238Y-105972438D01*
X73715238Y-105972438D02*
X73762857Y-106020057D01*
X73762857Y-106020057D02*
X73810476Y-106115295D01*
X73810476Y-106115295D02*
X73858095Y-106305771D01*
X73858095Y-106305771D02*
X73858095Y-106543866D01*
X73858095Y-106543866D02*
X73810476Y-106734342D01*
X73810476Y-106734342D02*
X73762857Y-106829580D01*
X73762857Y-106829580D02*
X73715238Y-106877200D01*
X73715238Y-106877200D02*
X73620000Y-106924819D01*
X73620000Y-106924819D02*
X73524762Y-106924819D01*
X73524762Y-106924819D02*
X73429524Y-106877200D01*
X73429524Y-106877200D02*
X73381905Y-106829580D01*
X73381905Y-106829580D02*
X73334286Y-106734342D01*
X73334286Y-106734342D02*
X73286667Y-106543866D01*
X73286667Y-106543866D02*
X73286667Y-106305771D01*
X73286667Y-106305771D02*
X73334286Y-106115295D01*
X73334286Y-106115295D02*
X73381905Y-106020057D01*
X73381905Y-106020057D02*
X73429524Y-105972438D01*
X73429524Y-105972438D02*
X73524762Y-105924819D01*
X120503333Y-40939580D02*
X120455714Y-40987200D01*
X120455714Y-40987200D02*
X120312857Y-41034819D01*
X120312857Y-41034819D02*
X120217619Y-41034819D01*
X120217619Y-41034819D02*
X120074762Y-40987200D01*
X120074762Y-40987200D02*
X119979524Y-40891961D01*
X119979524Y-40891961D02*
X119931905Y-40796723D01*
X119931905Y-40796723D02*
X119884286Y-40606247D01*
X119884286Y-40606247D02*
X119884286Y-40463390D01*
X119884286Y-40463390D02*
X119931905Y-40272914D01*
X119931905Y-40272914D02*
X119979524Y-40177676D01*
X119979524Y-40177676D02*
X120074762Y-40082438D01*
X120074762Y-40082438D02*
X120217619Y-40034819D01*
X120217619Y-40034819D02*
X120312857Y-40034819D01*
X120312857Y-40034819D02*
X120455714Y-40082438D01*
X120455714Y-40082438D02*
X120503333Y-40130057D01*
X121360476Y-40034819D02*
X121170000Y-40034819D01*
X121170000Y-40034819D02*
X121074762Y-40082438D01*
X121074762Y-40082438D02*
X121027143Y-40130057D01*
X121027143Y-40130057D02*
X120931905Y-40272914D01*
X120931905Y-40272914D02*
X120884286Y-40463390D01*
X120884286Y-40463390D02*
X120884286Y-40844342D01*
X120884286Y-40844342D02*
X120931905Y-40939580D01*
X120931905Y-40939580D02*
X120979524Y-40987200D01*
X120979524Y-40987200D02*
X121074762Y-41034819D01*
X121074762Y-41034819D02*
X121265238Y-41034819D01*
X121265238Y-41034819D02*
X121360476Y-40987200D01*
X121360476Y-40987200D02*
X121408095Y-40939580D01*
X121408095Y-40939580D02*
X121455714Y-40844342D01*
X121455714Y-40844342D02*
X121455714Y-40606247D01*
X121455714Y-40606247D02*
X121408095Y-40511009D01*
X121408095Y-40511009D02*
X121360476Y-40463390D01*
X121360476Y-40463390D02*
X121265238Y-40415771D01*
X121265238Y-40415771D02*
X121074762Y-40415771D01*
X121074762Y-40415771D02*
X120979524Y-40463390D01*
X120979524Y-40463390D02*
X120931905Y-40511009D01*
X120931905Y-40511009D02*
X120884286Y-40606247D01*
X98893333Y-77924819D02*
X98560000Y-77448628D01*
X98321905Y-77924819D02*
X98321905Y-76924819D01*
X98321905Y-76924819D02*
X98702857Y-76924819D01*
X98702857Y-76924819D02*
X98798095Y-76972438D01*
X98798095Y-76972438D02*
X98845714Y-77020057D01*
X98845714Y-77020057D02*
X98893333Y-77115295D01*
X98893333Y-77115295D02*
X98893333Y-77258152D01*
X98893333Y-77258152D02*
X98845714Y-77353390D01*
X98845714Y-77353390D02*
X98798095Y-77401009D01*
X98798095Y-77401009D02*
X98702857Y-77448628D01*
X98702857Y-77448628D02*
X98321905Y-77448628D01*
X99750476Y-76924819D02*
X99560000Y-76924819D01*
X99560000Y-76924819D02*
X99464762Y-76972438D01*
X99464762Y-76972438D02*
X99417143Y-77020057D01*
X99417143Y-77020057D02*
X99321905Y-77162914D01*
X99321905Y-77162914D02*
X99274286Y-77353390D01*
X99274286Y-77353390D02*
X99274286Y-77734342D01*
X99274286Y-77734342D02*
X99321905Y-77829580D01*
X99321905Y-77829580D02*
X99369524Y-77877200D01*
X99369524Y-77877200D02*
X99464762Y-77924819D01*
X99464762Y-77924819D02*
X99655238Y-77924819D01*
X99655238Y-77924819D02*
X99750476Y-77877200D01*
X99750476Y-77877200D02*
X99798095Y-77829580D01*
X99798095Y-77829580D02*
X99845714Y-77734342D01*
X99845714Y-77734342D02*
X99845714Y-77496247D01*
X99845714Y-77496247D02*
X99798095Y-77401009D01*
X99798095Y-77401009D02*
X99750476Y-77353390D01*
X99750476Y-77353390D02*
X99655238Y-77305771D01*
X99655238Y-77305771D02*
X99464762Y-77305771D01*
X99464762Y-77305771D02*
X99369524Y-77353390D01*
X99369524Y-77353390D02*
X99321905Y-77401009D01*
X99321905Y-77401009D02*
X99274286Y-77496247D01*
X106418095Y-76924819D02*
X105941905Y-76924819D01*
X105941905Y-76924819D02*
X105894286Y-77401009D01*
X105894286Y-77401009D02*
X105941905Y-77353390D01*
X105941905Y-77353390D02*
X106037143Y-77305771D01*
X106037143Y-77305771D02*
X106275238Y-77305771D01*
X106275238Y-77305771D02*
X106370476Y-77353390D01*
X106370476Y-77353390D02*
X106418095Y-77401009D01*
X106418095Y-77401009D02*
X106465714Y-77496247D01*
X106465714Y-77496247D02*
X106465714Y-77734342D01*
X106465714Y-77734342D02*
X106418095Y-77829580D01*
X106418095Y-77829580D02*
X106370476Y-77877200D01*
X106370476Y-77877200D02*
X106275238Y-77924819D01*
X106275238Y-77924819D02*
X106037143Y-77924819D01*
X106037143Y-77924819D02*
X105941905Y-77877200D01*
X105941905Y-77877200D02*
X105894286Y-77829580D01*
X106894286Y-77924819D02*
X106894286Y-76924819D01*
X107465714Y-77924819D02*
X107037143Y-77353390D01*
X107465714Y-76924819D02*
X106894286Y-77496247D01*
X108674819Y-56689523D02*
X109674819Y-56022857D01*
X108674819Y-56022857D02*
X109674819Y-56689523D01*
X109674819Y-55118095D02*
X109674819Y-55689523D01*
X109674819Y-55403809D02*
X108674819Y-55403809D01*
X108674819Y-55403809D02*
X108817676Y-55499047D01*
X108817676Y-55499047D02*
X108912914Y-55594285D01*
X108912914Y-55594285D02*
X108960533Y-55689523D01*
X102124819Y-57475238D02*
X102124819Y-58046666D01*
X102124819Y-57760952D02*
X101124819Y-57760952D01*
X101124819Y-57760952D02*
X101267676Y-57856190D01*
X101267676Y-57856190D02*
X101362914Y-57951428D01*
X101362914Y-57951428D02*
X101410533Y-58046666D01*
X102124819Y-56284761D02*
X101124819Y-56284761D01*
X101124819Y-56284761D02*
X101839104Y-55951428D01*
X101839104Y-55951428D02*
X101124819Y-55618095D01*
X101124819Y-55618095D02*
X102124819Y-55618095D01*
X102124819Y-55141904D02*
X101124819Y-55141904D01*
X101601009Y-55141904D02*
X101601009Y-54570476D01*
X102124819Y-54570476D02*
X101124819Y-54570476D01*
X101458152Y-54189523D02*
X101458152Y-53665714D01*
X101458152Y-53665714D02*
X102124819Y-54189523D01*
X102124819Y-54189523D02*
X102124819Y-53665714D01*
X122451905Y-86394819D02*
X122451905Y-85394819D01*
X122451905Y-85394819D02*
X122690000Y-85394819D01*
X122690000Y-85394819D02*
X122832857Y-85442438D01*
X122832857Y-85442438D02*
X122928095Y-85537676D01*
X122928095Y-85537676D02*
X122975714Y-85632914D01*
X122975714Y-85632914D02*
X123023333Y-85823390D01*
X123023333Y-85823390D02*
X123023333Y-85966247D01*
X123023333Y-85966247D02*
X122975714Y-86156723D01*
X122975714Y-86156723D02*
X122928095Y-86251961D01*
X122928095Y-86251961D02*
X122832857Y-86347200D01*
X122832857Y-86347200D02*
X122690000Y-86394819D01*
X122690000Y-86394819D02*
X122451905Y-86394819D01*
X123404286Y-85490057D02*
X123451905Y-85442438D01*
X123451905Y-85442438D02*
X123547143Y-85394819D01*
X123547143Y-85394819D02*
X123785238Y-85394819D01*
X123785238Y-85394819D02*
X123880476Y-85442438D01*
X123880476Y-85442438D02*
X123928095Y-85490057D01*
X123928095Y-85490057D02*
X123975714Y-85585295D01*
X123975714Y-85585295D02*
X123975714Y-85680533D01*
X123975714Y-85680533D02*
X123928095Y-85823390D01*
X123928095Y-85823390D02*
X123356667Y-86394819D01*
X123356667Y-86394819D02*
X123975714Y-86394819D01*
X35224819Y-25733333D02*
X35939104Y-25733333D01*
X35939104Y-25733333D02*
X36081961Y-25780952D01*
X36081961Y-25780952D02*
X36177200Y-25876190D01*
X36177200Y-25876190D02*
X36224819Y-26019047D01*
X36224819Y-26019047D02*
X36224819Y-26114285D01*
X35320057Y-25304761D02*
X35272438Y-25257142D01*
X35272438Y-25257142D02*
X35224819Y-25161904D01*
X35224819Y-25161904D02*
X35224819Y-24923809D01*
X35224819Y-24923809D02*
X35272438Y-24828571D01*
X35272438Y-24828571D02*
X35320057Y-24780952D01*
X35320057Y-24780952D02*
X35415295Y-24733333D01*
X35415295Y-24733333D02*
X35510533Y-24733333D01*
X35510533Y-24733333D02*
X35653390Y-24780952D01*
X35653390Y-24780952D02*
X36224819Y-25352380D01*
X36224819Y-25352380D02*
X36224819Y-24733333D01*
X41136667Y-111437200D02*
X41279524Y-111484819D01*
X41279524Y-111484819D02*
X41517619Y-111484819D01*
X41517619Y-111484819D02*
X41612857Y-111437200D01*
X41612857Y-111437200D02*
X41660476Y-111389580D01*
X41660476Y-111389580D02*
X41708095Y-111294342D01*
X41708095Y-111294342D02*
X41708095Y-111199104D01*
X41708095Y-111199104D02*
X41660476Y-111103866D01*
X41660476Y-111103866D02*
X41612857Y-111056247D01*
X41612857Y-111056247D02*
X41517619Y-111008628D01*
X41517619Y-111008628D02*
X41327143Y-110961009D01*
X41327143Y-110961009D02*
X41231905Y-110913390D01*
X41231905Y-110913390D02*
X41184286Y-110865771D01*
X41184286Y-110865771D02*
X41136667Y-110770533D01*
X41136667Y-110770533D02*
X41136667Y-110675295D01*
X41136667Y-110675295D02*
X41184286Y-110580057D01*
X41184286Y-110580057D02*
X41231905Y-110532438D01*
X41231905Y-110532438D02*
X41327143Y-110484819D01*
X41327143Y-110484819D02*
X41565238Y-110484819D01*
X41565238Y-110484819D02*
X41708095Y-110532438D01*
X42041429Y-110484819D02*
X42279524Y-111484819D01*
X42279524Y-111484819D02*
X42470000Y-110770533D01*
X42470000Y-110770533D02*
X42660476Y-111484819D01*
X42660476Y-111484819D02*
X42898572Y-110484819D01*
X43184286Y-110484819D02*
X43803333Y-110484819D01*
X43803333Y-110484819D02*
X43470000Y-110865771D01*
X43470000Y-110865771D02*
X43612857Y-110865771D01*
X43612857Y-110865771D02*
X43708095Y-110913390D01*
X43708095Y-110913390D02*
X43755714Y-110961009D01*
X43755714Y-110961009D02*
X43803333Y-111056247D01*
X43803333Y-111056247D02*
X43803333Y-111294342D01*
X43803333Y-111294342D02*
X43755714Y-111389580D01*
X43755714Y-111389580D02*
X43708095Y-111437200D01*
X43708095Y-111437200D02*
X43612857Y-111484819D01*
X43612857Y-111484819D02*
X43327143Y-111484819D01*
X43327143Y-111484819D02*
X43231905Y-111437200D01*
X43231905Y-111437200D02*
X43184286Y-111389580D01*
X37284819Y-96051666D02*
X36808628Y-96384999D01*
X37284819Y-96623094D02*
X36284819Y-96623094D01*
X36284819Y-96623094D02*
X36284819Y-96242142D01*
X36284819Y-96242142D02*
X36332438Y-96146904D01*
X36332438Y-96146904D02*
X36380057Y-96099285D01*
X36380057Y-96099285D02*
X36475295Y-96051666D01*
X36475295Y-96051666D02*
X36618152Y-96051666D01*
X36618152Y-96051666D02*
X36713390Y-96099285D01*
X36713390Y-96099285D02*
X36761009Y-96146904D01*
X36761009Y-96146904D02*
X36808628Y-96242142D01*
X36808628Y-96242142D02*
X36808628Y-96623094D01*
X36380057Y-95670713D02*
X36332438Y-95623094D01*
X36332438Y-95623094D02*
X36284819Y-95527856D01*
X36284819Y-95527856D02*
X36284819Y-95289761D01*
X36284819Y-95289761D02*
X36332438Y-95194523D01*
X36332438Y-95194523D02*
X36380057Y-95146904D01*
X36380057Y-95146904D02*
X36475295Y-95099285D01*
X36475295Y-95099285D02*
X36570533Y-95099285D01*
X36570533Y-95099285D02*
X36713390Y-95146904D01*
X36713390Y-95146904D02*
X37284819Y-95718332D01*
X37284819Y-95718332D02*
X37284819Y-95099285D01*
X36284819Y-92336904D02*
X36284819Y-92813094D01*
X36284819Y-92813094D02*
X36761009Y-92860713D01*
X36761009Y-92860713D02*
X36713390Y-92813094D01*
X36713390Y-92813094D02*
X36665771Y-92717856D01*
X36665771Y-92717856D02*
X36665771Y-92479761D01*
X36665771Y-92479761D02*
X36713390Y-92384523D01*
X36713390Y-92384523D02*
X36761009Y-92336904D01*
X36761009Y-92336904D02*
X36856247Y-92289285D01*
X36856247Y-92289285D02*
X37094342Y-92289285D01*
X37094342Y-92289285D02*
X37189580Y-92336904D01*
X37189580Y-92336904D02*
X37237200Y-92384523D01*
X37237200Y-92384523D02*
X37284819Y-92479761D01*
X37284819Y-92479761D02*
X37284819Y-92717856D01*
X37284819Y-92717856D02*
X37237200Y-92813094D01*
X37237200Y-92813094D02*
X37189580Y-92860713D01*
X37284819Y-91860713D02*
X36284819Y-91860713D01*
X37284819Y-91289285D02*
X36713390Y-91717856D01*
X36284819Y-91289285D02*
X36856247Y-91860713D01*
X109486666Y-38784819D02*
X109486666Y-39499104D01*
X109486666Y-39499104D02*
X109439047Y-39641961D01*
X109439047Y-39641961D02*
X109343809Y-39737200D01*
X109343809Y-39737200D02*
X109200952Y-39784819D01*
X109200952Y-39784819D02*
X109105714Y-39784819D01*
X110486666Y-39784819D02*
X109915238Y-39784819D01*
X110200952Y-39784819D02*
X110200952Y-38784819D01*
X110200952Y-38784819D02*
X110105714Y-38927676D01*
X110105714Y-38927676D02*
X110010476Y-39022914D01*
X110010476Y-39022914D02*
X109915238Y-39070533D01*
X98417142Y-100784819D02*
X98083809Y-100308628D01*
X97845714Y-100784819D02*
X97845714Y-99784819D01*
X97845714Y-99784819D02*
X98226666Y-99784819D01*
X98226666Y-99784819D02*
X98321904Y-99832438D01*
X98321904Y-99832438D02*
X98369523Y-99880057D01*
X98369523Y-99880057D02*
X98417142Y-99975295D01*
X98417142Y-99975295D02*
X98417142Y-100118152D01*
X98417142Y-100118152D02*
X98369523Y-100213390D01*
X98369523Y-100213390D02*
X98321904Y-100261009D01*
X98321904Y-100261009D02*
X98226666Y-100308628D01*
X98226666Y-100308628D02*
X97845714Y-100308628D01*
X99369523Y-100784819D02*
X98798095Y-100784819D01*
X99083809Y-100784819D02*
X99083809Y-99784819D01*
X99083809Y-99784819D02*
X98988571Y-99927676D01*
X98988571Y-99927676D02*
X98893333Y-100022914D01*
X98893333Y-100022914D02*
X98798095Y-100070533D01*
X99750476Y-99880057D02*
X99798095Y-99832438D01*
X99798095Y-99832438D02*
X99893333Y-99784819D01*
X99893333Y-99784819D02*
X100131428Y-99784819D01*
X100131428Y-99784819D02*
X100226666Y-99832438D01*
X100226666Y-99832438D02*
X100274285Y-99880057D01*
X100274285Y-99880057D02*
X100321904Y-99975295D01*
X100321904Y-99975295D02*
X100321904Y-100070533D01*
X100321904Y-100070533D02*
X100274285Y-100213390D01*
X100274285Y-100213390D02*
X99702857Y-100784819D01*
X99702857Y-100784819D02*
X100321904Y-100784819D01*
X105989523Y-100784819D02*
X105418095Y-100784819D01*
X105703809Y-100784819D02*
X105703809Y-99784819D01*
X105703809Y-99784819D02*
X105608571Y-99927676D01*
X105608571Y-99927676D02*
X105513333Y-100022914D01*
X105513333Y-100022914D02*
X105418095Y-100070533D01*
X106608571Y-99784819D02*
X106703809Y-99784819D01*
X106703809Y-99784819D02*
X106799047Y-99832438D01*
X106799047Y-99832438D02*
X106846666Y-99880057D01*
X106846666Y-99880057D02*
X106894285Y-99975295D01*
X106894285Y-99975295D02*
X106941904Y-100165771D01*
X106941904Y-100165771D02*
X106941904Y-100403866D01*
X106941904Y-100403866D02*
X106894285Y-100594342D01*
X106894285Y-100594342D02*
X106846666Y-100689580D01*
X106846666Y-100689580D02*
X106799047Y-100737200D01*
X106799047Y-100737200D02*
X106703809Y-100784819D01*
X106703809Y-100784819D02*
X106608571Y-100784819D01*
X106608571Y-100784819D02*
X106513333Y-100737200D01*
X106513333Y-100737200D02*
X106465714Y-100689580D01*
X106465714Y-100689580D02*
X106418095Y-100594342D01*
X106418095Y-100594342D02*
X106370476Y-100403866D01*
X106370476Y-100403866D02*
X106370476Y-100165771D01*
X106370476Y-100165771D02*
X106418095Y-99975295D01*
X106418095Y-99975295D02*
X106465714Y-99880057D01*
X106465714Y-99880057D02*
X106513333Y-99832438D01*
X106513333Y-99832438D02*
X106608571Y-99784819D01*
X107370476Y-100784819D02*
X107370476Y-99784819D01*
X107941904Y-100784819D02*
X107513333Y-100213390D01*
X107941904Y-99784819D02*
X107370476Y-100356247D01*
D14*
X80113333Y-32207419D02*
X79637143Y-32207419D01*
X79637143Y-32207419D02*
X79637143Y-31207419D01*
X81018095Y-32112180D02*
X80970476Y-32159800D01*
X80970476Y-32159800D02*
X80827619Y-32207419D01*
X80827619Y-32207419D02*
X80732381Y-32207419D01*
X80732381Y-32207419D02*
X80589524Y-32159800D01*
X80589524Y-32159800D02*
X80494286Y-32064561D01*
X80494286Y-32064561D02*
X80446667Y-31969323D01*
X80446667Y-31969323D02*
X80399048Y-31778847D01*
X80399048Y-31778847D02*
X80399048Y-31635990D01*
X80399048Y-31635990D02*
X80446667Y-31445514D01*
X80446667Y-31445514D02*
X80494286Y-31350276D01*
X80494286Y-31350276D02*
X80589524Y-31255038D01*
X80589524Y-31255038D02*
X80732381Y-31207419D01*
X80732381Y-31207419D02*
X80827619Y-31207419D01*
X80827619Y-31207419D02*
X80970476Y-31255038D01*
X80970476Y-31255038D02*
X81018095Y-31302657D01*
X81446667Y-32207419D02*
X81446667Y-31207419D01*
X81446667Y-31207419D02*
X81684762Y-31207419D01*
X81684762Y-31207419D02*
X81827619Y-31255038D01*
X81827619Y-31255038D02*
X81922857Y-31350276D01*
X81922857Y-31350276D02*
X81970476Y-31445514D01*
X81970476Y-31445514D02*
X82018095Y-31635990D01*
X82018095Y-31635990D02*
X82018095Y-31778847D01*
X82018095Y-31778847D02*
X81970476Y-31969323D01*
X81970476Y-31969323D02*
X81922857Y-32064561D01*
X81922857Y-32064561D02*
X81827619Y-32159800D01*
X81827619Y-32159800D02*
X81684762Y-32207419D01*
X81684762Y-32207419D02*
X81446667Y-32207419D01*
X82970476Y-32207419D02*
X82399048Y-32207419D01*
X82684762Y-32207419D02*
X82684762Y-31207419D01*
X82684762Y-31207419D02*
X82589524Y-31350276D01*
X82589524Y-31350276D02*
X82494286Y-31445514D01*
X82494286Y-31445514D02*
X82399048Y-31493133D01*
D15*
%TO.C,R1*%
X33020000Y-98020000D02*
X33020000Y-97250000D01*
X31650000Y-97250000D02*
X34390000Y-97250000D01*
X34390000Y-97250000D02*
X34390000Y-90710000D01*
X31650000Y-90710000D02*
X31650000Y-97250000D01*
X34390000Y-90710000D02*
X31650000Y-90710000D01*
X33020000Y-89940000D02*
X33020000Y-90710000D01*
%TO.C,C3*%
X89840000Y-34440000D02*
X89840000Y-34505000D01*
X89840000Y-34440000D02*
X93080000Y-34440000D01*
X89840000Y-36615000D02*
X89840000Y-36680000D01*
X89840000Y-36680000D02*
X93080000Y-36680000D01*
X93080000Y-34440000D02*
X93080000Y-34505000D01*
X93080000Y-36615000D02*
X93080000Y-36680000D01*
%TO.C,R10*%
X102640000Y-92710000D02*
X103410000Y-92710000D01*
X103410000Y-91340000D02*
X103410000Y-94080000D01*
X103410000Y-94080000D02*
X109950000Y-94080000D01*
X109950000Y-91340000D02*
X103410000Y-91340000D01*
X109950000Y-94080000D02*
X109950000Y-91340000D01*
X110720000Y-92710000D02*
X109950000Y-92710000D01*
%TO.C,U4*%
X121320000Y-78310000D02*
X117470000Y-78310000D01*
X119380000Y-82609999D02*
G75*
G03*
X121736399Y-81108807I0J2599999D01*
G01*
X121702631Y-78887955D02*
G75*
G03*
X121320000Y-78310000I-2322631J-1122045D01*
G01*
X117023600Y-81108807D02*
G75*
G03*
X119380000Y-82610000I2356400J1098807D01*
G01*
X117470001Y-78310001D02*
G75*
G03*
X117077618Y-78897736I1909999J-1699999D01*
G01*
%TO.C,SW7*%
X113900000Y-111990000D02*
X113900000Y-113490000D01*
X115150000Y-115990000D02*
X119650000Y-115990000D01*
X119650000Y-109490000D02*
X115150000Y-109490000D01*
X120900000Y-113490000D02*
X120900000Y-111990000D01*
%TO.C,U7*%
X87590000Y-23400000D02*
X87590000Y-28041000D01*
X87590000Y-23400000D02*
X97830000Y-23400000D01*
X87590000Y-24910000D02*
X97830000Y-24910000D01*
X87590000Y-28041000D02*
X97830000Y-28041000D01*
X90860000Y-23400000D02*
X90860000Y-24910000D01*
X94561000Y-23400000D02*
X94561000Y-24910000D01*
X97830000Y-23400000D02*
X97830000Y-28041000D01*
%TO.C,SW5*%
X49130000Y-109450000D02*
X49130000Y-110950000D01*
X50380000Y-113450000D02*
X54880000Y-113450000D01*
X54880000Y-106950000D02*
X50380000Y-106950000D01*
X56130000Y-110950000D02*
X56130000Y-109450000D01*
%TO.C,SW1*%
X115805000Y-98020000D02*
X115805000Y-99520000D01*
X117055000Y-102020000D02*
X121555000Y-102020000D01*
X121555000Y-95520000D02*
X117055000Y-95520000D01*
X122805000Y-99520000D02*
X122805000Y-98020000D01*
%TO.C,C1*%
X30330000Y-58050000D02*
X30265000Y-58050000D01*
X30330000Y-58050000D02*
X30330000Y-61290000D01*
X28155000Y-58050000D02*
X28090000Y-58050000D01*
X28090000Y-58050000D02*
X28090000Y-61290000D01*
X30330000Y-61290000D02*
X30265000Y-61290000D01*
X28155000Y-61290000D02*
X28090000Y-61290000D01*
%TO.C,SW2*%
X38970000Y-104950000D02*
X38970000Y-106450000D01*
X40220000Y-108950000D02*
X44720000Y-108950000D01*
X44720000Y-102450000D02*
X40220000Y-102450000D01*
X45970000Y-106450000D02*
X45970000Y-104950000D01*
%TO.C,R3*%
X40640000Y-98020000D02*
X40640000Y-97250000D01*
X39270000Y-97250000D02*
X42010000Y-97250000D01*
X42010000Y-97250000D02*
X42010000Y-90710000D01*
X39270000Y-90710000D02*
X39270000Y-97250000D01*
X42010000Y-90710000D02*
X39270000Y-90710000D01*
X40640000Y-89940000D02*
X40640000Y-90710000D01*
%TO.C,D1*%
X114010000Y-87664000D02*
X114010000Y-87820000D01*
X114010000Y-89980000D02*
X114010000Y-90136000D01*
X117242334Y-87821392D02*
G75*
G03*
X114010001Y-87664485I-1672334J-1078608D01*
G01*
X116611129Y-87820164D02*
G75*
G03*
X114529040Y-87820001I-1041129J-1079836D01*
G01*
X114529040Y-89979999D02*
G75*
G03*
X116611129Y-89979836I1040960J1079999D01*
G01*
X114010001Y-90135515D02*
G75*
G03*
X117242334Y-89978608I1559999J1235515D01*
G01*
%TO.C,C4*%
X72760000Y-84940000D02*
X72760000Y-84875000D01*
X72760000Y-84940000D02*
X69520000Y-84940000D01*
X72760000Y-82765000D02*
X72760000Y-82700000D01*
X72760000Y-82700000D02*
X69520000Y-82700000D01*
X69520000Y-84940000D02*
X69520000Y-84875000D01*
X69520000Y-82765000D02*
X69520000Y-82700000D01*
%TO.C,C2*%
X64400000Y-34440000D02*
X64400000Y-34505000D01*
X64400000Y-34440000D02*
X67640000Y-34440000D01*
X64400000Y-36615000D02*
X64400000Y-36680000D01*
X64400000Y-36680000D02*
X67640000Y-36680000D01*
X67640000Y-34440000D02*
X67640000Y-34505000D01*
X67640000Y-36615000D02*
X67640000Y-36680000D01*
%TO.C,U6*%
X81220000Y-87510000D02*
X81220000Y-108070000D01*
X81220000Y-108070000D02*
X91500000Y-108070000D01*
X83710000Y-87570000D02*
X83710000Y-108010000D01*
X83710000Y-108010000D02*
X89010000Y-108010000D01*
X85360000Y-87570000D02*
X83710000Y-87570000D01*
X89010000Y-87570000D02*
X87360000Y-87570000D01*
X89010000Y-108010000D02*
X89010000Y-87570000D01*
X91500000Y-87510000D02*
X81220000Y-87510000D01*
X91500000Y-108070000D02*
X91500000Y-87510000D01*
X85360000Y-87570000D02*
G75*
G03*
X87360000Y-87570000I1000000J0D01*
G01*
%TO.C,R13*%
X102640000Y-104140000D02*
X103410000Y-104140000D01*
X103410000Y-102770000D02*
X103410000Y-105510000D01*
X103410000Y-105510000D02*
X109950000Y-105510000D01*
X109950000Y-102770000D02*
X103410000Y-102770000D01*
X109950000Y-105510000D02*
X109950000Y-102770000D01*
X110720000Y-104140000D02*
X109950000Y-104140000D01*
%TO.C,SW6*%
X100080000Y-111990000D02*
X100080000Y-113490000D01*
X101330000Y-115990000D02*
X105830000Y-115990000D01*
X105830000Y-109490000D02*
X101330000Y-109490000D01*
X107080000Y-113490000D02*
X107080000Y-111990000D01*
%TO.C,R11*%
X102640000Y-96520000D02*
X103410000Y-96520000D01*
X103410000Y-95150000D02*
X103410000Y-97890000D01*
X103410000Y-97890000D02*
X109950000Y-97890000D01*
X109950000Y-95150000D02*
X103410000Y-95150000D01*
X109950000Y-97890000D02*
X109950000Y-95150000D01*
X110720000Y-96520000D02*
X109950000Y-96520000D01*
%TO.C,U1*%
X34180000Y-34230000D02*
X34180000Y-85150000D01*
X34180000Y-85150000D02*
X47100000Y-85150000D01*
X39640000Y-34230000D02*
X34180000Y-34230000D01*
X47100000Y-34230000D02*
X41640000Y-34230000D01*
X47100000Y-85150000D02*
X47100000Y-34230000D01*
X39640000Y-34230000D02*
G75*
G03*
X41640000Y-34230000I1000000J0D01*
G01*
%TO.C,SW4*%
X28810000Y-109450000D02*
X28810000Y-110950000D01*
X30060000Y-113450000D02*
X34560000Y-113450000D01*
X34560000Y-106950000D02*
X30060000Y-106950000D01*
X35810000Y-110950000D02*
X35810000Y-109450000D01*
%TO.C,U3*%
X97900000Y-74990000D02*
X97900000Y-39310000D01*
X97900000Y-39310000D02*
X84980000Y-39310000D01*
X92440000Y-74990000D02*
X97900000Y-74990000D01*
X84980000Y-74990000D02*
X90440000Y-74990000D01*
X84980000Y-39310000D02*
X84980000Y-74990000D01*
X92440000Y-74990000D02*
G75*
G03*
X90440000Y-74990000I-1000000J0D01*
G01*
%TO.C,U8*%
X65920000Y-120710000D02*
X91560000Y-120710000D01*
X91560000Y-120710000D02*
X91560000Y-110430000D01*
X65980000Y-118220000D02*
X91500000Y-118220000D01*
X91500000Y-118220000D02*
X91500000Y-112920000D01*
X65980000Y-116570000D02*
X65980000Y-118220000D01*
X65980000Y-112920000D02*
X65980000Y-114570000D01*
X91500000Y-112920000D02*
X65980000Y-112920000D01*
X65920000Y-110430000D02*
X65920000Y-120710000D01*
X91560000Y-110430000D02*
X65920000Y-110430000D01*
X65980000Y-116570000D02*
G75*
G03*
X65980000Y-114570000I0J1000000D01*
G01*
%TO.C,R7*%
X102640000Y-81280000D02*
X103410000Y-81280000D01*
X103410000Y-79910000D02*
X103410000Y-82650000D01*
X103410000Y-82650000D02*
X109950000Y-82650000D01*
X109950000Y-79910000D02*
X103410000Y-79910000D01*
X109950000Y-82650000D02*
X109950000Y-79910000D01*
X110720000Y-81280000D02*
X109950000Y-81280000D01*
%TO.C,R5*%
X48260000Y-98020000D02*
X48260000Y-97250000D01*
X46890000Y-97250000D02*
X49630000Y-97250000D01*
X49630000Y-97250000D02*
X49630000Y-90710000D01*
X46890000Y-90710000D02*
X46890000Y-97250000D01*
X49630000Y-90710000D02*
X46890000Y-90710000D01*
X48260000Y-89940000D02*
X48260000Y-90710000D01*
%TO.C,R8*%
X102640000Y-85090000D02*
X103410000Y-85090000D01*
X103410000Y-83720000D02*
X103410000Y-86460000D01*
X103410000Y-86460000D02*
X109950000Y-86460000D01*
X109950000Y-83720000D02*
X103410000Y-83720000D01*
X109950000Y-86460000D02*
X109950000Y-83720000D01*
X110720000Y-85090000D02*
X109950000Y-85090000D01*
%TO.C,R4*%
X44450000Y-98020000D02*
X44450000Y-97250000D01*
X43080000Y-97250000D02*
X45820000Y-97250000D01*
X45820000Y-97250000D02*
X45820000Y-90710000D01*
X43080000Y-90710000D02*
X43080000Y-97250000D01*
X45820000Y-90710000D02*
X43080000Y-90710000D01*
X44450000Y-89940000D02*
X44450000Y-90710000D01*
%TO.C,C5*%
X88040000Y-84940000D02*
X88040000Y-84875000D01*
X88040000Y-84940000D02*
X84800000Y-84940000D01*
X88040000Y-82765000D02*
X88040000Y-82700000D01*
X88040000Y-82700000D02*
X84800000Y-82700000D01*
X84800000Y-84940000D02*
X84800000Y-84875000D01*
X84800000Y-82765000D02*
X84800000Y-82700000D01*
%TO.C,U2*%
X72500000Y-80070000D02*
X72500000Y-39310000D01*
X72500000Y-39310000D02*
X59580000Y-39310000D01*
X67040000Y-80070000D02*
X72500000Y-80070000D01*
X59580000Y-80070000D02*
X65040000Y-80070000D01*
X59580000Y-39310000D02*
X59580000Y-80070000D01*
X67040000Y-80070000D02*
G75*
G03*
X65040000Y-80070000I-1000000J0D01*
G01*
%TO.C,R9*%
X102640000Y-88900000D02*
X103410000Y-88900000D01*
X103410000Y-87530000D02*
X103410000Y-90270000D01*
X103410000Y-90270000D02*
X109950000Y-90270000D01*
X109950000Y-87530000D02*
X103410000Y-87530000D01*
X109950000Y-90270000D02*
X109950000Y-87530000D01*
X110720000Y-88900000D02*
X109950000Y-88900000D01*
%TO.C,U5*%
X65980000Y-87510000D02*
X65980000Y-105530000D01*
X65980000Y-105530000D02*
X76260000Y-105530000D01*
X68470000Y-87570000D02*
X68470000Y-105470000D01*
X68470000Y-105470000D02*
X73770000Y-105470000D01*
X70120000Y-87570000D02*
X68470000Y-87570000D01*
X73770000Y-87570000D02*
X72120000Y-87570000D01*
X73770000Y-105470000D02*
X73770000Y-87570000D01*
X76260000Y-87510000D02*
X65980000Y-87510000D01*
X76260000Y-105530000D02*
X76260000Y-87510000D01*
X70120000Y-87570000D02*
G75*
G03*
X72120000Y-87570000I1000000J0D01*
G01*
%TO.C,C6*%
X123474775Y-38305000D02*
X122974775Y-38305000D01*
X123224775Y-38555000D02*
X123224775Y-38055000D01*
X120670000Y-39410000D02*
X120670000Y-34250000D01*
X120630000Y-39410000D02*
X120630000Y-34250000D01*
X120590000Y-39409000D02*
X120590000Y-34251000D01*
X120550000Y-39408000D02*
X120550000Y-34252000D01*
X120510000Y-39406000D02*
X120510000Y-34254000D01*
X120470000Y-39403000D02*
X120470000Y-34257000D01*
X120430000Y-39399000D02*
X120430000Y-37870000D01*
X120430000Y-35790000D02*
X120430000Y-34261000D01*
X120390000Y-39395000D02*
X120390000Y-37870000D01*
X120390000Y-35790000D02*
X120390000Y-34265000D01*
X120350000Y-39391000D02*
X120350000Y-37870000D01*
X120350000Y-35790000D02*
X120350000Y-34269000D01*
X120310000Y-39386000D02*
X120310000Y-37870000D01*
X120310000Y-35790000D02*
X120310000Y-34274000D01*
X120270000Y-39380000D02*
X120270000Y-37870000D01*
X120270000Y-35790000D02*
X120270000Y-34280000D01*
X120230000Y-39373000D02*
X120230000Y-37870000D01*
X120230000Y-35790000D02*
X120230000Y-34287000D01*
X120190000Y-39366000D02*
X120190000Y-37870000D01*
X120190000Y-35790000D02*
X120190000Y-34294000D01*
X120150000Y-39358000D02*
X120150000Y-37870000D01*
X120150000Y-35790000D02*
X120150000Y-34302000D01*
X120110000Y-39350000D02*
X120110000Y-37870000D01*
X120110000Y-35790000D02*
X120110000Y-34310000D01*
X120070000Y-39341000D02*
X120070000Y-37870000D01*
X120070000Y-35790000D02*
X120070000Y-34319000D01*
X120030000Y-39331000D02*
X120030000Y-37870000D01*
X120030000Y-35790000D02*
X120030000Y-34329000D01*
X119990000Y-39321000D02*
X119990000Y-37870000D01*
X119990000Y-35790000D02*
X119990000Y-34339000D01*
X119949000Y-39310000D02*
X119949000Y-37870000D01*
X119949000Y-35790000D02*
X119949000Y-34350000D01*
X119909000Y-39298000D02*
X119909000Y-37870000D01*
X119909000Y-35790000D02*
X119909000Y-34362000D01*
X119869000Y-39285000D02*
X119869000Y-37870000D01*
X119869000Y-35790000D02*
X119869000Y-34375000D01*
X119829000Y-39272000D02*
X119829000Y-37870000D01*
X119829000Y-35790000D02*
X119829000Y-34388000D01*
X119789000Y-39258000D02*
X119789000Y-37870000D01*
X119789000Y-35790000D02*
X119789000Y-34402000D01*
X119749000Y-39244000D02*
X119749000Y-37870000D01*
X119749000Y-35790000D02*
X119749000Y-34416000D01*
X119709000Y-39228000D02*
X119709000Y-37870000D01*
X119709000Y-35790000D02*
X119709000Y-34432000D01*
X119669000Y-39212000D02*
X119669000Y-37870000D01*
X119669000Y-35790000D02*
X119669000Y-34448000D01*
X119629000Y-39195000D02*
X119629000Y-37870000D01*
X119629000Y-35790000D02*
X119629000Y-34465000D01*
X119589000Y-39178000D02*
X119589000Y-37870000D01*
X119589000Y-35790000D02*
X119589000Y-34482000D01*
X119549000Y-39159000D02*
X119549000Y-37870000D01*
X119549000Y-35790000D02*
X119549000Y-34501000D01*
X119509000Y-39140000D02*
X119509000Y-37870000D01*
X119509000Y-35790000D02*
X119509000Y-34520000D01*
X119469000Y-39120000D02*
X119469000Y-37870000D01*
X119469000Y-35790000D02*
X119469000Y-34540000D01*
X119429000Y-39098000D02*
X119429000Y-37870000D01*
X119429000Y-35790000D02*
X119429000Y-34562000D01*
X119389000Y-39077000D02*
X119389000Y-37870000D01*
X119389000Y-35790000D02*
X119389000Y-34583000D01*
X119349000Y-39054000D02*
X119349000Y-37870000D01*
X119349000Y-35790000D02*
X119349000Y-34606000D01*
X119309000Y-39030000D02*
X119309000Y-37870000D01*
X119309000Y-35790000D02*
X119309000Y-34630000D01*
X119269000Y-39005000D02*
X119269000Y-37870000D01*
X119269000Y-35790000D02*
X119269000Y-34655000D01*
X119229000Y-38979000D02*
X119229000Y-37870000D01*
X119229000Y-35790000D02*
X119229000Y-34681000D01*
X119189000Y-38952000D02*
X119189000Y-37870000D01*
X119189000Y-35790000D02*
X119189000Y-34708000D01*
X119149000Y-38925000D02*
X119149000Y-37870000D01*
X119149000Y-35790000D02*
X119149000Y-34735000D01*
X119109000Y-38895000D02*
X119109000Y-37870000D01*
X119109000Y-35790000D02*
X119109000Y-34765000D01*
X119069000Y-38865000D02*
X119069000Y-37870000D01*
X119069000Y-35790000D02*
X119069000Y-34795000D01*
X119029000Y-38834000D02*
X119029000Y-37870000D01*
X119029000Y-35790000D02*
X119029000Y-34826000D01*
X118989000Y-38801000D02*
X118989000Y-37870000D01*
X118989000Y-35790000D02*
X118989000Y-34859000D01*
X118949000Y-38767000D02*
X118949000Y-37870000D01*
X118949000Y-35790000D02*
X118949000Y-34893000D01*
X118909000Y-38731000D02*
X118909000Y-37870000D01*
X118909000Y-35790000D02*
X118909000Y-34929000D01*
X118869000Y-38694000D02*
X118869000Y-37870000D01*
X118869000Y-35790000D02*
X118869000Y-34966000D01*
X118829000Y-38656000D02*
X118829000Y-37870000D01*
X118829000Y-35790000D02*
X118829000Y-35004000D01*
X118789000Y-38615000D02*
X118789000Y-37870000D01*
X118789000Y-35790000D02*
X118789000Y-35045000D01*
X118749000Y-38573000D02*
X118749000Y-37870000D01*
X118749000Y-35790000D02*
X118749000Y-35087000D01*
X118709000Y-38529000D02*
X118709000Y-37870000D01*
X118709000Y-35790000D02*
X118709000Y-35131000D01*
X118669000Y-38483000D02*
X118669000Y-37870000D01*
X118669000Y-35790000D02*
X118669000Y-35177000D01*
X118629000Y-38435000D02*
X118629000Y-37870000D01*
X118629000Y-35790000D02*
X118629000Y-35225000D01*
X118589000Y-38384000D02*
X118589000Y-37870000D01*
X118589000Y-35790000D02*
X118589000Y-35276000D01*
X118549000Y-38330000D02*
X118549000Y-37870000D01*
X118549000Y-35790000D02*
X118549000Y-35330000D01*
X118509000Y-38273000D02*
X118509000Y-37870000D01*
X118509000Y-35790000D02*
X118509000Y-35387000D01*
X118469000Y-38213000D02*
X118469000Y-37870000D01*
X118469000Y-35790000D02*
X118469000Y-35447000D01*
X118429000Y-38149000D02*
X118429000Y-37870000D01*
X118429000Y-35790000D02*
X118429000Y-35511000D01*
X118389000Y-38081000D02*
X118389000Y-37870000D01*
X118389000Y-35790000D02*
X118389000Y-35579000D01*
X118349000Y-38008000D02*
X118349000Y-35652000D01*
X118309000Y-37928000D02*
X118309000Y-35732000D01*
X118269000Y-37841000D02*
X118269000Y-35819000D01*
X118229000Y-37745000D02*
X118229000Y-35915000D01*
X118189000Y-37635000D02*
X118189000Y-36025000D01*
X118149000Y-37507000D02*
X118149000Y-36153000D01*
X118109000Y-37348000D02*
X118109000Y-36312000D01*
X118069000Y-37114000D02*
X118069000Y-36546000D01*
X123290000Y-36830000D02*
G75*
G03*
X123290000Y-36830000I-2620000J0D01*
G01*
%TO.C,R6*%
X102640000Y-77470000D02*
X103410000Y-77470000D01*
X103410000Y-76100000D02*
X103410000Y-78840000D01*
X103410000Y-78840000D02*
X109950000Y-78840000D01*
X109950000Y-76100000D02*
X103410000Y-76100000D01*
X109950000Y-78840000D02*
X109950000Y-76100000D01*
X110720000Y-77470000D02*
X109950000Y-77470000D01*
%TO.C,X1*%
X114920000Y-45430000D02*
X102770000Y-45430000D01*
X102770000Y-45430000D02*
X102770000Y-65580000D01*
X115670000Y-65580000D02*
X115670000Y-46180000D01*
X103520000Y-66330000D02*
X114920000Y-66330000D01*
X115670000Y-46180000D02*
G75*
G03*
X114920000Y-45430000I-750000J0D01*
G01*
X114920000Y-66330000D02*
G75*
G03*
X115670000Y-65580000I0J750000D01*
G01*
X102770000Y-65580000D02*
G75*
G03*
X103520000Y-66330000I750000J0D01*
G01*
%TO.C,D2*%
X121630000Y-87664000D02*
X121630000Y-87820000D01*
X121630000Y-89980000D02*
X121630000Y-90136000D01*
X124862334Y-87821392D02*
G75*
G03*
X121630001Y-87664485I-1672334J-1078608D01*
G01*
X124231129Y-87820164D02*
G75*
G03*
X122149040Y-87820001I-1041129J-1079836D01*
G01*
X122149040Y-89979999D02*
G75*
G03*
X124231129Y-89979836I1040960J1079999D01*
G01*
X121630001Y-90135515D02*
G75*
G03*
X124862334Y-89978608I1559999J1235515D01*
G01*
%TO.C,J2*%
X36770000Y-26730000D02*
X36770000Y-25400000D01*
X38100000Y-26730000D02*
X36770000Y-26730000D01*
X39370000Y-26730000D02*
X77530000Y-26730000D01*
X39370000Y-26730000D02*
X39370000Y-24070000D01*
X77530000Y-26730000D02*
X77530000Y-24070000D01*
X39370000Y-24070000D02*
X77530000Y-24070000D01*
%TO.C,SW3*%
X38970000Y-114530000D02*
X38970000Y-116030000D01*
X40220000Y-118530000D02*
X44720000Y-118530000D01*
X44720000Y-112030000D02*
X40220000Y-112030000D01*
X45970000Y-116030000D02*
X45970000Y-114530000D01*
%TO.C,R2*%
X36830000Y-98020000D02*
X36830000Y-97250000D01*
X35460000Y-97250000D02*
X38200000Y-97250000D01*
X38200000Y-97250000D02*
X38200000Y-90710000D01*
X35460000Y-90710000D02*
X35460000Y-97250000D01*
X38200000Y-90710000D02*
X35460000Y-90710000D01*
X36830000Y-89940000D02*
X36830000Y-90710000D01*
%TO.C,J1*%
X114720000Y-38130000D02*
X114720000Y-36530000D01*
X114420000Y-37830000D02*
X112320000Y-37830000D01*
X114420000Y-23130000D02*
X114420000Y-37830000D01*
X113020000Y-38130000D02*
X114720000Y-38130000D01*
X107320000Y-37830000D02*
X105220000Y-37830000D01*
X105220000Y-37830000D02*
X105220000Y-36030000D01*
X105220000Y-31630000D02*
X105220000Y-23130000D01*
X105220000Y-23130000D02*
X114420000Y-23130000D01*
%TO.C,R12*%
X102640000Y-100330000D02*
X103410000Y-100330000D01*
X103410000Y-98960000D02*
X103410000Y-101700000D01*
X103410000Y-101700000D02*
X109950000Y-101700000D01*
X109950000Y-98960000D02*
X103410000Y-98960000D01*
X109950000Y-101700000D02*
X109950000Y-98960000D01*
X110720000Y-100330000D02*
X109950000Y-100330000D01*
%TD*%
M02*
