%TF.GenerationSoftware,KiCad,Pcbnew,7.0.8*%
%TF.CreationDate,2023-12-27T01:37:41+02:00*%
%TF.ProjectId,main,6d61696e-2e6b-4696-9361-645f70636258,rev?*%
%TF.SameCoordinates,Original*%
%TF.FileFunction,Soldermask,Top*%
%TF.FilePolarity,Negative*%
%FSLAX46Y46*%
G04 Gerber Fmt 4.6, Leading zero omitted, Abs format (unit mm)*
G04 Created by KiCad (PCBNEW 7.0.8) date 2023-12-27 01:37:41*
%MOMM*%
%LPD*%
G01*
G04 APERTURE LIST*
%ADD10C,1.600000*%
%ADD11O,1.600000X1.600000*%
%ADD12R,1.500000X1.500000*%
%ADD13C,1.500000*%
%ADD14C,2.000000*%
%ADD15R,1.905000X2.000000*%
%ADD16O,1.905000X2.000000*%
%ADD17R,1.800000X1.800000*%
%ADD18C,1.800000*%
%ADD19C,5.000000*%
%ADD20R,1.600000X1.600000*%
%ADD21R,1.700000X1.700000*%
%ADD22O,1.700000X1.700000*%
%ADD23R,4.400000X1.800000*%
%ADD24O,4.000000X1.800000*%
%ADD25O,1.800000X4.000000*%
G04 APERTURE END LIST*
D10*
%TO.C,R1*%
X33020000Y-99060000D03*
D11*
X33020000Y-88900000D03*
%TD*%
D10*
%TO.C,C3*%
X90210000Y-35560000D03*
X92710000Y-35560000D03*
%TD*%
%TO.C,R10*%
X101600000Y-92710000D03*
D11*
X111760000Y-92710000D03*
%TD*%
D12*
%TO.C,U4*%
X121920000Y-80010000D03*
D13*
X119380000Y-80010000D03*
X116840000Y-80010000D03*
%TD*%
D14*
%TO.C,SW7*%
X114150000Y-110490000D03*
X120650000Y-110490000D03*
X114150000Y-114990000D03*
X120650000Y-114990000D03*
%TD*%
D15*
%TO.C,U7*%
X90170000Y-26670000D03*
D16*
X92710000Y-26670000D03*
X95250000Y-26670000D03*
%TD*%
D14*
%TO.C,SW5*%
X49380000Y-107950000D03*
X55880000Y-107950000D03*
X49380000Y-112450000D03*
X55880000Y-112450000D03*
%TD*%
%TO.C,SW1*%
X116055000Y-96520000D03*
X122555000Y-96520000D03*
X116055000Y-101020000D03*
X122555000Y-101020000D03*
%TD*%
D10*
%TO.C,C1*%
X29210000Y-58420000D03*
X29210000Y-60920000D03*
%TD*%
D14*
%TO.C,SW2*%
X39220000Y-103450000D03*
X45720000Y-103450000D03*
X39220000Y-107950000D03*
X45720000Y-107950000D03*
%TD*%
D10*
%TO.C,R3*%
X40640000Y-99060000D03*
D11*
X40640000Y-88900000D03*
%TD*%
D17*
%TO.C,D1*%
X114300000Y-88900000D03*
D18*
X116840000Y-88900000D03*
%TD*%
D19*
%TO.C,H2*%
X123190000Y-26670000D03*
%TD*%
D10*
%TO.C,C4*%
X72390000Y-83820000D03*
X69890000Y-83820000D03*
%TD*%
%TO.C,C2*%
X64770000Y-35560000D03*
X67270000Y-35560000D03*
%TD*%
D20*
%TO.C,U6*%
X82550000Y-88900000D03*
D11*
X82550000Y-91440000D03*
X82550000Y-93980000D03*
X82550000Y-96520000D03*
X82550000Y-99060000D03*
X82550000Y-101600000D03*
X82550000Y-104140000D03*
X82550000Y-106680000D03*
X90170000Y-106680000D03*
X90170000Y-104140000D03*
X90170000Y-101600000D03*
X90170000Y-99060000D03*
X90170000Y-96520000D03*
X90170000Y-93980000D03*
X90170000Y-91440000D03*
X90170000Y-88900000D03*
%TD*%
D10*
%TO.C,R13*%
X101600000Y-104140000D03*
D11*
X111760000Y-104140000D03*
%TD*%
D14*
%TO.C,SW6*%
X100330000Y-110490000D03*
X106830000Y-110490000D03*
X100330000Y-114990000D03*
X106830000Y-114990000D03*
%TD*%
D10*
%TO.C,R11*%
X101600000Y-96520000D03*
D11*
X111760000Y-96520000D03*
%TD*%
D20*
%TO.C,U1*%
X33020000Y-35560000D03*
D11*
X33020000Y-38100000D03*
X33020000Y-40640000D03*
X33020000Y-43180000D03*
X33020000Y-45720000D03*
X33020000Y-48260000D03*
X33020000Y-50800000D03*
X33020000Y-53340000D03*
X33020000Y-55880000D03*
X33020000Y-58420000D03*
X33020000Y-60960000D03*
X33020000Y-63500000D03*
X33020000Y-66040000D03*
X33020000Y-68580000D03*
X33020000Y-71120000D03*
X33020000Y-73660000D03*
X33020000Y-76200000D03*
X33020000Y-78740000D03*
X33020000Y-81280000D03*
X33020000Y-83820000D03*
X48260000Y-83820000D03*
X48260000Y-81280000D03*
X48260000Y-78740000D03*
X48260000Y-76200000D03*
X48260000Y-73660000D03*
X48260000Y-71120000D03*
X48260000Y-68580000D03*
X48260000Y-66040000D03*
X48260000Y-63500000D03*
X48260000Y-60960000D03*
X48260000Y-58420000D03*
X48260000Y-55880000D03*
X48260000Y-53340000D03*
X48260000Y-50800000D03*
X48260000Y-48260000D03*
X48260000Y-45720000D03*
X48260000Y-43180000D03*
X48260000Y-40640000D03*
X48260000Y-38100000D03*
X48260000Y-35560000D03*
%TD*%
D14*
%TO.C,SW4*%
X29060000Y-107950000D03*
X35560000Y-107950000D03*
X29060000Y-112450000D03*
X35560000Y-112450000D03*
%TD*%
D20*
%TO.C,U3*%
X99060000Y-73660000D03*
D11*
X99060000Y-71120000D03*
X99060000Y-68580000D03*
X99060000Y-66040000D03*
X99060000Y-63500000D03*
X99060000Y-60960000D03*
X99060000Y-58420000D03*
X99060000Y-55880000D03*
X99060000Y-53340000D03*
X99060000Y-50800000D03*
X99060000Y-48260000D03*
X99060000Y-45720000D03*
X99060000Y-43180000D03*
X99060000Y-40640000D03*
X83820000Y-40640000D03*
X83820000Y-43180000D03*
X83820000Y-45720000D03*
X83820000Y-48260000D03*
X83820000Y-50800000D03*
X83820000Y-53340000D03*
X83820000Y-55880000D03*
X83820000Y-58420000D03*
X83820000Y-60960000D03*
X83820000Y-63500000D03*
X83820000Y-66040000D03*
X83820000Y-68580000D03*
X83820000Y-71120000D03*
X83820000Y-73660000D03*
%TD*%
D20*
%TO.C,U8*%
X67310000Y-119380000D03*
D11*
X69850000Y-119380000D03*
X72390000Y-119380000D03*
X74930000Y-119380000D03*
X77470000Y-119380000D03*
X80010000Y-119380000D03*
X82550000Y-119380000D03*
X85090000Y-119380000D03*
X87630000Y-119380000D03*
X90170000Y-119380000D03*
X90170000Y-111760000D03*
X87630000Y-111760000D03*
X85090000Y-111760000D03*
X82550000Y-111760000D03*
X80010000Y-111760000D03*
X77470000Y-111760000D03*
X74930000Y-111760000D03*
X72390000Y-111760000D03*
X69850000Y-111760000D03*
X67310000Y-111760000D03*
%TD*%
D10*
%TO.C,R7*%
X101600000Y-81280000D03*
D11*
X111760000Y-81280000D03*
%TD*%
D10*
%TO.C,R5*%
X48260000Y-99060000D03*
D11*
X48260000Y-88900000D03*
%TD*%
D10*
%TO.C,R8*%
X101600000Y-85090000D03*
D11*
X111760000Y-85090000D03*
%TD*%
D19*
%TO.C,H4*%
X123190000Y-119380000D03*
%TD*%
D10*
%TO.C,R4*%
X44450000Y-99060000D03*
D11*
X44450000Y-88900000D03*
%TD*%
D10*
%TO.C,C5*%
X87670000Y-83820000D03*
X85170000Y-83820000D03*
%TD*%
D19*
%TO.C,H1*%
X30480000Y-26670000D03*
%TD*%
D20*
%TO.C,U2*%
X73660000Y-78740000D03*
D11*
X73660000Y-76200000D03*
X73660000Y-73660000D03*
X73660000Y-71120000D03*
X73660000Y-68580000D03*
X73660000Y-66040000D03*
X73660000Y-63500000D03*
X73660000Y-60960000D03*
X73660000Y-58420000D03*
X73660000Y-55880000D03*
X73660000Y-53340000D03*
X73660000Y-50800000D03*
X73660000Y-48260000D03*
X73660000Y-45720000D03*
X73660000Y-43180000D03*
X73660000Y-40640000D03*
X58420000Y-40640000D03*
X58420000Y-43180000D03*
X58420000Y-45720000D03*
X58420000Y-48260000D03*
X58420000Y-50800000D03*
X58420000Y-53340000D03*
X58420000Y-55880000D03*
X58420000Y-58420000D03*
X58420000Y-60960000D03*
X58420000Y-63500000D03*
X58420000Y-66040000D03*
X58420000Y-68580000D03*
X58420000Y-71120000D03*
X58420000Y-73660000D03*
X58420000Y-76200000D03*
X58420000Y-78740000D03*
%TD*%
D10*
%TO.C,R9*%
X101600000Y-88900000D03*
D11*
X111760000Y-88900000D03*
%TD*%
D20*
%TO.C,U5*%
X67310000Y-88900000D03*
D11*
X67310000Y-91440000D03*
X67310000Y-93980000D03*
X67310000Y-96520000D03*
X67310000Y-99060000D03*
X67310000Y-101600000D03*
X67310000Y-104140000D03*
X74930000Y-104140000D03*
X74930000Y-101600000D03*
X74930000Y-99060000D03*
X74930000Y-96520000D03*
X74930000Y-93980000D03*
X74930000Y-91440000D03*
X74930000Y-88900000D03*
%TD*%
D20*
%TO.C,C6*%
X121920000Y-36830000D03*
D10*
X119420000Y-36830000D03*
%TD*%
D19*
%TO.C,H3*%
X30480000Y-119380000D03*
%TD*%
D10*
%TO.C,R6*%
X101600000Y-77470000D03*
D11*
X111760000Y-77470000D03*
%TD*%
D20*
%TO.C,X1*%
X105410000Y-48260000D03*
D10*
X105410000Y-63500000D03*
X113030000Y-63500000D03*
X113030000Y-48260000D03*
%TD*%
D17*
%TO.C,D2*%
X121920000Y-88900000D03*
D18*
X124460000Y-88900000D03*
%TD*%
D21*
%TO.C,J2*%
X38100000Y-25400000D03*
D22*
X40640000Y-25400000D03*
X43180000Y-25400000D03*
X45720000Y-25400000D03*
X48260000Y-25400000D03*
X50800000Y-25400000D03*
X53340000Y-25400000D03*
X55880000Y-25400000D03*
X58420000Y-25400000D03*
X60960000Y-25400000D03*
X63500000Y-25400000D03*
X66040000Y-25400000D03*
X68580000Y-25400000D03*
X71120000Y-25400000D03*
X73660000Y-25400000D03*
X76200000Y-25400000D03*
%TD*%
D14*
%TO.C,SW3*%
X39220000Y-113030000D03*
X45720000Y-113030000D03*
X39220000Y-117530000D03*
X45720000Y-117530000D03*
%TD*%
D10*
%TO.C,R2*%
X36830000Y-99060000D03*
D11*
X36830000Y-88900000D03*
%TD*%
D23*
%TO.C,J1*%
X109820000Y-36830000D03*
D24*
X109820000Y-31030000D03*
D25*
X105020000Y-33830000D03*
%TD*%
D10*
%TO.C,R12*%
X101600000Y-100330000D03*
D11*
X111760000Y-100330000D03*
%TD*%
D14*
%TO.C,LCD1*%
X43180000Y-31750000D03*
X73660000Y-31750000D03*
X76200000Y-31750000D03*
X38100000Y-31750000D03*
X40640000Y-31750000D03*
X45720000Y-31750000D03*
X48260000Y-31750000D03*
X50800000Y-31750000D03*
X53340000Y-31750000D03*
X55880000Y-31750000D03*
X58420000Y-31750000D03*
X60960000Y-31750000D03*
X63500000Y-31750000D03*
X66040000Y-31750000D03*
X68580000Y-31750000D03*
X71120000Y-31750000D03*
%TD*%
M02*
