M48
; DRILL file {KiCad 7.0.8} date Wed 27 Dec 2023 01:37:43 AM EET
; FORMAT={-:-/ absolute / inch / decimal}
; #@! TF.CreationDate,2023-12-27T01:37:43+02:00
; #@! TF.GenerationSoftware,Kicad,Pcbnew,7.0.8
; #@! TF.FileFunction,Plated,1,2,PTH
FMAT,2
INCH
; #@! TA.AperFunction,Plated,PTH,ViaDrill
T1C0.0157
; #@! TA.AperFunction,Plated,PTH,ComponentDrill
T2C0.0315
; #@! TA.AperFunction,Plated,PTH,ComponentDrill
T3C0.0354
; #@! TA.AperFunction,Plated,PTH,ComponentDrill
T4C0.0394
; #@! TA.AperFunction,Plated,PTH,ComponentDrill
T5C0.0433
; #@! TA.AperFunction,Plated,PTH,ComponentDrill
T6C0.1378
%
G90
G05
T1
X1.3996Y-1.3069
X1.5576Y-3.3823
X1.6394Y-3.131
X1.7381Y-2.2045
X1.922Y-3.4176
X1.9788Y-2.7673
X1.9901Y-3.2848
X2.0079Y-2.6943
X2.0291Y-2.6169
X2.0304Y-2.0473
X2.0454Y-3.4489
X2.0579Y-3.2275
X2.0726Y-2.5366
X2.2294Y-2.6342
X2.2305Y-3.3823
X2.3137Y-4.2181
X2.3522Y-2.5529
X2.3716Y-2.4532
X2.4198Y-4.2838
X2.4255Y-2.0004
X2.4619Y-2.067
X2.519Y-2.1275
X2.5191Y-2.0779
X2.5193Y-2.3001
X2.5806Y-2.3741
X2.6143Y-1.5857
X2.9998Y-1.3752
X3.5199Y-2.0734
X3.5833Y-2.1731
X3.7893Y-2.8805
X4.0671Y-1.8257
T2
X1.15Y-2.3
X1.15Y-2.3984
X1.3Y-1.4
X1.3Y-1.5
X1.3Y-1.6
X1.3Y-1.7
X1.3Y-1.8
X1.3Y-1.9
X1.3Y-2.0
X1.3Y-2.1
X1.3Y-2.2
X1.3Y-2.3
X1.3Y-2.4
X1.3Y-2.5
X1.3Y-2.6
X1.3Y-2.7
X1.3Y-2.8
X1.3Y-2.9
X1.3Y-3.0
X1.3Y-3.1
X1.3Y-3.2
X1.3Y-3.3
X1.3Y-3.5
X1.3Y-3.9
X1.45Y-3.5
X1.45Y-3.9
X1.6Y-3.5
X1.6Y-3.9
X1.75Y-3.5
X1.75Y-3.9
X1.9Y-1.4
X1.9Y-1.5
X1.9Y-1.6
X1.9Y-1.7
X1.9Y-1.8
X1.9Y-1.9
X1.9Y-2.0
X1.9Y-2.1
X1.9Y-2.2
X1.9Y-2.3
X1.9Y-2.4
X1.9Y-2.5
X1.9Y-2.6
X1.9Y-2.7
X1.9Y-2.8
X1.9Y-2.9
X1.9Y-3.0
X1.9Y-3.1
X1.9Y-3.2
X1.9Y-3.3
X1.9Y-3.5
X1.9Y-3.9
X2.3Y-1.6
X2.3Y-1.7
X2.3Y-1.8
X2.3Y-1.9
X2.3Y-2.0
X2.3Y-2.1
X2.3Y-2.2
X2.3Y-2.3
X2.3Y-2.4
X2.3Y-2.5
X2.3Y-2.6
X2.3Y-2.7
X2.3Y-2.8
X2.3Y-2.9
X2.3Y-3.0
X2.3Y-3.1
X2.55Y-1.4
X2.6484Y-1.4
X2.65Y-3.5
X2.65Y-3.6
X2.65Y-3.7
X2.65Y-3.8
X2.65Y-3.9
X2.65Y-4.0
X2.65Y-4.1
X2.65Y-4.4
X2.65Y-4.7
X2.75Y-4.4
X2.75Y-4.7
X2.7516Y-3.3
X2.85Y-3.3
X2.85Y-4.4
X2.85Y-4.7
X2.9Y-1.6
X2.9Y-1.7
X2.9Y-1.8
X2.9Y-1.9
X2.9Y-2.0
X2.9Y-2.1
X2.9Y-2.2
X2.9Y-2.3
X2.9Y-2.4
X2.9Y-2.5
X2.9Y-2.6
X2.9Y-2.7
X2.9Y-2.8
X2.9Y-2.9
X2.9Y-3.0
X2.9Y-3.1
X2.95Y-3.5
X2.95Y-3.6
X2.95Y-3.7
X2.95Y-3.8
X2.95Y-3.9
X2.95Y-4.0
X2.95Y-4.1
X2.95Y-4.4
X2.95Y-4.7
X3.05Y-4.4
X3.05Y-4.7
X3.15Y-4.4
X3.15Y-4.7
X3.25Y-3.5
X3.25Y-3.6
X3.25Y-3.7
X3.25Y-3.8
X3.25Y-3.9
X3.25Y-4.0
X3.25Y-4.1
X3.25Y-4.2
X3.25Y-4.4
X3.25Y-4.7
X3.3Y-1.6
X3.3Y-1.7
X3.3Y-1.8
X3.3Y-1.9
X3.3Y-2.0
X3.3Y-2.1
X3.3Y-2.2
X3.3Y-2.3
X3.3Y-2.4
X3.3Y-2.5
X3.3Y-2.6
X3.3Y-2.7
X3.3Y-2.8
X3.3Y-2.9
X3.35Y-4.4
X3.35Y-4.7
X3.3531Y-3.3
X3.45Y-4.4
X3.45Y-4.7
X3.4516Y-3.3
X3.55Y-3.5
X3.55Y-3.6
X3.55Y-3.7
X3.55Y-3.8
X3.55Y-3.9
X3.55Y-4.0
X3.55Y-4.1
X3.55Y-4.2
X3.55Y-4.4
X3.55Y-4.7
X3.5516Y-1.4
X3.65Y-1.4
X3.9Y-1.6
X3.9Y-1.7
X3.9Y-1.8
X3.9Y-1.9
X3.9Y-2.0
X3.9Y-2.1
X3.9Y-2.2
X3.9Y-2.3
X3.9Y-2.4
X3.9Y-2.5
X3.9Y-2.6
X3.9Y-2.7
X3.9Y-2.8
X3.9Y-2.9
X4.0Y-3.05
X4.0Y-3.2
X4.0Y-3.35
X4.0Y-3.5
X4.0Y-3.65
X4.0Y-3.8
X4.0Y-3.95
X4.0Y-4.1
X4.15Y-1.9
X4.15Y-2.5
X4.4Y-3.05
X4.4Y-3.2
X4.4Y-3.35
X4.4Y-3.5
X4.4Y-3.65
X4.4Y-3.8
X4.4Y-3.95
X4.4Y-4.1
X4.45Y-1.9
X4.45Y-2.5
X4.6Y-3.15
X4.7Y-3.15
X4.7016Y-1.45
X4.8Y-1.45
X4.8Y-3.15
T3
X1.5Y-1.25
X1.6Y-1.25
X1.7Y-1.25
X1.8Y-1.25
X1.9Y-1.25
X2.0Y-1.25
X2.1Y-1.25
X2.2Y-1.25
X2.3Y-1.25
X2.4Y-1.25
X2.5Y-1.25
X2.6Y-1.25
X2.7Y-1.25
X2.8Y-1.25
X2.9Y-1.25
X3.0Y-1.25
X4.5Y-3.5
X4.6Y-3.5
X4.8Y-3.5
X4.9Y-3.5
T4
X1.5Y-1.0
X1.6Y-1.0
X1.7Y-1.0
X1.8Y-1.0
X1.9Y-1.0
X2.0Y-1.0
X2.1Y-1.0
X2.2Y-1.0
X2.3Y-1.0
X2.4Y-1.0
X2.5Y-1.0
X2.6Y-1.0
X2.7Y-1.0
X2.8Y-1.0
X2.9Y-1.0
X3.0Y-1.0
T5
X1.1441Y-4.25
X1.1441Y-4.4272
X1.4Y-4.25
X1.4Y-4.4272
X1.5441Y-4.0728
X1.5441Y-4.25
X1.5441Y-4.45
X1.5441Y-4.6272
X1.8Y-4.0728
X1.8Y-4.25
X1.8Y-4.45
X1.8Y-4.6272
X1.9441Y-4.25
X1.9441Y-4.4272
X2.2Y-4.25
X2.2Y-4.4272
X3.55Y-1.05
X3.65Y-1.05
X3.75Y-1.05
X3.95Y-4.35
X3.95Y-4.5272
X4.2059Y-4.35
X4.2059Y-4.5272
X4.4941Y-4.35
X4.4941Y-4.5272
X4.5691Y-3.8
X4.5691Y-3.9772
X4.75Y-4.35
X4.75Y-4.5272
X4.825Y-3.8
X4.825Y-3.9772
T6
X1.2Y-1.05
X1.2Y-4.7
X4.85Y-1.05
X4.85Y-4.7
T2
G00X4.1346Y-1.2886
M15
G01X4.1346Y-1.3752
M16
G05
G00X4.3669Y-1.2217
M15
G01X4.2803Y-1.2217
M16
G05
G00X4.3748Y-1.45
M15
G01X4.2724Y-1.45
M16
G05
T0
M30
