%TF.GenerationSoftware,KiCad,Pcbnew,7.0.8*%
%TF.CreationDate,2023-12-27T01:37:41+02:00*%
%TF.ProjectId,main,6d61696e-2e6b-4696-9361-645f70636258,rev?*%
%TF.SameCoordinates,Original*%
%TF.FileFunction,Copper,L1,Top*%
%TF.FilePolarity,Positive*%
%FSLAX46Y46*%
G04 Gerber Fmt 4.6, Leading zero omitted, Abs format (unit mm)*
G04 Created by KiCad (PCBNEW 7.0.8) date 2023-12-27 01:37:41*
%MOMM*%
%LPD*%
G01*
G04 APERTURE LIST*
%TA.AperFunction,ComponentPad*%
%ADD10C,1.600000*%
%TD*%
%TA.AperFunction,ComponentPad*%
%ADD11O,1.600000X1.600000*%
%TD*%
%TA.AperFunction,ComponentPad*%
%ADD12R,1.500000X1.500000*%
%TD*%
%TA.AperFunction,ComponentPad*%
%ADD13C,1.500000*%
%TD*%
%TA.AperFunction,ComponentPad*%
%ADD14C,2.000000*%
%TD*%
%TA.AperFunction,ComponentPad*%
%ADD15R,1.905000X2.000000*%
%TD*%
%TA.AperFunction,ComponentPad*%
%ADD16O,1.905000X2.000000*%
%TD*%
%TA.AperFunction,ComponentPad*%
%ADD17R,1.800000X1.800000*%
%TD*%
%TA.AperFunction,ComponentPad*%
%ADD18C,1.800000*%
%TD*%
%TA.AperFunction,ComponentPad*%
%ADD19C,5.000000*%
%TD*%
%TA.AperFunction,ComponentPad*%
%ADD20R,1.600000X1.600000*%
%TD*%
%TA.AperFunction,ComponentPad*%
%ADD21R,1.700000X1.700000*%
%TD*%
%TA.AperFunction,ComponentPad*%
%ADD22O,1.700000X1.700000*%
%TD*%
%TA.AperFunction,ComponentPad*%
%ADD23R,4.400000X1.800000*%
%TD*%
%TA.AperFunction,ComponentPad*%
%ADD24O,4.000000X1.800000*%
%TD*%
%TA.AperFunction,ComponentPad*%
%ADD25O,1.800000X4.000000*%
%TD*%
%TA.AperFunction,ViaPad*%
%ADD26C,0.800000*%
%TD*%
%TA.AperFunction,Conductor*%
%ADD27C,0.250000*%
%TD*%
G04 APERTURE END LIST*
D10*
%TO.P,R1,1*%
%TO.N,Net-(U1-~{IRQ})*%
X33020000Y-99060000D03*
D11*
%TO.P,R1,2*%
%TO.N,+5V*%
X33020000Y-88900000D03*
%TD*%
D10*
%TO.P,C3,1*%
%TO.N,+5V*%
X90210000Y-35560000D03*
%TO.P,C3,2*%
%TO.N,GND*%
X92710000Y-35560000D03*
%TD*%
%TO.P,R10,1*%
%TO.N,Net-(U8-1A1)*%
X101600000Y-92710000D03*
D11*
%TO.P,R10,2*%
%TO.N,GND*%
X111760000Y-92710000D03*
%TD*%
D12*
%TO.P,U4,1,~{RST}*%
%TO.N,~{RES}*%
X121920000Y-80010000D03*
D13*
%TO.P,U4,2,VCC*%
%TO.N,+5V*%
X119380000Y-80010000D03*
%TO.P,U4,3,GND*%
%TO.N,GND*%
X116840000Y-80010000D03*
%TD*%
D14*
%TO.P,SW7,1,1*%
%TO.N,+5V*%
X114150000Y-110490000D03*
X120650000Y-110490000D03*
%TO.P,SW7,2,2*%
%TO.N,Net-(U8-1A0)*%
X114150000Y-114990000D03*
X120650000Y-114990000D03*
%TD*%
D15*
%TO.P,U7,1,IN*%
%TO.N,Net-(U7-IN)*%
X90170000Y-26670000D03*
D16*
%TO.P,U7,2,GND*%
%TO.N,GND*%
X92710000Y-26670000D03*
%TO.P,U7,3,OUT*%
%TO.N,+5V*%
X95250000Y-26670000D03*
%TD*%
D14*
%TO.P,SW5,1,1*%
%TO.N,+5V*%
X49380000Y-107950000D03*
X55880000Y-107950000D03*
%TO.P,SW5,2,2*%
%TO.N,Net-(U8-1A2)*%
X49380000Y-112450000D03*
X55880000Y-112450000D03*
%TD*%
%TO.P,SW1,1,1*%
%TO.N,~{RES}*%
X116055000Y-96520000D03*
X122555000Y-96520000D03*
%TO.P,SW1,2,2*%
%TO.N,GND*%
X116055000Y-101020000D03*
X122555000Y-101020000D03*
%TD*%
D10*
%TO.P,C1,1*%
%TO.N,+5V*%
X29210000Y-58420000D03*
%TO.P,C1,2*%
%TO.N,GND*%
X29210000Y-60920000D03*
%TD*%
D14*
%TO.P,SW2,1,1*%
%TO.N,+5V*%
X39220000Y-103450000D03*
X45720000Y-103450000D03*
%TO.P,SW2,2,2*%
%TO.N,Net-(U8-2A1)*%
X39220000Y-107950000D03*
X45720000Y-107950000D03*
%TD*%
D10*
%TO.P,R3,1*%
%TO.N,Net-(U1-RDY)*%
X40640000Y-99060000D03*
D11*
%TO.P,R3,2*%
%TO.N,+5V*%
X40640000Y-88900000D03*
%TD*%
D17*
%TO.P,D1,1,K*%
%TO.N,Net-(D1-K)*%
X114300000Y-88900000D03*
D18*
%TO.P,D1,2,A*%
%TO.N,~{RES}*%
X116840000Y-88900000D03*
%TD*%
D19*
%TO.P,H2,*%
%TO.N,*%
X123190000Y-26670000D03*
%TD*%
D10*
%TO.P,C4,1*%
%TO.N,+5V*%
X72390000Y-83820000D03*
%TO.P,C4,2*%
%TO.N,GND*%
X69890000Y-83820000D03*
%TD*%
%TO.P,C2,1*%
%TO.N,+5V*%
X64770000Y-35560000D03*
%TO.P,C2,2*%
%TO.N,GND*%
X67270000Y-35560000D03*
%TD*%
D20*
%TO.P,U6,1,A0*%
%TO.N,A14*%
X82550000Y-88900000D03*
D11*
%TO.P,U6,2,A1*%
%TO.N,A15*%
X82550000Y-91440000D03*
%TO.P,U6,3,A2*%
%TO.N,GND*%
X82550000Y-93980000D03*
%TO.P,U6,4,E1*%
X82550000Y-96520000D03*
%TO.P,U6,5,E2*%
X82550000Y-99060000D03*
%TO.P,U6,6,E3*%
%TO.N,+5V*%
X82550000Y-101600000D03*
%TO.P,U6,7,O7*%
%TO.N,unconnected-(U6-O7-Pad7)*%
X82550000Y-104140000D03*
%TO.P,U6,8,GND*%
%TO.N,GND*%
X82550000Y-106680000D03*
%TO.P,U6,9,O6*%
%TO.N,unconnected-(U6-O6-Pad9)*%
X90170000Y-106680000D03*
%TO.P,U6,10,O5*%
%TO.N,unconnected-(U6-O5-Pad10)*%
X90170000Y-104140000D03*
%TO.P,U6,11,O4*%
%TO.N,unconnected-(U6-O4-Pad11)*%
X90170000Y-101600000D03*
%TO.P,U6,12,O3*%
%TO.N,~{ROM}*%
X90170000Y-99060000D03*
%TO.P,U6,13,O2*%
%TO.N,Net-(U6-O2)*%
X90170000Y-96520000D03*
%TO.P,U6,14,O1*%
%TO.N,~{INPUT}*%
X90170000Y-93980000D03*
%TO.P,U6,15,O0*%
%TO.N,~{RAM}*%
X90170000Y-91440000D03*
%TO.P,U6,16,VCC*%
%TO.N,+5V*%
X90170000Y-88900000D03*
%TD*%
D10*
%TO.P,R13,1*%
%TO.N,GND*%
X101600000Y-104140000D03*
D11*
%TO.P,R13,2*%
%TO.N,Net-(D2-K)*%
X111760000Y-104140000D03*
%TD*%
D14*
%TO.P,SW6,1,1*%
%TO.N,+5V*%
X100330000Y-110490000D03*
X106830000Y-110490000D03*
%TO.P,SW6,2,2*%
%TO.N,Net-(U8-1A1)*%
X100330000Y-114990000D03*
X106830000Y-114990000D03*
%TD*%
D10*
%TO.P,R11,1*%
%TO.N,Net-(U8-1A0)*%
X101600000Y-96520000D03*
D11*
%TO.P,R11,2*%
%TO.N,GND*%
X111760000Y-96520000D03*
%TD*%
D20*
%TO.P,U1,1,~{VP}*%
%TO.N,unconnected-(U1-~{VP}-Pad1)*%
X33020000Y-35560000D03*
D11*
%TO.P,U1,2,RDY*%
%TO.N,Net-(U1-RDY)*%
X33020000Y-38100000D03*
%TO.P,U1,3,\u03D51*%
%TO.N,unconnected-(U1-\u03D51-Pad3)*%
X33020000Y-40640000D03*
%TO.P,U1,4,~{IRQ}*%
%TO.N,Net-(U1-~{IRQ})*%
X33020000Y-43180000D03*
%TO.P,U1,5,~{ML}*%
%TO.N,unconnected-(U1-~{ML}-Pad5)*%
X33020000Y-45720000D03*
%TO.P,U1,6,~{NMI}*%
%TO.N,Net-(U1-~{NMI})*%
X33020000Y-48260000D03*
%TO.P,U1,7,SYNC*%
%TO.N,unconnected-(U1-SYNC-Pad7)*%
X33020000Y-50800000D03*
%TO.P,U1,8,VDD*%
%TO.N,+5V*%
X33020000Y-53340000D03*
%TO.P,U1,9,A0*%
%TO.N,A0*%
X33020000Y-55880000D03*
%TO.P,U1,10,A1*%
%TO.N,A1*%
X33020000Y-58420000D03*
%TO.P,U1,11,A2*%
%TO.N,A2*%
X33020000Y-60960000D03*
%TO.P,U1,12,A3*%
%TO.N,A3*%
X33020000Y-63500000D03*
%TO.P,U1,13,A4*%
%TO.N,A4*%
X33020000Y-66040000D03*
%TO.P,U1,14,A5*%
%TO.N,A5*%
X33020000Y-68580000D03*
%TO.P,U1,15,A6*%
%TO.N,A6*%
X33020000Y-71120000D03*
%TO.P,U1,16,A7*%
%TO.N,A7*%
X33020000Y-73660000D03*
%TO.P,U1,17,A8*%
%TO.N,A8*%
X33020000Y-76200000D03*
%TO.P,U1,18,A9*%
%TO.N,A9*%
X33020000Y-78740000D03*
%TO.P,U1,19,A10*%
%TO.N,A10*%
X33020000Y-81280000D03*
%TO.P,U1,20,A11*%
%TO.N,A11*%
X33020000Y-83820000D03*
%TO.P,U1,21,VSS*%
%TO.N,GND*%
X48260000Y-83820000D03*
%TO.P,U1,22,A12*%
%TO.N,A12*%
X48260000Y-81280000D03*
%TO.P,U1,23,A13*%
%TO.N,A13*%
X48260000Y-78740000D03*
%TO.P,U1,24,A14*%
%TO.N,A14*%
X48260000Y-76200000D03*
%TO.P,U1,25,A15*%
%TO.N,A15*%
X48260000Y-73660000D03*
%TO.P,U1,26,D7*%
%TO.N,D7*%
X48260000Y-71120000D03*
%TO.P,U1,27,D6*%
%TO.N,D6*%
X48260000Y-68580000D03*
%TO.P,U1,28,D5*%
%TO.N,D5*%
X48260000Y-66040000D03*
%TO.P,U1,29,D4*%
%TO.N,D4*%
X48260000Y-63500000D03*
%TO.P,U1,30,D3*%
%TO.N,D3*%
X48260000Y-60960000D03*
%TO.P,U1,31,D2*%
%TO.N,D2*%
X48260000Y-58420000D03*
%TO.P,U1,32,D1*%
%TO.N,D1*%
X48260000Y-55880000D03*
%TO.P,U1,33,D0*%
%TO.N,D0*%
X48260000Y-53340000D03*
%TO.P,U1,34,R/~{W}*%
%TO.N,R{slash}~{W}*%
X48260000Y-50800000D03*
%TO.P,U1,35,nc*%
%TO.N,unconnected-(U1-nc-Pad35)*%
X48260000Y-48260000D03*
%TO.P,U1,36,BE*%
%TO.N,Net-(U1-BE)*%
X48260000Y-45720000D03*
%TO.P,U1,37,\u03D50*%
%TO.N,CLOCK*%
X48260000Y-43180000D03*
%TO.P,U1,38,~{SO}*%
%TO.N,Net-(U1-~{SO})*%
X48260000Y-40640000D03*
%TO.P,U1,39,\u03D52*%
%TO.N,unconnected-(U1-\u03D52-Pad39)*%
X48260000Y-38100000D03*
%TO.P,U1,40,~{RES}*%
%TO.N,~{RES}*%
X48260000Y-35560000D03*
%TD*%
D14*
%TO.P,SW4,1,1*%
%TO.N,+5V*%
X29060000Y-107950000D03*
X35560000Y-107950000D03*
%TO.P,SW4,2,2*%
%TO.N,Net-(U8-1A3)*%
X29060000Y-112450000D03*
X35560000Y-112450000D03*
%TD*%
D20*
%TO.P,U3,1,A15*%
%TO.N,GND*%
X99060000Y-73660000D03*
D11*
%TO.P,U3,2,A12*%
%TO.N,A12*%
X99060000Y-71120000D03*
%TO.P,U3,3,A7*%
%TO.N,A7*%
X99060000Y-68580000D03*
%TO.P,U3,4,A6*%
%TO.N,A6*%
X99060000Y-66040000D03*
%TO.P,U3,5,A5*%
%TO.N,A5*%
X99060000Y-63500000D03*
%TO.P,U3,6,A4*%
%TO.N,A4*%
X99060000Y-60960000D03*
%TO.P,U3,7,A3*%
%TO.N,A3*%
X99060000Y-58420000D03*
%TO.P,U3,8,A2*%
%TO.N,A2*%
X99060000Y-55880000D03*
%TO.P,U3,9,A1*%
%TO.N,A1*%
X99060000Y-53340000D03*
%TO.P,U3,10,A0*%
%TO.N,A0*%
X99060000Y-50800000D03*
%TO.P,U3,11,D0*%
%TO.N,D0*%
X99060000Y-48260000D03*
%TO.P,U3,12,D1*%
%TO.N,D1*%
X99060000Y-45720000D03*
%TO.P,U3,13,D2*%
%TO.N,D2*%
X99060000Y-43180000D03*
%TO.P,U3,14,GND*%
%TO.N,GND*%
X99060000Y-40640000D03*
%TO.P,U3,15,D3*%
%TO.N,D3*%
X83820000Y-40640000D03*
%TO.P,U3,16,D4*%
%TO.N,D4*%
X83820000Y-43180000D03*
%TO.P,U3,17,D5*%
%TO.N,D5*%
X83820000Y-45720000D03*
%TO.P,U3,18,D6*%
%TO.N,D6*%
X83820000Y-48260000D03*
%TO.P,U3,19,D7*%
%TO.N,D7*%
X83820000Y-50800000D03*
%TO.P,U3,20,~{CE}*%
%TO.N,~{ROM}*%
X83820000Y-53340000D03*
%TO.P,U3,21,A10*%
%TO.N,A10*%
X83820000Y-55880000D03*
%TO.P,U3,22,~{OE}*%
%TO.N,~{RD}*%
X83820000Y-58420000D03*
%TO.P,U3,23,A11*%
%TO.N,A11*%
X83820000Y-60960000D03*
%TO.P,U3,24,A9*%
%TO.N,A9*%
X83820000Y-63500000D03*
%TO.P,U3,25,A8*%
%TO.N,A8*%
X83820000Y-66040000D03*
%TO.P,U3,26,A13*%
%TO.N,A13*%
X83820000Y-68580000D03*
%TO.P,U3,27,A14*%
%TO.N,GND*%
X83820000Y-71120000D03*
%TO.P,U3,28,VCC*%
%TO.N,+5V*%
X83820000Y-73660000D03*
%TD*%
D20*
%TO.P,U8,1,1OE*%
%TO.N,~{INPUT}*%
X67310000Y-119380000D03*
D11*
%TO.P,U8,2,1A0*%
%TO.N,Net-(U8-1A0)*%
X69850000Y-119380000D03*
%TO.P,U8,3,2Y0*%
%TO.N,D4*%
X72390000Y-119380000D03*
%TO.P,U8,4,1A1*%
%TO.N,Net-(U8-1A1)*%
X74930000Y-119380000D03*
%TO.P,U8,5,2Y1*%
%TO.N,D5*%
X77470000Y-119380000D03*
%TO.P,U8,6,1A2*%
%TO.N,Net-(U8-1A2)*%
X80010000Y-119380000D03*
%TO.P,U8,7,2Y2*%
%TO.N,D6*%
X82550000Y-119380000D03*
%TO.P,U8,8,1A3*%
%TO.N,Net-(U8-1A3)*%
X85090000Y-119380000D03*
%TO.P,U8,9,2Y3*%
%TO.N,D7*%
X87630000Y-119380000D03*
%TO.P,U8,10,GND*%
%TO.N,GND*%
X90170000Y-119380000D03*
%TO.P,U8,11,2A3*%
X90170000Y-111760000D03*
%TO.P,U8,12,1Y3*%
%TO.N,D3*%
X87630000Y-111760000D03*
%TO.P,U8,13,2A2*%
%TO.N,GND*%
X85090000Y-111760000D03*
%TO.P,U8,14,1Y2*%
%TO.N,D2*%
X82550000Y-111760000D03*
%TO.P,U8,15,2A1*%
%TO.N,Net-(U8-2A1)*%
X80010000Y-111760000D03*
%TO.P,U8,16,1Y1*%
%TO.N,D1*%
X77470000Y-111760000D03*
%TO.P,U8,17,2A0*%
%TO.N,Net-(U8-2A0)*%
X74930000Y-111760000D03*
%TO.P,U8,18,1Y0*%
%TO.N,D0*%
X72390000Y-111760000D03*
%TO.P,U8,19,2OE*%
%TO.N,~{INPUT}*%
X69850000Y-111760000D03*
%TO.P,U8,20,VCC*%
%TO.N,+5V*%
X67310000Y-111760000D03*
%TD*%
D10*
%TO.P,R7,1*%
%TO.N,Net-(U8-2A0)*%
X101600000Y-81280000D03*
D11*
%TO.P,R7,2*%
%TO.N,GND*%
X111760000Y-81280000D03*
%TD*%
D10*
%TO.P,R5,1*%
%TO.N,Net-(U1-~{SO})*%
X48260000Y-99060000D03*
D11*
%TO.P,R5,2*%
%TO.N,+5V*%
X48260000Y-88900000D03*
%TD*%
D10*
%TO.P,R8,1*%
%TO.N,Net-(U8-1A3)*%
X101600000Y-85090000D03*
D11*
%TO.P,R8,2*%
%TO.N,GND*%
X111760000Y-85090000D03*
%TD*%
D19*
%TO.P,H4,*%
%TO.N,*%
X123190000Y-119380000D03*
%TD*%
D10*
%TO.P,R4,1*%
%TO.N,Net-(U1-BE)*%
X44450000Y-99060000D03*
D11*
%TO.P,R4,2*%
%TO.N,+5V*%
X44450000Y-88900000D03*
%TD*%
D10*
%TO.P,C5,1*%
%TO.N,+5V*%
X87670000Y-83820000D03*
%TO.P,C5,2*%
%TO.N,GND*%
X85170000Y-83820000D03*
%TD*%
D19*
%TO.P,H1,*%
%TO.N,*%
X30480000Y-26670000D03*
%TD*%
D20*
%TO.P,U2,1,A18*%
%TO.N,GND*%
X73660000Y-78740000D03*
D11*
%TO.P,U2,2,A16*%
X73660000Y-76200000D03*
%TO.P,U2,3,A14*%
X73660000Y-73660000D03*
%TO.P,U2,4,A12*%
%TO.N,A12*%
X73660000Y-71120000D03*
%TO.P,U2,5,A7*%
%TO.N,A7*%
X73660000Y-68580000D03*
%TO.P,U2,6,A6*%
%TO.N,A6*%
X73660000Y-66040000D03*
%TO.P,U2,7,A5*%
%TO.N,A5*%
X73660000Y-63500000D03*
%TO.P,U2,8,A4*%
%TO.N,A4*%
X73660000Y-60960000D03*
%TO.P,U2,9,A3*%
%TO.N,A3*%
X73660000Y-58420000D03*
%TO.P,U2,10,A2*%
%TO.N,A2*%
X73660000Y-55880000D03*
%TO.P,U2,11,A1*%
%TO.N,A1*%
X73660000Y-53340000D03*
%TO.P,U2,12,A0*%
%TO.N,A0*%
X73660000Y-50800000D03*
%TO.P,U2,13,DQ0*%
%TO.N,D0*%
X73660000Y-48260000D03*
%TO.P,U2,14,DQ1*%
%TO.N,D1*%
X73660000Y-45720000D03*
%TO.P,U2,15,DQ2*%
%TO.N,D2*%
X73660000Y-43180000D03*
%TO.P,U2,16,VSS*%
%TO.N,GND*%
X73660000Y-40640000D03*
%TO.P,U2,17,DQ3*%
%TO.N,D3*%
X58420000Y-40640000D03*
%TO.P,U2,18,DQ4*%
%TO.N,D4*%
X58420000Y-43180000D03*
%TO.P,U2,19,DQ5*%
%TO.N,D5*%
X58420000Y-45720000D03*
%TO.P,U2,20,DQ6*%
%TO.N,D6*%
X58420000Y-48260000D03*
%TO.P,U2,21,DQ7*%
%TO.N,D7*%
X58420000Y-50800000D03*
%TO.P,U2,22,CE#*%
%TO.N,~{RAM}*%
X58420000Y-53340000D03*
%TO.P,U2,23,A10*%
%TO.N,A10*%
X58420000Y-55880000D03*
%TO.P,U2,24,OE#*%
%TO.N,~{RD}*%
X58420000Y-58420000D03*
%TO.P,U2,25,A11*%
%TO.N,A11*%
X58420000Y-60960000D03*
%TO.P,U2,26,A9*%
%TO.N,A9*%
X58420000Y-63500000D03*
%TO.P,U2,27,A8*%
%TO.N,A8*%
X58420000Y-66040000D03*
%TO.P,U2,28,A13*%
%TO.N,A13*%
X58420000Y-68580000D03*
%TO.P,U2,29,WE#*%
%TO.N,~{WR}*%
X58420000Y-71120000D03*
%TO.P,U2,30,A17*%
%TO.N,GND*%
X58420000Y-73660000D03*
%TO.P,U2,31,A15*%
X58420000Y-76200000D03*
%TO.P,U2,32,VCC*%
%TO.N,+5V*%
X58420000Y-78740000D03*
%TD*%
D10*
%TO.P,R9,1*%
%TO.N,Net-(U8-1A2)*%
X101600000Y-88900000D03*
D11*
%TO.P,R9,2*%
%TO.N,GND*%
X111760000Y-88900000D03*
%TD*%
D20*
%TO.P,U5,1*%
%TO.N,R{slash}~{W}*%
X67310000Y-88900000D03*
D11*
%TO.P,U5,2*%
X67310000Y-91440000D03*
%TO.P,U5,3*%
%TO.N,Net-(U5-Pad3)*%
X67310000Y-93980000D03*
%TO.P,U5,4*%
X67310000Y-96520000D03*
%TO.P,U5,5*%
%TO.N,CLOCK*%
X67310000Y-99060000D03*
%TO.P,U5,6*%
%TO.N,~{WR}*%
X67310000Y-101600000D03*
%TO.P,U5,7,GND*%
%TO.N,GND*%
X67310000Y-104140000D03*
%TO.P,U5,8*%
%TO.N,~{RD}*%
X74930000Y-104140000D03*
%TO.P,U5,9*%
%TO.N,CLOCK*%
X74930000Y-101600000D03*
%TO.P,U5,10*%
%TO.N,R{slash}~{W}*%
X74930000Y-99060000D03*
%TO.P,U5,11*%
%TO.N,LCD*%
X74930000Y-96520000D03*
%TO.P,U5,12*%
%TO.N,Net-(U6-O2)*%
X74930000Y-93980000D03*
%TO.P,U5,13*%
X74930000Y-91440000D03*
%TO.P,U5,14,VCC*%
%TO.N,+5V*%
X74930000Y-88900000D03*
%TD*%
D20*
%TO.P,C6,1*%
%TO.N,+5V*%
X121920000Y-36830000D03*
D10*
%TO.P,C6,2*%
%TO.N,GND*%
X119420000Y-36830000D03*
%TD*%
D19*
%TO.P,H3,*%
%TO.N,*%
X30480000Y-119380000D03*
%TD*%
D10*
%TO.P,R6,1*%
%TO.N,Net-(U8-2A1)*%
X101600000Y-77470000D03*
D11*
%TO.P,R6,2*%
%TO.N,GND*%
X111760000Y-77470000D03*
%TD*%
D20*
%TO.P,X1,1,EN*%
%TO.N,unconnected-(X1-EN-Pad1)*%
X105410000Y-48260000D03*
D10*
%TO.P,X1,7,GND*%
%TO.N,GND*%
X105410000Y-63500000D03*
%TO.P,X1,8,OUT*%
%TO.N,CLOCK*%
X113030000Y-63500000D03*
%TO.P,X1,14,Vcc*%
%TO.N,+5V*%
X113030000Y-48260000D03*
%TD*%
D17*
%TO.P,D2,1,K*%
%TO.N,Net-(D2-K)*%
X121920000Y-88900000D03*
D18*
%TO.P,D2,2,A*%
%TO.N,+5V*%
X124460000Y-88900000D03*
%TD*%
D21*
%TO.P,J2,1,Pin_1*%
%TO.N,D0*%
X38100000Y-25400000D03*
D22*
%TO.P,J2,2,Pin_2*%
%TO.N,D1*%
X40640000Y-25400000D03*
%TO.P,J2,3,Pin_3*%
%TO.N,D2*%
X43180000Y-25400000D03*
%TO.P,J2,4,Pin_4*%
%TO.N,D3*%
X45720000Y-25400000D03*
%TO.P,J2,5,Pin_5*%
%TO.N,D4*%
X48260000Y-25400000D03*
%TO.P,J2,6,Pin_6*%
%TO.N,D5*%
X50800000Y-25400000D03*
%TO.P,J2,7,Pin_7*%
%TO.N,D6*%
X53340000Y-25400000D03*
%TO.P,J2,8,Pin_8*%
%TO.N,D7*%
X55880000Y-25400000D03*
%TO.P,J2,9,Pin_9*%
%TO.N,~{RES}*%
X58420000Y-25400000D03*
%TO.P,J2,10,Pin_10*%
%TO.N,CLOCK*%
X60960000Y-25400000D03*
%TO.P,J2,11,Pin_11*%
%TO.N,R{slash}~{W}*%
X63500000Y-25400000D03*
%TO.P,J2,12,Pin_12*%
%TO.N,~{RAM}*%
X66040000Y-25400000D03*
%TO.P,J2,13,Pin_13*%
%TO.N,~{INPUT}*%
X68580000Y-25400000D03*
%TO.P,J2,14,Pin_14*%
%TO.N,LCD*%
X71120000Y-25400000D03*
%TO.P,J2,15,Pin_15*%
%TO.N,~{ROM}*%
X73660000Y-25400000D03*
%TO.P,J2,16,Pin_16*%
%TO.N,GND*%
X76200000Y-25400000D03*
%TD*%
D14*
%TO.P,SW3,1,1*%
%TO.N,+5V*%
X39220000Y-113030000D03*
X45720000Y-113030000D03*
%TO.P,SW3,2,2*%
%TO.N,Net-(U8-2A0)*%
X39220000Y-117530000D03*
X45720000Y-117530000D03*
%TD*%
D10*
%TO.P,R2,1*%
%TO.N,Net-(U1-~{NMI})*%
X36830000Y-99060000D03*
D11*
%TO.P,R2,2*%
%TO.N,+5V*%
X36830000Y-88900000D03*
%TD*%
D23*
%TO.P,J1,1*%
%TO.N,Net-(U7-IN)*%
X109820000Y-36830000D03*
D24*
%TO.P,J1,2*%
%TO.N,GND*%
X109820000Y-31030000D03*
D25*
%TO.P,J1,3*%
%TO.N,N/C*%
X105020000Y-33830000D03*
%TD*%
D10*
%TO.P,R12,1*%
%TO.N,GND*%
X101600000Y-100330000D03*
D11*
%TO.P,R12,2*%
%TO.N,Net-(D1-K)*%
X111760000Y-100330000D03*
%TD*%
D14*
%TO.P,LCD1,*%
%TO.N,*%
X43180000Y-31750000D03*
X73660000Y-31750000D03*
X76200000Y-31750000D03*
%TO.P,LCD1,1,GND*%
%TO.N,GND*%
X38100000Y-31750000D03*
%TO.P,LCD1,2,Vdd*%
%TO.N,+5V*%
X40640000Y-31750000D03*
%TO.P,LCD1,4,RS*%
%TO.N,A0*%
X45720000Y-31750000D03*
%TO.P,LCD1,5,R~{W}*%
%TO.N,R{slash}~{W}*%
X48260000Y-31750000D03*
%TO.P,LCD1,6,E*%
%TO.N,LCD*%
X50800000Y-31750000D03*
%TO.P,LCD1,7,D_{0}*%
%TO.N,D0*%
X53340000Y-31750000D03*
%TO.P,LCD1,8,D_{1}*%
%TO.N,D1*%
X55880000Y-31750000D03*
%TO.P,LCD1,9,D_{2}*%
%TO.N,D2*%
X58420000Y-31750000D03*
%TO.P,LCD1,10,D_{3}*%
%TO.N,D3*%
X60960000Y-31750000D03*
%TO.P,LCD1,11,D_{4}*%
%TO.N,D4*%
X63500000Y-31750000D03*
%TO.P,LCD1,12,D_{5}*%
%TO.N,D5*%
X66040000Y-31750000D03*
%TO.P,LCD1,13,D_{6}*%
%TO.N,D6*%
X68580000Y-31750000D03*
%TO.P,LCD1,14,D_{7}*%
%TO.N,D7*%
X71120000Y-31750000D03*
%TD*%
D26*
%TO.N,A0*%
X63986200Y-52778400D03*
%TO.N,R{slash}~{W}*%
X48817900Y-86806300D03*
%TO.N,LCD*%
X50547600Y-83435000D03*
%TO.N,D0*%
X61606600Y-50810500D03*
X51571200Y-52000300D03*
X61463200Y-108809400D03*
%TO.N,D1*%
X44147100Y-55993400D03*
X58769000Y-107140900D03*
%TO.N,D2*%
X103303200Y-46373500D03*
%TO.N,D3*%
X51953000Y-87603100D03*
%TO.N,D4*%
X76194000Y-34929300D03*
X52645000Y-64430000D03*
%TO.N,D5*%
X51538900Y-66468200D03*
%TO.N,D6*%
X66403600Y-40276400D03*
%TO.N,D7*%
X50261400Y-70288600D03*
%TO.N,A1*%
X63981400Y-54037400D03*
X89404200Y-52665300D03*
%TO.N,A2*%
X62532700Y-52502300D03*
%TO.N,A3*%
X63991300Y-58421900D03*
%TO.N,A4*%
X60237600Y-62311100D03*
%TO.N,A5*%
X59746800Y-64843900D03*
%TO.N,A6*%
X39563900Y-85910300D03*
X56655500Y-85910300D03*
%TO.N,A7*%
X41640900Y-79526500D03*
%TO.N,A9*%
X56627200Y-66909800D03*
%TO.N,A10*%
X51000700Y-68434800D03*
%TO.N,A11*%
X65547500Y-60302100D03*
%TO.N,A15*%
X52270500Y-81978900D03*
%TO.N,CLOCK*%
X96247500Y-73164800D03*
X35549800Y-33194500D03*
%TO.N,~{ROM}*%
X91015100Y-55196300D03*
%TD*%
D27*
%TO.N,+5V*%
X103705200Y-47070200D02*
X111840200Y-47070200D01*
X33020000Y-88900000D02*
X36830000Y-88900000D01*
X90210000Y-67270000D02*
X84127900Y-73352100D01*
X74930000Y-88900000D02*
X74930000Y-86360000D01*
X90210000Y-35560000D02*
X90210000Y-31710000D01*
X111780000Y-87610000D02*
X119380000Y-80010000D01*
X63500000Y-78740000D02*
X58420000Y-78740000D01*
X64770000Y-35560000D02*
X51852900Y-35560000D01*
X111840200Y-47070200D02*
X113030000Y-48260000D01*
X64627900Y-110254800D02*
X58184800Y-110254800D01*
X51852900Y-35560000D02*
X49558600Y-33265700D01*
X44450000Y-88900000D02*
X40640000Y-88900000D01*
X42155700Y-33265700D02*
X40640000Y-31750000D01*
X103625000Y-47150400D02*
X103705200Y-47070200D01*
X90210000Y-35560000D02*
X90210000Y-46990000D01*
X36830000Y-88900000D02*
X40640000Y-88900000D01*
X84127900Y-73352100D02*
X75545800Y-64770000D01*
X49558600Y-33265700D02*
X42155700Y-33265700D01*
X35560000Y-107950000D02*
X29060000Y-107950000D01*
X48260000Y-88900000D02*
X44450000Y-88900000D01*
X106830000Y-110490000D02*
X114150000Y-110490000D01*
X45720000Y-103450000D02*
X39220000Y-103450000D01*
X90170000Y-88900000D02*
X90170000Y-87610000D01*
X66133100Y-111760000D02*
X64627900Y-110254800D01*
X84127900Y-73352100D02*
X83820000Y-73660000D01*
X29210000Y-57150000D02*
X33020000Y-53340000D01*
X67310000Y-111760000D02*
X66133100Y-111760000D01*
X90170000Y-87610000D02*
X111780000Y-87610000D01*
X90170000Y-87610000D02*
X90170000Y-86320000D01*
X100330000Y-110490000D02*
X106830000Y-110490000D01*
X75545800Y-64770000D02*
X67331300Y-64770000D01*
X74930000Y-86360000D02*
X72390000Y-83820000D01*
X67331300Y-64770000D02*
X64770000Y-62208700D01*
X90170000Y-86320000D02*
X87670000Y-83820000D01*
X58184800Y-110254800D02*
X55880000Y-107950000D01*
X90210000Y-46990000D02*
X90210000Y-67270000D01*
X64770000Y-77470000D02*
X63500000Y-78740000D01*
X45720000Y-113030000D02*
X39220000Y-113030000D01*
X64770000Y-62208700D02*
X64770000Y-77470000D01*
X55880000Y-107950000D02*
X49380000Y-107950000D01*
X29210000Y-58420000D02*
X29210000Y-57150000D01*
X64770000Y-35560000D02*
X64770000Y-62208700D01*
X102821100Y-46990000D02*
X102981500Y-47150400D01*
X102981500Y-47150400D02*
X103625000Y-47150400D01*
X120650000Y-110490000D02*
X114150000Y-110490000D01*
X90210000Y-46990000D02*
X102821100Y-46990000D01*
X90210000Y-31710000D02*
X95250000Y-26670000D01*
%TO.N,GND*%
X114273300Y-40640000D02*
X114273300Y-36899800D01*
X111760000Y-96520000D02*
X111760000Y-97696900D01*
X122555000Y-101020000D02*
X116055000Y-101020000D01*
X105410000Y-73660000D02*
X105410000Y-63500000D01*
X82550000Y-106680000D02*
X83726900Y-106680000D01*
X119420000Y-36830000D02*
X114343100Y-36830000D01*
X114273300Y-40640000D02*
X100236900Y-40640000D01*
X104233100Y-97696900D02*
X111760000Y-97696900D01*
X114206900Y-80010000D02*
X112936900Y-81280000D01*
X101600000Y-104140000D02*
X93980000Y-111760000D01*
X69890000Y-101560000D02*
X67310000Y-104140000D01*
X112731900Y-97696900D02*
X111760000Y-97696900D01*
X87075900Y-110029000D02*
X83726900Y-106680000D01*
X46990000Y-85090000D02*
X48260000Y-83820000D01*
X67270000Y-35560000D02*
X68580000Y-35560000D01*
X114273300Y-36899800D02*
X114343100Y-36830000D01*
X87075900Y-110306000D02*
X87904900Y-110306000D01*
X29210000Y-82550000D02*
X31750000Y-85090000D01*
X69890000Y-84352600D02*
X49969500Y-84352600D01*
X85090000Y-111760000D02*
X86266900Y-111760000D01*
X29210000Y-60920000D02*
X29210000Y-82550000D01*
X84024400Y-96817500D02*
X83726900Y-96520000D01*
X84635700Y-94888800D02*
X83726900Y-93980000D01*
X85170000Y-94888800D02*
X84635700Y-94888800D01*
X49969500Y-84352600D02*
X49436900Y-83820000D01*
X101600000Y-100330000D02*
X104233100Y-97696900D01*
X85170000Y-83820000D02*
X85170000Y-94888800D01*
X82550000Y-96520000D02*
X83726900Y-96520000D01*
X48260000Y-83820000D02*
X49436900Y-83820000D01*
X92710000Y-26670000D02*
X91333100Y-28046900D01*
X93980000Y-35560000D02*
X99060000Y-40640000D01*
X91333100Y-28046900D02*
X80073800Y-28046900D01*
X31750000Y-85090000D02*
X46990000Y-85090000D01*
X99060000Y-73660000D02*
X105410000Y-73660000D01*
X85170000Y-96817500D02*
X84024400Y-96817500D01*
X87904900Y-110306000D02*
X88993100Y-111394200D01*
X111760000Y-81280000D02*
X112936900Y-81280000D01*
X85170000Y-96817500D02*
X85170000Y-104060000D01*
X116840000Y-80010000D02*
X114206900Y-80010000D01*
X111760000Y-77470000D02*
X110583100Y-77470000D01*
X86266900Y-111760000D02*
X86266900Y-111115000D01*
X114343100Y-36830000D02*
X109820000Y-32306900D01*
X85170000Y-104060000D02*
X82550000Y-106680000D01*
X90170000Y-111760000D02*
X88993100Y-111760000D01*
X86266900Y-111115000D02*
X87075900Y-110306000D01*
X68580000Y-35560000D02*
X73660000Y-40640000D01*
X80073800Y-28046900D02*
X77426900Y-25400000D01*
X93980000Y-111760000D02*
X90170000Y-111760000D01*
X92710000Y-35560000D02*
X93980000Y-35560000D01*
X69890000Y-84352600D02*
X69890000Y-101560000D01*
X76200000Y-25400000D02*
X77426900Y-25400000D01*
X109820000Y-31030000D02*
X109820000Y-32306900D01*
X105410000Y-73660000D02*
X106773100Y-73660000D01*
X82550000Y-93980000D02*
X83726900Y-93980000D01*
X105410000Y-63500000D02*
X114273300Y-54636700D01*
X85170000Y-94888800D02*
X85170000Y-96817500D01*
X116055000Y-101020000D02*
X112731900Y-97696900D01*
X106773100Y-73660000D02*
X110583100Y-77470000D01*
X88993100Y-111394200D02*
X88993100Y-111760000D01*
X69890000Y-83820000D02*
X69890000Y-84352600D01*
X99060000Y-40640000D02*
X100236900Y-40640000D01*
X87075900Y-110306000D02*
X87075900Y-110029000D01*
X114273300Y-54636700D02*
X114273300Y-40640000D01*
%TO.N,Net-(U7-IN)*%
X90170000Y-26670000D02*
X91552300Y-25287700D01*
X91552300Y-25287700D02*
X99554600Y-25287700D01*
X109820000Y-36830000D02*
X109820000Y-35553100D01*
X99554600Y-25287700D02*
X109820000Y-35553100D01*
%TO.N,A0*%
X34196900Y-55880000D02*
X35467000Y-54609900D01*
X33020000Y-55880000D02*
X34196900Y-55880000D01*
X62154700Y-54609900D02*
X63986200Y-52778400D01*
X35467000Y-54609900D02*
X62154700Y-54609900D01*
%TO.N,R{slash}~{W}*%
X64039400Y-86806300D02*
X48817900Y-86806300D01*
X67310000Y-88900000D02*
X66133100Y-88900000D01*
X66133100Y-88900000D02*
X64039400Y-86806300D01*
%TO.N,LCD*%
X49423100Y-30373100D02*
X50800000Y-31750000D01*
X69893100Y-25400000D02*
X69893100Y-24939800D01*
X36873100Y-26437900D02*
X40808300Y-30373100D01*
X57383500Y-83435000D02*
X58226700Y-82591800D01*
X74564200Y-95343100D02*
X74930000Y-95343100D01*
X70337200Y-82591800D02*
X71066900Y-83321500D01*
X74930000Y-96520000D02*
X74930000Y-95343100D01*
X69126400Y-24173100D02*
X37063000Y-24173100D01*
X58226700Y-82591800D02*
X70337200Y-82591800D01*
X40808300Y-30373100D02*
X49423100Y-30373100D01*
X71120000Y-25400000D02*
X69893100Y-25400000D01*
X69893100Y-24939800D02*
X69126400Y-24173100D01*
X71066900Y-91845800D02*
X74564200Y-95343100D01*
X36873100Y-24363000D02*
X36873100Y-26437900D01*
X37063000Y-24173100D02*
X36873100Y-24363000D01*
X71066900Y-83321500D02*
X71066900Y-91845800D01*
X50547600Y-83435000D02*
X57383500Y-83435000D01*
%TO.N,D0*%
X71213100Y-111760000D02*
X71213100Y-111414200D01*
X72390000Y-111760000D02*
X71213100Y-111760000D01*
X71213100Y-111414200D02*
X68608300Y-108809400D01*
X43153400Y-29655000D02*
X39119000Y-25620600D01*
X51571200Y-52000300D02*
X50776600Y-52000300D01*
X38100000Y-25400000D02*
X39119000Y-25400000D01*
X51245000Y-29655000D02*
X43153400Y-29655000D01*
X39119000Y-25620600D02*
X39119000Y-25400000D01*
X50776600Y-52000300D02*
X49436900Y-53340000D01*
X60416800Y-52000300D02*
X61606600Y-50810500D01*
X51571200Y-52000300D02*
X60416800Y-52000300D01*
X53340000Y-31750000D02*
X51245000Y-29655000D01*
X48260000Y-53340000D02*
X49436900Y-53340000D01*
X68608300Y-108809400D02*
X61463200Y-108809400D01*
%TO.N,D1*%
X48260000Y-55880000D02*
X44260500Y-55880000D01*
X44816300Y-28809500D02*
X52645500Y-28809500D01*
X41866900Y-25400000D02*
X41866900Y-25860100D01*
X76293100Y-111394200D02*
X76293100Y-111760000D01*
X55880000Y-31750000D02*
X58510800Y-34380800D01*
X77470000Y-111760000D02*
X76293100Y-111760000D01*
X73660000Y-45720000D02*
X73660000Y-44543100D01*
X65261500Y-34380800D02*
X66020000Y-35139300D01*
X41866900Y-25860100D02*
X44816300Y-28809500D01*
X58510800Y-34380800D02*
X65261500Y-34380800D01*
X58769000Y-107140900D02*
X72039800Y-107140900D01*
X55586000Y-31750000D02*
X55880000Y-31750000D01*
X66020000Y-37268900D02*
X73294200Y-44543100D01*
X40640000Y-25400000D02*
X41866900Y-25400000D01*
X44260500Y-55880000D02*
X44147100Y-55993400D01*
X72039800Y-107140900D02*
X76293100Y-111394200D01*
X52645500Y-28809500D02*
X55586000Y-31750000D01*
X73294200Y-44543100D02*
X73660000Y-44543100D01*
X66020000Y-35139300D02*
X66020000Y-37268900D01*
%TO.N,D2*%
X43180000Y-25400000D02*
X44406900Y-25400000D01*
X66211800Y-33690400D02*
X66747000Y-34225600D01*
X73660000Y-43180000D02*
X73660000Y-42003100D01*
X45173600Y-26626900D02*
X51464600Y-26626900D01*
X60360400Y-33690400D02*
X66211800Y-33690400D01*
X58420000Y-31750000D02*
X60360400Y-33690400D01*
X74027800Y-42003100D02*
X73660000Y-42003100D01*
X66747000Y-34225600D02*
X68941100Y-34225600D01*
X100236900Y-43307200D02*
X103303200Y-46373500D01*
X44406900Y-25860200D02*
X45173600Y-26626900D01*
X74839400Y-41191500D02*
X74027800Y-42003100D01*
X68941100Y-34225600D02*
X74839400Y-40123900D01*
X100236900Y-43180000D02*
X100236900Y-43307200D01*
X99060000Y-43180000D02*
X100236900Y-43180000D01*
X51464600Y-26626900D02*
X54307200Y-29469500D01*
X56139500Y-29469500D02*
X58420000Y-31750000D01*
X74839400Y-40123900D02*
X74839400Y-41191500D01*
X44406900Y-25400000D02*
X44406900Y-25860200D01*
X54307200Y-29469500D02*
X56139500Y-29469500D01*
%TO.N,D3*%
X83820000Y-40640000D02*
X82643100Y-40640000D01*
X82643100Y-40272200D02*
X76094600Y-33723700D01*
X83820000Y-112165100D02*
X84616900Y-112962000D01*
X51953000Y-90493700D02*
X67152800Y-105693500D01*
X76094600Y-33723700D02*
X66954900Y-33723700D01*
X67152800Y-105693500D02*
X78152400Y-105693500D01*
X51953000Y-87603100D02*
X51953000Y-90493700D01*
X84616900Y-112962000D02*
X86428000Y-112962000D01*
X66358100Y-33126900D02*
X62336900Y-33126900D01*
X78152400Y-105693500D02*
X83820000Y-111361100D01*
X62336900Y-33126900D02*
X60960000Y-31750000D01*
X82643100Y-40640000D02*
X82643100Y-40272200D01*
X66954900Y-33723700D02*
X66358100Y-33126900D01*
X86428000Y-112962000D02*
X87630000Y-111760000D01*
X83820000Y-111361100D02*
X83820000Y-112165100D01*
%TO.N,D4*%
X83267800Y-42003100D02*
X76194000Y-34929300D01*
X51715000Y-63500000D02*
X52645000Y-64430000D01*
X83820000Y-42003100D02*
X83267800Y-42003100D01*
X83820000Y-43180000D02*
X83820000Y-42003100D01*
X48260000Y-63500000D02*
X51715000Y-63500000D01*
%TO.N,D5*%
X84997800Y-43731100D02*
X84185800Y-44543100D01*
X49865100Y-66468200D02*
X51538900Y-66468200D01*
X67416900Y-33126900D02*
X78036700Y-33126900D01*
X84185800Y-44543100D02*
X83820000Y-44543100D01*
X78036700Y-33126900D02*
X84997800Y-40088000D01*
X84997800Y-40088000D02*
X84997800Y-43731100D01*
X66040000Y-31750000D02*
X64455200Y-30165200D01*
X48260000Y-66040000D02*
X49436900Y-66040000D01*
X52026900Y-25822000D02*
X52026900Y-25400000D01*
X50800000Y-25400000D02*
X52026900Y-25400000D01*
X66040000Y-31750000D02*
X67416900Y-33126900D01*
X58116000Y-30165200D02*
X56080000Y-28129200D01*
X49436900Y-66040000D02*
X49865100Y-66468200D01*
X56080000Y-28129200D02*
X54334100Y-28129200D01*
X83820000Y-45720000D02*
X83820000Y-44543100D01*
X54334100Y-28129200D02*
X52026900Y-25822000D01*
X64455200Y-30165200D02*
X58116000Y-30165200D01*
%TO.N,D6*%
X57415000Y-28670000D02*
X65500000Y-28670000D01*
X82643100Y-48260000D02*
X81373100Y-46990000D01*
X81373100Y-46990000D02*
X73117200Y-46990000D01*
X65500000Y-28670000D02*
X68580000Y-31750000D01*
X73117200Y-46990000D02*
X66403600Y-40276400D01*
X54566900Y-25821900D02*
X57415000Y-28670000D01*
X53340000Y-25400000D02*
X54566900Y-25400000D01*
X54566900Y-25400000D02*
X54566900Y-25821900D01*
X83820000Y-48260000D02*
X82643100Y-48260000D01*
%TO.N,D7*%
X49436900Y-71120000D02*
X50261400Y-70295500D01*
X58781100Y-27582600D02*
X57106900Y-25908400D01*
X50261400Y-70295500D02*
X50261400Y-70288600D01*
X48260000Y-71120000D02*
X49436900Y-71120000D01*
X66952600Y-27582600D02*
X58781100Y-27582600D01*
X57106900Y-25908400D02*
X57106900Y-25400000D01*
X55880000Y-25400000D02*
X57106900Y-25400000D01*
X71120000Y-31750000D02*
X66952600Y-27582600D01*
%TO.N,~{RES}*%
X108373600Y-24090900D02*
X72473900Y-24090900D01*
X58420000Y-25400000D02*
X59646900Y-25400000D01*
X71885700Y-23670500D02*
X72390000Y-24174800D01*
X72390000Y-25880500D02*
X72390000Y-24174800D01*
X36318400Y-31987800D02*
X36318400Y-24119700D01*
X36767600Y-23670500D02*
X71885700Y-23670500D01*
X59646900Y-25400000D02*
X59646900Y-25860100D01*
X36318400Y-24119700D02*
X36767600Y-23670500D01*
X120670100Y-36387400D02*
X108373600Y-24090900D01*
X121920000Y-78883100D02*
X120670100Y-77633200D01*
X121920000Y-80010000D02*
X121920000Y-78883100D01*
X121920000Y-81136900D02*
X116840000Y-86216900D01*
X121920000Y-80573400D02*
X121920000Y-81136900D01*
X116840000Y-86216900D02*
X116840000Y-88900000D01*
X120670100Y-77633200D02*
X120670100Y-36387400D01*
X39890600Y-35560000D02*
X36318400Y-31987800D01*
X71627400Y-26643100D02*
X72390000Y-25880500D01*
X121920000Y-80573400D02*
X121920000Y-80010000D01*
X72473900Y-24090900D02*
X72390000Y-24174800D01*
X59646900Y-25860100D02*
X60429900Y-26643100D01*
X48260000Y-35560000D02*
X39890600Y-35560000D01*
X122555000Y-96520000D02*
X116055000Y-96520000D01*
X60429900Y-26643100D02*
X71627400Y-26643100D01*
%TO.N,A1*%
X73660000Y-53340000D02*
X74836900Y-53340000D01*
X60775700Y-57243100D02*
X63981400Y-54037400D01*
X35373800Y-57243100D02*
X60775700Y-57243100D01*
X74836900Y-53340000D02*
X76048900Y-54552000D01*
X76048900Y-54552000D02*
X87517500Y-54552000D01*
X34196900Y-58420000D02*
X35373800Y-57243100D01*
X87517500Y-54552000D02*
X89404200Y-52665300D01*
X33020000Y-58420000D02*
X34196900Y-58420000D01*
%TO.N,A2*%
X31843100Y-60960000D02*
X30553100Y-59670000D01*
X28740000Y-59670000D02*
X28008400Y-58938400D01*
X61507700Y-49591600D02*
X62532700Y-50616600D01*
X30553100Y-59670000D02*
X28740000Y-59670000D01*
X38005600Y-49591600D02*
X61507700Y-49591600D01*
X33020000Y-60960000D02*
X31843100Y-60960000D01*
X28008400Y-58938400D02*
X28008400Y-56622900D01*
X28008400Y-56622900D02*
X32561300Y-52070000D01*
X32561300Y-52070000D02*
X35527200Y-52070000D01*
X62532700Y-50616600D02*
X62532700Y-52502300D01*
X35527200Y-52070000D02*
X38005600Y-49591600D01*
%TO.N,A3*%
X33020000Y-63500000D02*
X34196900Y-63500000D01*
X34196900Y-63500000D02*
X38006900Y-59690000D01*
X62723200Y-59690000D02*
X63991300Y-58421900D01*
X38006900Y-59690000D02*
X62723200Y-59690000D01*
%TO.N,A4*%
X34196900Y-66040000D02*
X37925800Y-62311100D01*
X33020000Y-66040000D02*
X34196900Y-66040000D01*
X37925800Y-62311100D02*
X60237600Y-62311100D01*
%TO.N,A5*%
X37924300Y-64852600D02*
X51969000Y-64852600D01*
X53691300Y-65206900D02*
X54054300Y-64843900D01*
X54054300Y-64843900D02*
X59746800Y-64843900D01*
X33020000Y-68580000D02*
X34196900Y-68580000D01*
X34196900Y-68580000D02*
X37924300Y-64852600D01*
X52323300Y-65206900D02*
X53691300Y-65206900D01*
X51969000Y-64852600D02*
X52323300Y-65206900D01*
%TO.N,A6*%
X39563900Y-85910300D02*
X56655500Y-85910300D01*
X89079500Y-74843600D02*
X83290900Y-74843600D01*
X83290900Y-74843600D02*
X74836900Y-66389600D01*
X97883100Y-66040000D02*
X89079500Y-74843600D01*
X73660000Y-66040000D02*
X74836900Y-66040000D01*
X99060000Y-66040000D02*
X97883100Y-66040000D01*
X74836900Y-66389600D02*
X74836900Y-66040000D01*
%TO.N,A7*%
X74248500Y-68580000D02*
X73660000Y-68580000D01*
X73660000Y-68580000D02*
X73660000Y-69756900D01*
X74248500Y-68580000D02*
X74836900Y-68580000D01*
X97883100Y-68580000D02*
X91117600Y-75345500D01*
X42076300Y-79961900D02*
X63041100Y-79961900D01*
X63041100Y-79961900D02*
X73246100Y-69756900D01*
X73246100Y-69756900D02*
X73660000Y-69756900D01*
X81602400Y-75345500D02*
X74836900Y-68580000D01*
X91117600Y-75345500D02*
X81602400Y-75345500D01*
X99060000Y-68580000D02*
X97883100Y-68580000D01*
X41640900Y-79526500D02*
X42076300Y-79961900D01*
%TO.N,A8*%
X58420000Y-66040000D02*
X57243100Y-66040000D01*
X52077100Y-67391300D02*
X43005600Y-67391300D01*
X43005600Y-67391300D02*
X34196900Y-76200000D01*
X57243100Y-66040000D02*
X53428400Y-66040000D01*
X33020000Y-76200000D02*
X34196900Y-76200000D01*
X53428400Y-66040000D02*
X52077100Y-67391300D01*
%TO.N,A9*%
X56627200Y-66909800D02*
X51147000Y-72390000D01*
X33938200Y-82462300D02*
X32534400Y-82462300D01*
X32654200Y-79916900D02*
X33020000Y-79916900D01*
X44010500Y-72390000D02*
X33938200Y-82462300D01*
X51147000Y-72390000D02*
X44010500Y-72390000D01*
X31806600Y-81734500D02*
X31806600Y-80764500D01*
X32534400Y-82462300D02*
X31806600Y-81734500D01*
X31806600Y-80764500D02*
X32654200Y-79916900D01*
X33020000Y-78740000D02*
X33020000Y-79916900D01*
%TO.N,A10*%
X34196900Y-81280000D02*
X45626900Y-69850000D01*
X33020000Y-81280000D02*
X34196900Y-81280000D01*
X45626900Y-69850000D02*
X49585500Y-69850000D01*
X49585500Y-69850000D02*
X51000700Y-68434800D01*
%TO.N,A11*%
X61049100Y-62001100D02*
X60008000Y-60960000D01*
X66083100Y-59766500D02*
X65547500Y-60302100D01*
X33020000Y-83820000D02*
X34196900Y-83820000D01*
X34196900Y-83820000D02*
X43086900Y-74930000D01*
X81449600Y-59766500D02*
X66083100Y-59766500D01*
X50101900Y-74930000D02*
X57721900Y-67310000D01*
X82643100Y-60960000D02*
X81449600Y-59766500D01*
X60008000Y-60960000D02*
X58420000Y-60960000D01*
X83820000Y-60960000D02*
X82643100Y-60960000D01*
X58854900Y-67310000D02*
X61049100Y-65115800D01*
X61049100Y-65115800D02*
X61049100Y-62001100D01*
X43086900Y-74930000D02*
X50101900Y-74930000D01*
X57721900Y-67310000D02*
X58854900Y-67310000D01*
%TO.N,A12*%
X97154600Y-71120000D02*
X99060000Y-71120000D01*
X79580200Y-75863300D02*
X92411300Y-75863300D01*
X92411300Y-75863300D02*
X97154600Y-71120000D01*
X50206500Y-80510400D02*
X64269600Y-80510400D01*
X48260000Y-81280000D02*
X49436900Y-81280000D01*
X64269600Y-80510400D02*
X73660000Y-71120000D01*
X74836900Y-71120000D02*
X79580200Y-75863300D01*
X73660000Y-71120000D02*
X74836900Y-71120000D01*
X49436900Y-81280000D02*
X50206500Y-80510400D01*
%TO.N,A13*%
X58420000Y-68580000D02*
X57243100Y-68580000D01*
X57243100Y-68900200D02*
X57243100Y-68580000D01*
X48580200Y-77563100D02*
X57243100Y-68900200D01*
X48260000Y-77563100D02*
X48580200Y-77563100D01*
X48260000Y-78740000D02*
X48260000Y-77563100D01*
%TO.N,A14*%
X82550000Y-88900000D02*
X81373100Y-88900000D01*
X43464300Y-82457500D02*
X50022600Y-82457500D01*
X43868800Y-76200000D02*
X40825300Y-79243500D01*
X40825300Y-79243500D02*
X40825300Y-79818500D01*
X50022600Y-82457500D02*
X51323600Y-81156500D01*
X48260000Y-76200000D02*
X47083100Y-76200000D01*
X51323600Y-81156500D02*
X73629600Y-81156500D01*
X47083100Y-76200000D02*
X43868800Y-76200000D01*
X40825300Y-79818500D02*
X43464300Y-82457500D01*
X73629600Y-81156500D02*
X81373100Y-88900000D01*
%TO.N,A15*%
X81373100Y-91074200D02*
X72277900Y-81979000D01*
X81373100Y-91440000D02*
X81373100Y-91074200D01*
X52270500Y-81979000D02*
X52270500Y-81978900D01*
X72277900Y-81979000D02*
X52270500Y-81979000D01*
X82550000Y-91440000D02*
X81373100Y-91440000D01*
%TO.N,CLOCK*%
X82108400Y-92710000D02*
X83018000Y-92710000D01*
X74930000Y-100423100D02*
X75297900Y-100423100D01*
X76106900Y-99614100D02*
X76106900Y-98711500D01*
X89767400Y-79644900D02*
X96247500Y-73164800D01*
X48260000Y-43180000D02*
X45535300Y-43180000D01*
X83726900Y-83537100D02*
X87619100Y-79644900D01*
X45535300Y-43180000D02*
X35549800Y-33194500D01*
X83018000Y-92710000D02*
X83726900Y-92001100D01*
X83726900Y-92001100D02*
X83726900Y-83537100D01*
X76106900Y-98711500D02*
X82108400Y-92710000D01*
X75297900Y-100423100D02*
X76106900Y-99614100D01*
X87619100Y-79644900D02*
X89767400Y-79644900D01*
X74930000Y-101600000D02*
X74930000Y-100423100D01*
%TO.N,~{ROM}*%
X87588000Y-82229400D02*
X88357200Y-82229400D01*
X73660000Y-25400000D02*
X73660000Y-26626900D01*
X89804200Y-97883100D02*
X86480500Y-94559400D01*
X86480500Y-83336900D02*
X87588000Y-82229400D01*
X88357200Y-82229400D02*
X98271400Y-72315200D01*
X83820000Y-53340000D02*
X83820000Y-52163100D01*
X85502100Y-38469000D02*
X73660000Y-26626900D01*
X100256600Y-65511300D02*
X99515300Y-64770000D01*
X100256600Y-71650300D02*
X100256600Y-65511300D01*
X91015100Y-57195700D02*
X91015100Y-55196300D01*
X83820000Y-52163100D02*
X84185800Y-52163100D01*
X86480500Y-94559400D02*
X86480500Y-83336900D01*
X90170000Y-97883100D02*
X89804200Y-97883100D01*
X98589400Y-64770000D02*
X91015100Y-57195700D01*
X84185800Y-52163100D02*
X85502100Y-50846800D01*
X99591700Y-72315200D02*
X100256600Y-71650300D01*
X99515300Y-64770000D02*
X98589400Y-64770000D01*
X90170000Y-99060000D02*
X90170000Y-97883100D01*
X85502100Y-50846800D02*
X85502100Y-38469000D01*
X98271400Y-72315200D02*
X99591700Y-72315200D01*
%TO.N,Net-(U8-2A1)*%
X73784300Y-106343400D02*
X78833100Y-111392200D01*
X47326600Y-106343400D02*
X73784300Y-106343400D01*
X45720000Y-107950000D02*
X39220000Y-107950000D01*
X80010000Y-111760000D02*
X78833100Y-111760000D01*
X78833100Y-111392200D02*
X78833100Y-111760000D01*
X45720000Y-107950000D02*
X47326600Y-106343400D01*
%TO.N,Net-(U8-2A0)*%
X73753100Y-112127900D02*
X72944100Y-112936900D01*
X53989600Y-111070100D02*
X47529700Y-117530000D01*
X47529700Y-117530000D02*
X45720000Y-117530000D01*
X62991100Y-111070100D02*
X53989600Y-111070100D01*
X64857900Y-112936900D02*
X62991100Y-111070100D01*
X72944100Y-112936900D02*
X64857900Y-112936900D01*
X39220000Y-117530000D02*
X45720000Y-117530000D01*
X74930000Y-111760000D02*
X73753100Y-111760000D01*
X73753100Y-111760000D02*
X73753100Y-112127900D01*
%TO.N,Net-(U8-1A3)*%
X35560000Y-115817400D02*
X35560000Y-112450000D01*
X35560000Y-112450000D02*
X29060000Y-112450000D01*
X83913100Y-119380000D02*
X83913100Y-119747800D01*
X85090000Y-119380000D02*
X83913100Y-119380000D01*
X72971300Y-118203100D02*
X47297100Y-118203100D01*
X73660000Y-118891800D02*
X72971300Y-118203100D01*
X73660000Y-119775400D02*
X73660000Y-118891800D01*
X74947600Y-121063000D02*
X73660000Y-119775400D01*
X83913100Y-119747800D02*
X82597900Y-121063000D01*
X82597900Y-121063000D02*
X74947600Y-121063000D01*
X47297100Y-118203100D02*
X46550500Y-118949700D01*
X46550500Y-118949700D02*
X38692300Y-118949700D01*
X38692300Y-118949700D02*
X35560000Y-115817400D01*
%TO.N,Net-(U8-1A2)*%
X93108700Y-114314700D02*
X102815300Y-104608100D01*
X100401100Y-101231400D02*
X100401100Y-90098900D01*
X102815300Y-104608100D02*
X102815300Y-103645600D01*
X80010000Y-119380000D02*
X80010000Y-118203100D01*
X80010000Y-118203100D02*
X80010000Y-116133800D01*
X81829100Y-114314700D02*
X93108700Y-114314700D01*
X102815300Y-103645600D02*
X100401100Y-101231400D01*
X80010000Y-116133800D02*
X81829100Y-114314700D01*
X59563800Y-116133800D02*
X55880000Y-112450000D01*
X100401100Y-90098900D02*
X101600000Y-88900000D01*
X80010000Y-116133800D02*
X59563800Y-116133800D01*
%TO.N,Net-(U8-1A1)*%
X76106900Y-119747800D02*
X76106900Y-119380000D01*
X106830000Y-114990000D02*
X100330000Y-114990000D01*
X74930000Y-119380000D02*
X76106900Y-119380000D01*
X85227900Y-114990000D02*
X81373100Y-118844800D01*
X81373100Y-118844800D02*
X81373100Y-119686100D01*
X80499600Y-120559600D02*
X76918700Y-120559600D01*
X76918700Y-120559600D02*
X76106900Y-119747800D01*
X100330000Y-114990000D02*
X85227900Y-114990000D01*
X81373100Y-119686100D02*
X80499600Y-120559600D01*
%TO.N,Net-(U8-1A0)*%
X71026900Y-119380000D02*
X71026900Y-119747800D01*
X69850000Y-119380000D02*
X71026900Y-119380000D01*
X71026900Y-119747800D02*
X72846700Y-121567600D01*
X72846700Y-121567600D02*
X107572400Y-121567600D01*
X107572400Y-121567600D02*
X114150000Y-114990000D01*
X120650000Y-114990000D02*
X114150000Y-114990000D01*
%TD*%
M02*
